<svg width="627" height="300" viewBox="0 0 627 300" fill="none" xmlns="http://www.w3.org/2000/svg">
<path d="M509.942 59.6901C513.841 60.097 517.435 61.5602 520.321 63.915L602.807 131.228C608.312 135.721 610.627 142.938 608.89 150.191L580.659 268.047C577.996 279.163 566.755 287.061 555.367 285.817L21.9893 227.527C10.2683 226.246 2.88975 215.793 5.63052 204.351L46.9691 31.777C49.6227 20.6992 60.7984 12.8102 72.1583 13.9959L509.942 59.6901Z" fill="#C6B6F4"/>
<g filter="url(#filter0_f_9_12)">
<line y1="-2.5" x2="70.6" y2="-2.5" transform="matrix(-0.232951 0.972489 -0.991682 -0.128715 513.953 60.059)" stroke="#250439" stroke-width="5"/>
</g>
<g filter="url(#filter1_f_9_12)">
<line y1="-5" x2="113.815" y2="-5" transform="matrix(0.991682 0.128715 -0.232951 0.972489 497.506 128.717)" stroke="#250439" stroke-width="10"/>
</g>
<path d="M198.214 143.443L195.58 143.101C195.606 142.667 195.558 142.274 195.434 141.921C195.312 141.563 195.128 141.25 194.882 140.981C194.637 140.711 194.336 140.494 193.978 140.329C193.627 140.16 193.23 140.047 192.789 139.99C192.005 139.888 191.263 139.991 190.565 140.299C189.868 140.603 189.259 141.103 188.739 141.8C188.219 142.492 187.832 143.37 187.577 144.434C187.318 145.516 187.271 146.45 187.436 147.236C187.607 148.017 187.948 148.636 188.459 149.092C188.975 149.543 189.623 149.82 190.403 149.921C190.835 149.977 191.252 149.974 191.654 149.912C192.062 149.847 192.442 149.723 192.796 149.541C193.154 149.359 193.475 149.121 193.759 148.825C194.047 148.53 194.281 148.181 194.46 147.777L197.091 148.133C196.831 148.792 196.466 149.395 195.997 149.942C195.531 150.489 194.982 150.954 194.348 151.337C193.715 151.716 193.016 151.986 192.251 152.148C191.487 152.305 190.676 152.328 189.816 152.216C188.549 152.052 187.486 151.617 186.628 150.912C185.771 150.207 185.186 149.275 184.873 148.113C184.561 146.952 184.586 145.612 184.95 144.093C185.315 142.569 185.916 141.303 186.753 140.296C187.591 139.284 188.577 138.555 189.71 138.109C190.843 137.662 192.039 137.521 193.297 137.684C194.1 137.788 194.82 137.996 195.458 138.306C196.095 138.617 196.632 139.021 197.07 139.52C197.508 140.013 197.827 140.591 198.027 141.253C198.232 141.912 198.295 142.641 198.214 143.443ZM202.919 153.931C201.862 153.794 201.001 153.447 200.336 152.891C199.67 152.334 199.222 151.619 198.991 150.744C198.765 149.869 198.783 148.884 199.045 147.788C199.308 146.692 199.749 145.759 200.369 144.99C200.994 144.221 201.748 143.659 202.632 143.304C203.516 142.949 204.486 142.84 205.543 142.977C206.599 143.114 207.46 143.461 208.126 144.017C208.791 144.573 209.237 145.291 209.462 146.17C209.692 147.05 209.675 148.038 209.413 149.134C209.15 150.23 208.707 151.16 208.084 151.924C207.465 152.688 206.713 153.249 205.829 153.604C204.945 153.959 203.975 154.068 202.919 153.931ZM203.413 151.93C203.985 152.004 204.501 151.912 204.96 151.654C205.42 151.39 205.807 151.009 206.121 150.508C206.439 150.008 206.675 149.436 206.83 148.791C206.985 148.142 207.03 147.542 206.963 146.992C206.902 146.439 206.716 145.98 206.406 145.617C206.096 145.254 205.655 145.035 205.082 144.961C204.495 144.885 203.969 144.978 203.504 145.24C203.044 145.504 202.655 145.887 202.335 146.392C202.022 146.892 201.787 147.467 201.632 148.117C201.477 148.761 201.431 149.358 201.493 149.907C201.56 150.457 201.748 150.914 202.058 151.277C202.374 151.636 202.826 151.854 203.413 151.93ZM210.316 154.678L212.857 144.069L215.294 144.385L214.863 146.188L214.989 146.204C215.36 145.625 215.847 145.2 216.45 144.927C217.054 144.649 217.717 144.557 218.441 144.651C219.173 144.746 219.749 145.001 220.167 145.416C220.592 145.827 220.835 146.346 220.899 146.971L221.011 146.986C221.392 146.427 221.908 146.01 222.56 145.734C223.218 145.454 223.939 145.364 224.723 145.466C225.718 145.595 226.457 146.009 226.938 146.708C227.42 147.407 227.519 148.348 227.235 149.531L225.529 156.652L222.973 156.32L224.586 149.586C224.744 148.928 224.68 148.423 224.396 148.073C224.113 147.718 223.714 147.507 223.197 147.44C222.582 147.36 222.056 147.487 221.618 147.819C221.186 148.148 220.898 148.611 220.754 149.21L219.169 155.827L216.669 155.502L218.307 148.664C218.438 148.116 218.374 147.657 218.114 147.286C217.859 146.916 217.462 146.696 216.922 146.626C216.555 146.578 216.2 146.627 215.855 146.772C215.512 146.913 215.211 147.137 214.953 147.446C214.697 147.749 214.516 148.12 214.411 148.557L212.866 155.008L210.316 154.678ZM227.163 160.966L230.657 146.379L233.165 146.704L232.744 148.459L232.892 148.478C233.086 148.237 233.337 147.987 233.646 147.728C233.956 147.465 234.34 147.256 234.798 147.102C235.257 146.943 235.804 146.904 236.438 146.987C237.273 147.095 237.977 147.403 238.548 147.909C239.125 148.411 239.513 149.095 239.712 149.961C239.917 150.824 239.878 151.844 239.596 153.023C239.317 154.188 238.885 155.152 238.3 155.917C237.715 156.681 237.036 157.234 236.262 157.575C235.487 157.916 234.676 158.032 233.826 157.921C233.206 157.841 232.716 157.673 232.356 157.417C231.996 157.162 231.726 156.875 231.545 156.557C231.371 156.235 231.246 155.937 231.172 155.661L231.066 155.647L229.713 161.297L227.163 160.966ZM231.887 152.008C231.723 152.694 231.677 153.308 231.751 153.849C231.829 154.391 232.022 154.831 232.328 155.17C232.64 155.505 233.066 155.708 233.606 155.778C234.169 155.851 234.676 155.765 235.127 155.519C235.579 155.269 235.963 154.899 236.279 154.408C236.601 153.914 236.842 153.335 237 152.672C237.158 152.013 237.202 151.416 237.132 150.88C237.062 150.344 236.871 149.906 236.56 149.566C236.25 149.227 235.81 149.02 235.242 148.947C234.697 148.876 234.201 148.956 233.754 149.188C233.306 149.419 232.923 149.776 232.604 150.257C232.29 150.738 232.051 151.322 231.887 152.008ZM248.476 155.03L249.949 148.883L252.498 149.214L249.957 159.823L247.485 159.502L247.936 157.616L247.824 157.602C247.437 158.164 246.92 158.598 246.27 158.903C245.626 159.208 244.897 159.308 244.085 159.203C243.376 159.111 242.786 158.875 242.315 158.496C241.85 158.113 241.536 157.605 241.374 156.971C241.212 156.333 241.232 155.59 241.435 154.743L243.053 147.988L245.603 148.319L244.078 154.687C243.917 155.359 243.976 155.918 244.257 156.362C244.538 156.807 244.984 157.069 245.594 157.148C245.97 157.197 246.355 157.155 246.75 157.021C247.145 156.887 247.498 156.657 247.808 156.332C248.125 156.003 248.347 155.569 248.476 155.03ZM260.522 150.255L260.059 152.189L253.84 151.382L254.303 149.448L260.522 150.255ZM256.447 147.106L258.997 147.437L256.611 157.396C256.531 157.732 256.521 157.997 256.581 158.19C256.647 158.379 256.759 158.517 256.917 158.604C257.076 158.691 257.261 158.748 257.472 158.776C257.631 158.796 257.78 158.804 257.917 158.798C258.058 158.792 258.167 158.785 258.242 158.776L258.203 160.786C258.056 160.815 257.849 160.84 257.582 160.862C257.32 160.885 257.007 160.878 256.643 160.84C256 160.776 255.448 160.607 254.985 160.333C254.524 160.055 254.197 159.675 254.002 159.194C253.812 158.714 253.799 158.142 253.962 157.48L256.447 147.106ZM264.737 161.955C263.652 161.814 262.768 161.471 262.085 160.927C261.408 160.379 260.956 159.669 260.729 158.8C260.502 157.925 260.522 156.933 260.788 155.823C261.049 154.732 261.49 153.802 262.11 153.032C262.736 152.259 263.487 151.692 264.362 151.331C265.239 150.965 266.194 150.849 267.227 150.983C267.894 151.07 268.498 151.257 269.038 151.546C269.585 151.83 270.034 152.221 270.384 152.718C270.74 153.215 270.968 153.819 271.069 154.53C271.171 155.236 271.11 156.054 270.887 156.985L270.704 157.751L261.836 156.6L262.24 154.915L268.663 155.749C268.773 155.269 268.77 154.83 268.653 154.43C268.536 154.025 268.319 153.691 268 153.426C267.685 153.162 267.284 152.999 266.796 152.935C266.274 152.868 265.787 152.933 265.333 153.13C264.88 153.323 264.495 153.605 264.179 153.977C263.868 154.345 263.653 154.766 263.535 155.24L263.182 156.711C263.035 157.328 263.023 157.872 263.147 158.344C263.272 158.812 263.513 159.189 263.87 159.478C264.228 159.762 264.684 159.94 265.239 160.012C265.61 160.06 265.957 160.053 266.282 159.99C266.608 159.923 266.906 159.803 267.175 159.629C267.444 159.455 267.671 159.226 267.855 158.941L270.173 159.513C269.875 160.11 269.459 160.612 268.926 161.017C268.399 161.419 267.779 161.704 267.066 161.872C266.354 162.036 265.577 162.064 264.737 161.955ZM271.754 162.652L274.295 152.043L276.767 152.364L276.344 154.132L276.456 154.147C276.8 153.56 277.252 153.132 277.81 152.862C278.374 152.589 278.966 152.492 279.586 152.573C279.727 152.591 279.882 152.619 280.053 152.655C280.229 152.687 280.373 152.723 280.485 152.761L279.934 155.061C279.835 155.01 279.671 154.956 279.443 154.897C279.221 154.835 279.001 154.79 278.785 154.762C278.321 154.702 277.879 154.747 277.461 154.896C277.048 155.042 276.695 155.274 276.401 155.592C276.107 155.91 275.906 156.295 275.798 156.746L274.304 162.983L271.754 162.652ZM294.946 155.086C295.025 154.475 294.86 153.969 294.452 153.57C294.049 153.171 293.46 152.921 292.686 152.82C292.141 152.75 291.654 152.77 291.226 152.88C290.798 152.991 290.447 153.171 290.174 153.42C289.902 153.67 289.72 153.971 289.631 154.325C289.56 154.62 289.567 154.884 289.651 155.119C289.74 155.353 289.886 155.562 290.09 155.745C290.294 155.924 290.529 156.082 290.796 156.221C291.063 156.361 291.336 156.484 291.615 156.591L292.888 157.098C293.403 157.293 293.886 157.529 294.338 157.806C294.794 158.084 295.184 158.41 295.505 158.784C295.832 159.159 296.058 159.589 296.184 160.076C296.309 160.562 296.299 161.111 296.152 161.724C295.953 162.553 295.563 163.254 294.98 163.829C294.398 164.399 293.656 164.809 292.754 165.057C291.858 165.302 290.832 165.349 289.677 165.199C288.555 165.053 287.621 164.756 286.876 164.308C286.136 163.861 285.612 163.28 285.304 162.566C285 161.853 284.942 161.024 285.13 160.079L287.701 160.413C287.62 160.911 287.677 161.341 287.871 161.703C288.065 162.065 288.361 162.355 288.759 162.573C289.162 162.791 289.636 162.936 290.18 163.007C290.748 163.08 291.266 163.062 291.733 162.952C292.206 162.838 292.6 162.647 292.916 162.379C293.233 162.107 293.442 161.768 293.544 161.364C293.627 160.995 293.59 160.677 293.431 160.409C293.274 160.137 293.019 159.895 292.668 159.683C292.323 159.468 291.908 159.262 291.422 159.066L289.88 158.438C288.764 157.985 287.933 157.41 287.389 156.712C286.85 156.011 286.702 155.154 286.945 154.141C287.144 153.307 287.549 152.607 288.159 152.041C288.774 151.475 289.522 151.071 290.403 150.829C291.285 150.583 292.231 150.525 293.24 150.656C294.264 150.789 295.119 151.08 295.805 151.53C296.497 151.976 296.99 152.536 297.283 153.211C297.578 153.88 297.637 154.614 297.46 155.413L294.946 155.086ZM302.087 166.803C301.007 166.662 300.135 166.31 299.472 165.744C298.813 165.179 298.373 164.459 298.152 163.586C297.936 162.708 297.956 161.732 298.213 160.66C298.471 159.582 298.911 158.659 299.531 157.889C300.152 157.115 300.902 156.548 301.783 156.188C302.669 155.823 303.64 155.709 304.697 155.846C305.575 155.96 306.314 156.22 306.914 156.626C307.52 157.027 307.956 157.542 308.222 158.17C308.489 158.793 308.559 159.491 308.432 160.262L305.995 159.946C306.019 159.422 305.886 158.966 305.597 158.577C305.313 158.184 304.864 157.948 304.249 157.868C303.728 157.8 303.237 157.879 302.776 158.104C302.317 158.324 301.915 158.676 301.572 159.158C301.234 159.641 300.979 160.24 300.808 160.954C300.635 161.676 300.594 162.312 300.685 162.86C300.778 163.404 300.985 163.842 301.308 164.173C301.636 164.501 302.065 164.699 302.596 164.768C302.972 164.817 303.324 164.791 303.653 164.691C303.988 164.588 304.288 164.415 304.554 164.174C304.82 163.934 305.036 163.627 305.203 163.254L307.639 163.571C307.399 164.313 307.014 164.95 306.485 165.479C305.958 166.004 305.319 166.387 304.569 166.626C303.821 166.861 302.993 166.92 302.087 166.803ZM308.864 167.469L311.406 156.86L313.955 157.191L311.414 167.8L308.864 167.469ZM313.048 155.52C312.644 155.468 312.328 155.292 312.1 154.991C311.873 154.687 311.804 154.348 311.894 153.975C311.984 153.597 312.206 153.296 312.56 153.071C312.915 152.842 313.295 152.754 313.699 152.806C314.107 152.859 314.422 153.038 314.645 153.342C314.873 153.642 314.942 153.981 314.852 154.359C314.762 154.732 314.54 155.033 314.185 155.262C313.836 155.487 313.457 155.573 313.048 155.52ZM318.776 168.969C317.691 168.828 316.807 168.485 316.124 167.941C315.447 167.392 314.995 166.683 314.768 165.813C314.541 164.939 314.561 163.947 314.827 162.837C315.088 161.746 315.529 160.816 316.149 160.046C316.775 159.273 317.526 158.706 318.401 158.345C319.278 157.979 320.233 157.863 321.266 157.997C321.933 158.084 322.536 158.271 323.077 158.56C323.624 158.844 324.073 159.235 324.423 159.731C324.779 160.229 325.007 160.833 325.108 161.544C325.21 162.25 325.149 163.068 324.926 163.999L324.743 164.765L315.875 163.614L316.279 161.929L322.702 162.763C322.812 162.283 322.809 161.844 322.692 161.444C322.575 161.039 322.358 160.705 322.039 160.44C321.724 160.176 321.323 160.013 320.835 159.949C320.313 159.882 319.826 159.947 319.372 160.144C318.919 160.337 318.534 160.619 318.217 160.991C317.907 161.359 317.692 161.78 317.574 162.254L317.221 163.725C317.074 164.342 317.062 164.886 317.186 165.358C317.311 165.826 317.552 166.203 317.909 166.492C318.267 166.776 318.723 166.954 319.277 167.026C319.648 167.074 319.996 167.067 320.321 167.004C320.647 166.937 320.944 166.817 321.214 166.643C321.483 166.469 321.71 166.24 321.894 165.955L324.212 166.527C323.914 167.124 323.498 167.626 322.965 168.031C322.438 168.433 321.818 168.718 321.105 168.886C320.393 169.05 319.616 169.078 318.776 168.969ZM329.831 163.781L328.342 169.997L325.793 169.666L328.334 159.057L330.771 159.373L330.339 161.176L330.466 161.192C330.857 160.631 331.367 160.21 331.995 159.931C332.629 159.652 333.349 159.565 334.157 159.67C334.903 159.767 335.516 160.008 335.995 160.393C336.479 160.779 336.802 161.288 336.965 161.922C337.133 162.556 337.113 163.297 336.905 164.143L335.287 170.898L332.737 170.567L334.263 164.199C334.433 163.49 334.378 162.911 334.098 162.461C333.823 162.013 333.357 161.746 332.7 161.66C332.253 161.602 331.834 161.648 331.44 161.796C331.052 161.94 330.716 162.179 330.433 162.513C330.154 162.847 329.954 163.269 329.831 163.781ZM342.548 172.054C341.468 171.914 340.597 171.561 339.933 170.996C339.275 170.431 338.834 169.711 338.613 168.837C338.397 167.959 338.418 166.984 338.675 165.911C338.933 164.834 339.372 163.91 339.992 163.141C340.613 162.367 341.364 161.8 342.244 161.439C343.13 161.075 344.102 160.961 345.158 161.098C346.036 161.212 346.775 161.472 347.375 161.877C347.981 162.279 348.417 162.794 348.683 163.422C348.95 164.045 349.02 164.742 348.893 165.514L346.456 165.198C346.48 164.674 346.348 164.217 346.058 163.829C345.775 163.436 345.325 163.199 344.71 163.12C344.189 163.052 343.698 163.131 343.238 163.356C342.778 163.576 342.377 163.928 342.034 164.41C341.695 164.893 341.441 165.492 341.27 166.205C341.096 166.928 341.055 167.564 341.147 168.112C341.239 168.656 341.447 169.094 341.769 169.425C342.097 169.752 342.527 169.951 343.057 170.019C343.433 170.068 343.785 170.043 344.114 169.943C344.449 169.839 344.749 169.667 345.015 169.426C345.281 169.185 345.497 168.879 345.664 168.506L348.101 168.822C347.86 169.565 347.475 170.201 346.947 170.731C346.419 171.256 345.78 171.638 345.031 171.878C344.282 172.113 343.454 172.172 342.548 172.054ZM354.066 173.549C352.981 173.408 352.097 173.066 351.414 172.521C350.737 171.973 350.285 171.264 350.057 170.394C349.831 169.519 349.851 168.527 350.117 167.418C350.378 166.326 350.819 165.396 351.439 164.627C352.065 163.853 352.815 163.286 353.691 162.925C354.568 162.559 355.523 162.443 356.556 162.578C357.223 162.664 357.826 162.852 358.367 163.14C358.914 163.425 359.363 163.815 359.713 164.312C360.069 164.809 360.297 165.413 360.398 166.124C360.499 166.831 360.439 167.649 360.216 168.579L360.033 169.346L351.165 168.195L351.569 166.509L357.992 167.343C358.102 166.864 358.099 166.424 357.981 166.024C357.865 165.62 357.648 165.285 357.329 165.021C357.014 164.757 356.613 164.593 356.124 164.53C355.603 164.462 355.116 164.527 354.662 164.725C354.209 164.917 353.824 165.2 353.507 165.572C353.197 165.94 352.982 166.36 352.864 166.834L352.511 168.305C352.363 168.922 352.352 169.467 352.476 169.939C352.601 170.406 352.842 170.784 353.199 171.072C353.557 171.356 354.013 171.534 354.567 171.606C354.938 171.654 355.286 171.647 355.611 171.585C355.937 171.518 356.234 171.397 356.504 171.223C356.773 171.05 357 170.82 357.184 170.536L359.502 171.107C359.204 171.705 358.788 172.206 358.255 172.612C357.728 173.013 357.108 173.298 356.395 173.467C355.682 173.631 354.906 173.658 354.066 173.549ZM369.064 175.503C368.379 175.414 367.79 175.214 367.298 174.903C366.812 174.589 366.466 174.173 366.26 173.658C366.059 173.143 366.042 172.537 366.208 171.842C366.352 171.244 366.583 170.763 366.902 170.401C367.221 170.039 367.604 169.766 368.05 169.582C368.496 169.397 368.977 169.277 369.494 169.221C370.017 169.16 370.548 169.137 371.087 169.15C371.737 169.167 372.264 169.177 372.671 169.177C373.079 169.173 373.385 169.127 373.59 169.04C373.801 168.949 373.935 168.783 373.992 168.544L374.002 168.502C374.126 167.982 374.066 167.559 373.819 167.232C373.573 166.906 373.154 166.705 372.563 166.628C371.938 166.547 371.411 166.616 370.981 166.836C370.555 167.056 370.235 167.339 370.021 167.687L367.72 167.046C368.063 166.426 368.501 165.927 369.037 165.551C369.574 165.169 370.18 164.911 370.857 164.776C371.534 164.636 372.251 164.615 373.007 164.713C373.528 164.78 374.033 164.908 374.52 165.094C375.008 165.281 375.433 165.54 375.794 165.872C376.156 166.199 376.41 166.614 376.556 167.118C376.706 167.621 376.697 168.226 376.528 168.93L374.828 176.03L372.376 175.712L372.726 174.255L372.641 174.244C372.416 174.518 372.131 174.766 371.787 174.988C371.45 175.205 371.051 175.364 370.591 175.466C370.137 175.564 369.628 175.576 369.064 175.503ZM370.166 173.752C370.678 173.818 371.146 173.777 371.569 173.628C371.993 173.474 372.346 173.244 372.627 172.939C372.913 172.634 373.103 172.286 373.197 171.895L373.496 170.644C373.401 170.699 373.25 170.741 373.044 170.771C372.843 170.802 372.621 170.823 372.376 170.834C372.131 170.845 371.89 170.851 371.652 170.854C371.414 170.856 371.208 170.858 371.034 170.859C370.641 170.86 370.281 170.899 369.953 170.975C369.625 171.051 369.349 171.182 369.126 171.366C368.903 171.546 368.754 171.797 368.676 172.12C368.566 172.58 368.654 172.95 368.941 173.229C369.227 173.509 369.636 173.683 370.166 173.752ZM381.43 170.478L379.941 176.694L377.391 176.363L379.933 165.754L382.369 166.07L381.938 167.873L382.064 167.89C382.456 167.328 382.965 166.907 383.594 166.628C384.227 166.35 384.947 166.263 385.755 166.367C386.502 166.464 387.114 166.705 387.594 167.09C388.077 167.476 388.401 167.986 388.564 168.619C388.731 169.253 388.711 169.994 388.504 170.84L386.885 177.595L384.336 177.264L385.861 170.896C386.031 170.187 385.976 169.608 385.697 169.159C385.422 168.71 384.955 168.443 384.298 168.358C383.852 168.3 383.432 168.345 383.038 168.493C382.65 168.637 382.315 168.876 382.031 169.21C381.753 169.544 381.552 169.967 381.43 170.478ZM393.447 178.639C392.597 178.529 391.888 178.216 391.319 177.701C390.75 177.185 390.369 176.495 390.174 175.629C389.98 174.764 390.022 173.749 390.301 172.584C390.583 171.405 391.019 170.436 391.607 169.677C392.202 168.913 392.887 168.368 393.662 168.042C394.438 167.711 395.242 167.599 396.073 167.707C396.707 167.789 397.203 167.963 397.561 168.227C397.92 168.488 398.184 168.781 398.352 169.106C398.522 169.428 398.642 169.726 398.712 170L398.818 170.014L400.085 164.724L402.642 165.055L399.253 179.201L396.746 178.875L397.146 177.204L396.991 177.184C396.798 177.424 396.542 177.674 396.224 177.932C395.907 178.185 395.52 178.386 395.063 178.536C394.606 178.685 394.067 178.72 393.447 178.639ZM394.65 176.68C395.19 176.75 395.684 176.667 396.133 176.431C396.583 176.191 396.968 175.825 397.289 175.335C397.61 174.845 397.852 174.257 398.017 173.571C398.181 172.885 398.225 172.276 398.149 171.743C398.078 171.212 397.886 170.781 397.573 170.451C397.265 170.121 396.836 169.921 396.286 169.849C395.718 169.776 395.209 169.859 394.759 170.1C394.31 170.341 393.927 170.704 393.612 171.19C393.297 171.676 393.061 172.249 392.903 172.907C392.744 173.57 392.699 174.174 392.767 174.72C392.84 175.261 393.032 175.706 393.34 176.055C393.655 176.399 394.091 176.608 394.65 176.68ZM202.214 177.691L205.602 163.546L214.983 164.764L214.469 166.912L207.7 166.033L206.78 169.873L213.063 170.689L212.548 172.837L206.266 172.021L205.341 175.882L212.166 176.768L211.651 178.916L202.214 177.691ZM218.187 173.355L216.698 179.571L214.148 179.24L216.69 168.631L219.126 168.948L218.695 170.75L218.821 170.767C219.213 170.205 219.722 169.785 220.351 169.505C220.984 169.227 221.704 169.14 222.512 169.245C223.259 169.342 223.871 169.583 224.351 169.968C224.834 170.353 225.158 170.863 225.321 171.496C225.488 172.131 225.468 172.871 225.261 173.718L223.642 180.473L221.093 180.142L222.618 173.774C222.788 173.064 222.733 172.485 222.454 172.036C222.179 171.587 221.712 171.32 221.055 171.235C220.609 171.177 220.189 171.222 219.795 171.37C219.407 171.515 219.072 171.754 218.788 172.087C218.51 172.421 218.309 172.844 218.187 173.355ZM229.933 185.619C229.018 185.5 228.26 185.276 227.661 184.947C227.061 184.622 226.61 184.231 226.308 183.774C226.006 183.317 225.837 182.832 225.8 182.319L228.227 182.072C228.28 182.292 228.382 182.517 228.53 182.745C228.678 182.978 228.902 183.183 229.204 183.359C229.509 183.541 229.917 183.666 230.429 183.732C231.152 183.826 231.792 183.731 232.349 183.447C232.905 183.168 233.277 182.637 233.464 181.854L233.945 179.844L233.819 179.828C233.625 180.069 233.37 180.308 233.051 180.547C232.737 180.787 232.351 180.972 231.894 181.102C231.441 181.233 230.905 181.259 230.285 181.178C229.454 181.07 228.746 180.781 228.162 180.311C227.583 179.838 227.186 179.192 226.97 178.376C226.759 177.556 226.793 176.568 227.07 175.412C227.349 174.247 227.781 173.29 228.368 172.54C228.96 171.786 229.644 171.246 230.419 170.919C231.195 170.588 231.999 170.476 232.83 170.584C233.464 170.666 233.96 170.84 234.318 171.105C234.681 171.365 234.95 171.659 235.124 171.985C235.298 172.307 235.418 172.605 235.483 172.88L235.624 172.898L236.044 171.144L238.559 171.47L235.976 182.252C235.759 183.159 235.358 183.881 234.775 184.417C234.191 184.954 233.481 185.32 232.645 185.515C231.809 185.711 230.905 185.745 229.933 185.619ZM231.467 179.309C232.007 179.379 232.498 179.31 232.94 179.101C233.382 178.893 233.759 178.56 234.072 178.102C234.385 177.644 234.623 177.077 234.785 176.4C234.945 175.732 234.987 175.134 234.91 174.607C234.837 174.08 234.644 173.654 234.33 173.328C234.022 172.998 233.593 172.798 233.043 172.727C232.475 172.653 231.966 172.736 231.516 172.977C231.067 173.218 230.685 173.579 230.371 174.061C230.058 174.537 229.825 175.096 229.672 175.736C229.516 176.385 229.476 176.966 229.552 177.479C229.633 177.989 229.832 178.404 230.147 178.725C230.468 179.042 230.908 179.236 231.467 179.309ZM238.63 182.418L241.172 171.809L243.721 172.14L241.18 182.749L238.63 182.418ZM242.814 170.47C242.41 170.417 242.094 170.241 241.866 169.941C241.639 169.636 241.57 169.297 241.659 168.924C241.75 168.546 241.972 168.245 242.326 168.021C242.681 167.791 243.061 167.703 243.464 167.755C243.873 167.808 244.188 167.987 244.411 168.291C244.639 168.591 244.708 168.93 244.618 169.308C244.528 169.681 244.306 169.982 243.951 170.211C243.602 170.437 243.223 170.523 242.814 170.47ZM247.84 177.204L246.351 183.42L243.802 183.089L246.343 172.48L248.78 172.797L248.348 174.599L248.475 174.616C248.866 174.054 249.376 173.634 250.004 173.354C250.638 173.076 251.358 172.989 252.166 173.094C252.912 173.19 253.525 173.431 254.004 173.816C254.488 174.202 254.811 174.712 254.974 175.345C255.142 175.98 255.122 176.72 254.914 177.567L253.296 184.322L250.746 183.991L252.272 177.622C252.442 176.913 252.387 176.334 252.107 175.885C251.832 175.436 251.366 175.169 250.709 175.084C250.263 175.026 249.843 175.071 249.449 175.219C249.061 175.364 248.725 175.602 248.442 175.936C248.163 176.27 247.963 176.693 247.84 177.204ZM260.628 185.487C259.543 185.346 258.659 185.003 257.976 184.459C257.299 183.911 256.847 183.201 256.62 182.332C256.393 181.457 256.413 180.465 256.679 179.355C256.94 178.264 257.381 177.334 258.001 176.564C258.627 175.791 259.378 175.224 260.253 174.863C261.13 174.497 262.085 174.381 263.118 174.515C263.785 174.602 264.388 174.789 264.929 175.078C265.476 175.362 265.925 175.753 266.275 176.25C266.631 176.747 266.859 177.351 266.96 178.062C267.062 178.768 267.001 179.586 266.778 180.517L266.595 181.283L257.727 180.132L258.131 178.447L264.554 179.281C264.664 178.801 264.661 178.362 264.544 177.962C264.427 177.557 264.21 177.223 263.891 176.958C263.576 176.694 263.175 176.531 262.687 176.467C262.165 176.4 261.678 176.465 261.224 176.662C260.771 176.855 260.386 177.137 260.069 177.509C259.759 177.877 259.544 178.298 259.426 178.772L259.073 180.243C258.926 180.86 258.914 181.404 259.038 181.876C259.163 182.344 259.404 182.721 259.761 183.01C260.119 183.294 260.575 183.472 261.129 183.544C261.5 183.592 261.848 183.585 262.173 183.522C262.499 183.455 262.796 183.335 263.066 183.161C263.335 182.987 263.562 182.758 263.746 182.473L266.064 183.045C265.766 183.642 265.35 184.144 264.817 184.549C264.29 184.951 263.67 185.236 262.957 185.405C262.245 185.568 261.468 185.596 260.628 185.487ZM272.385 187.013C271.3 186.872 270.416 186.529 269.733 185.985C269.056 185.437 268.604 184.727 268.376 183.858C268.15 182.983 268.17 181.991 268.436 180.881C268.697 179.79 269.138 178.86 269.758 178.09C270.384 177.317 271.134 176.75 272.01 176.389C272.887 176.023 273.842 175.907 274.875 176.041C275.541 176.128 276.145 176.315 276.686 176.604C277.233 176.888 277.682 177.279 278.032 177.776C278.388 178.273 278.616 178.877 278.716 179.588C278.818 180.294 278.758 181.112 278.535 182.043L278.352 182.809L269.484 181.658L269.888 179.973L276.311 180.807C276.421 180.327 276.418 179.888 276.3 179.488C276.184 179.083 275.967 178.749 275.647 178.484C275.333 178.22 274.932 178.057 274.443 177.993C273.922 177.926 273.435 177.991 272.981 178.188C272.528 178.381 272.143 178.663 271.826 179.035C271.515 179.403 271.301 179.824 271.183 180.298L270.83 181.769C270.682 182.386 270.671 182.93 270.795 183.402C270.92 183.87 271.161 184.247 271.518 184.536C271.876 184.82 272.332 184.998 272.886 185.07C273.257 185.118 273.605 185.111 273.93 185.048C274.256 184.981 274.553 184.861 274.823 184.687C275.092 184.513 275.319 184.284 275.503 183.999L277.821 184.571C277.523 185.168 277.107 185.67 276.574 186.075C276.047 186.477 275.427 186.762 274.714 186.931C274.001 187.094 273.225 187.122 272.385 187.013ZM279.402 187.71L281.943 177.101L284.415 177.422L283.992 179.19L284.104 179.205C284.448 178.618 284.899 178.19 285.458 177.92C286.022 177.647 286.614 177.551 287.234 177.631C287.374 177.649 287.53 177.677 287.7 177.713C287.877 177.745 288.021 177.781 288.133 177.819L287.582 180.119C287.483 180.068 287.319 180.014 287.091 179.955C286.868 179.893 286.649 179.848 286.433 179.82C285.968 179.76 285.527 179.805 285.108 179.955C284.696 180.1 284.342 180.332 284.048 180.65C283.754 180.968 283.553 181.353 283.445 181.804L281.951 188.041L279.402 187.71ZM287.265 188.731L289.807 178.122L292.356 178.453L289.815 189.062L287.265 188.731ZM291.449 176.782C291.045 176.73 290.729 176.554 290.501 176.253C290.274 175.948 290.205 175.61 290.294 175.237C290.385 174.859 290.607 174.558 290.961 174.333C291.316 174.104 291.696 174.015 292.099 174.068C292.508 174.121 292.823 174.3 293.046 174.604C293.274 174.904 293.343 175.243 293.253 175.621C293.163 175.993 292.941 176.295 292.586 176.524C292.237 176.749 291.858 176.835 291.449 176.782ZM296.476 183.517L294.986 189.733L292.437 189.402L294.978 178.793L297.415 179.109L296.983 180.912L297.11 180.928C297.501 180.367 298.011 179.946 298.639 179.667C299.273 179.388 299.993 179.301 300.801 179.406C301.547 179.503 302.16 179.744 302.639 180.129C303.123 180.515 303.446 181.024 303.609 181.658C303.777 182.292 303.757 183.033 303.549 183.879L301.931 190.634L299.381 190.303L300.907 183.935C301.077 183.226 301.022 182.647 300.742 182.197C300.467 181.749 300.001 181.482 299.344 181.396C298.898 181.338 298.478 181.384 298.084 181.532C297.696 181.676 297.36 181.915 297.077 182.249C296.798 182.583 296.598 183.005 296.476 183.517ZM308.222 195.781C307.306 195.662 306.549 195.438 305.95 195.108C305.35 194.784 304.899 194.393 304.597 193.936C304.295 193.479 304.125 192.994 304.089 192.481L306.515 192.233C306.569 192.454 306.67 192.678 306.819 192.906C306.966 193.139 307.191 193.344 307.492 193.521C307.797 193.703 308.206 193.827 308.717 193.894C309.441 193.987 310.081 193.892 310.638 193.609C311.193 193.329 311.565 192.799 311.753 192.016L312.234 190.006L312.107 189.989C311.914 190.23 311.658 190.47 311.339 190.709C311.026 190.948 310.64 191.133 310.183 191.264C309.73 191.395 309.194 191.42 308.574 191.34C307.743 191.232 307.035 190.943 306.45 190.473C305.872 189.999 305.474 189.354 305.258 188.538C305.048 187.718 305.081 186.73 305.358 185.574C305.637 184.409 306.07 183.451 306.656 182.701C307.248 181.947 307.932 181.407 308.708 181.08C309.484 180.749 310.288 180.638 311.119 180.745C311.753 180.828 312.249 181.001 312.606 181.266C312.97 181.527 313.239 181.821 313.412 182.147C313.587 182.469 313.707 182.767 313.772 183.041L313.913 183.059L314.333 181.305L316.847 181.631L314.265 192.413C314.047 193.32 313.647 194.042 313.063 194.579C312.48 195.115 311.77 195.481 310.934 195.677C310.098 195.872 309.194 195.907 308.222 195.781ZM309.755 189.47C310.295 189.541 310.786 189.471 311.228 189.263C311.67 189.054 312.048 188.721 312.361 188.263C312.674 187.805 312.912 187.238 313.074 186.561C313.234 185.893 313.275 185.296 313.198 184.768C313.126 184.241 312.933 183.815 312.619 183.49C312.31 183.16 311.881 182.959 311.332 182.888C310.764 182.814 310.255 182.898 309.805 183.139C309.355 183.379 308.973 183.74 308.659 184.222C308.347 184.699 308.114 185.257 307.96 185.897C307.805 186.547 307.765 187.128 307.841 187.641C307.922 188.15 308.12 188.565 308.435 188.886C308.757 189.203 309.196 189.398 309.755 189.47ZM318.934 186.894C319.348 185.168 319.96 183.612 320.772 182.226C321.589 180.837 322.607 179.587 323.826 178.478L326.228 178.79C325.762 179.199 325.295 179.715 324.826 180.338C324.358 180.956 323.915 181.644 323.496 182.402C323.083 183.155 322.71 183.945 322.377 184.77C322.048 185.597 321.786 186.42 321.59 187.239C321.328 188.33 321.174 189.45 321.127 190.597C321.084 191.746 321.139 192.821 321.291 193.823C321.446 194.831 321.691 195.67 322.024 196.34L319.622 196.028C318.992 194.679 318.615 193.251 318.492 191.744C318.374 190.233 318.522 188.617 318.934 186.894ZM339.429 185.837L336.795 185.495C336.821 185.062 336.773 184.669 336.649 184.315C336.527 183.958 336.343 183.644 336.097 183.375C335.852 183.106 335.551 182.889 335.193 182.724C334.841 182.554 334.445 182.441 334.004 182.384C333.219 182.282 332.478 182.385 331.78 182.694C331.083 182.997 330.474 183.497 329.953 184.194C329.434 184.886 329.047 185.764 328.792 186.828C328.533 187.91 328.486 188.844 328.651 189.63C328.822 190.412 329.163 191.03 329.674 191.486C330.19 191.938 330.838 192.214 331.617 192.315C332.049 192.371 332.466 192.368 332.869 192.307C333.276 192.241 333.657 192.117 334.011 191.935C334.369 191.754 334.69 191.515 334.973 191.22C335.262 190.925 335.496 190.575 335.675 190.171L338.306 190.527C338.046 191.186 337.681 191.789 337.211 192.336C336.746 192.884 336.197 193.349 335.563 193.732C334.93 194.11 334.231 194.38 333.466 194.542C332.702 194.699 331.89 194.722 331.031 194.611C329.763 194.446 328.701 194.011 327.843 193.307C326.986 192.602 326.401 191.669 326.088 190.508C325.776 189.347 325.801 188.007 326.165 186.487C326.53 184.963 327.131 183.697 327.968 182.69C328.806 181.678 329.791 180.949 330.925 180.503C332.058 180.057 333.254 179.915 334.512 180.079C335.315 180.183 336.035 180.39 336.673 180.701C337.31 181.011 337.847 181.416 338.285 181.914C338.723 182.408 339.042 182.986 339.242 183.648C339.447 184.306 339.51 185.036 339.429 185.837ZM349.873 186.281C349.952 185.669 349.787 185.164 349.379 184.764C348.976 184.365 348.387 184.116 347.613 184.015C347.068 183.944 346.581 183.964 346.153 184.075C345.725 184.185 345.374 184.365 345.101 184.615C344.829 184.864 344.647 185.166 344.558 185.52C344.487 185.815 344.494 186.079 344.578 186.313C344.667 186.548 344.813 186.757 345.016 186.94C345.221 187.118 345.456 187.277 345.723 187.416C345.99 187.555 346.263 187.678 346.542 187.786L347.815 188.293C348.33 188.488 348.813 188.724 349.265 189.001C349.721 189.279 350.11 189.605 350.432 189.979C350.759 190.353 350.985 190.784 351.111 191.27C351.236 191.757 351.226 192.306 351.079 192.918C350.88 193.747 350.49 194.449 349.907 195.024C349.325 195.594 348.583 196.003 347.681 196.252C346.784 196.496 345.759 196.544 344.604 196.394C343.482 196.248 342.548 195.951 341.803 195.503C341.063 195.056 340.539 194.475 340.231 193.761C339.927 193.047 339.869 192.218 340.057 191.274L342.627 191.608C342.547 192.105 342.604 192.535 342.798 192.897C342.992 193.26 343.288 193.55 343.686 193.768C344.089 193.986 344.562 194.131 345.107 194.201C345.675 194.275 346.193 194.257 346.66 194.147C347.133 194.032 347.527 193.841 347.843 193.574C348.16 193.301 348.369 192.963 348.471 192.558C348.554 192.189 348.517 191.871 348.358 191.604C348.201 191.332 347.946 191.09 347.595 190.878C347.25 190.662 346.834 190.456 346.349 190.26L344.807 189.633C343.691 189.18 342.86 188.604 342.316 187.907C341.777 187.205 341.629 186.348 341.871 185.335C342.071 184.502 342.476 183.802 343.086 183.235C343.701 182.669 344.449 182.266 345.33 182.024C346.212 181.777 347.158 181.72 348.167 181.851C349.191 181.984 350.046 182.275 350.732 182.725C351.424 183.171 351.917 183.731 352.21 184.405C352.505 185.075 352.564 185.809 352.387 186.607L349.873 186.281ZM352.457 197.192L355.846 183.047L365.227 184.265L364.713 186.413L357.944 185.534L357.024 189.374L363.307 190.19L362.792 192.338L356.51 191.522L355.585 195.383L362.41 196.269L361.895 198.417L352.457 197.192ZM370.323 193.565C369.911 195.287 369.296 196.842 368.479 198.232C367.668 199.617 366.652 200.865 365.433 201.974L363.031 201.663C363.502 201.254 363.969 200.74 364.432 200.121C364.899 199.503 365.34 198.814 365.754 198.056C366.173 197.299 366.547 196.507 366.875 195.681C367.208 194.855 367.473 194.035 367.668 193.22C367.929 192.129 368.081 191.009 368.124 189.861C368.171 188.713 368.117 187.635 367.962 186.628C367.811 185.621 367.569 184.782 367.235 184.112L369.637 184.424C370.267 185.773 370.641 187.203 370.759 188.714C370.882 190.221 370.737 191.838 370.323 193.565ZM264.464 215.089C263.208 214.926 262.142 214.574 261.266 214.033C260.397 213.493 259.772 212.828 259.391 212.038C259.018 211.243 258.944 210.388 259.17 209.471C259.335 208.758 259.649 208.123 260.114 207.568C260.578 207.013 261.131 206.572 261.772 206.245C262.421 205.914 263.097 205.736 263.8 205.714L263.827 205.598C262.983 205.289 262.369 204.75 261.983 203.982C261.605 203.21 261.528 202.365 261.754 201.449C261.957 200.575 262.392 199.828 263.057 199.208C263.723 198.588 264.539 198.138 265.507 197.859C266.475 197.575 267.52 197.505 268.642 197.651C269.752 197.795 270.693 198.122 271.465 198.633C272.245 199.138 272.803 199.766 273.14 200.517C273.483 201.268 273.55 202.08 273.341 202.953C273.121 203.87 272.649 204.643 271.923 205.272C271.204 205.897 270.384 206.249 269.465 206.329L269.437 206.445C270.087 206.644 270.634 206.98 271.078 207.453C271.529 207.922 271.844 208.476 272.022 209.114C272.206 209.753 272.213 210.429 272.042 211.142C271.822 212.059 271.349 212.844 270.624 213.496C269.9 214.143 269.003 214.61 267.935 214.899C266.872 215.188 265.715 215.252 264.464 215.089ZM265.032 212.719C265.68 212.803 266.269 212.768 266.8 212.615C267.332 212.456 267.778 212.195 268.138 211.832C268.498 211.468 268.743 211.027 268.873 210.508C268.997 209.966 268.968 209.47 268.786 209.019C268.61 208.563 268.309 208.185 267.881 207.884C267.459 207.584 266.941 207.395 266.327 207.315C265.707 207.235 265.126 207.282 264.585 207.456C264.043 207.631 263.581 207.91 263.199 208.294C262.824 208.672 262.574 209.133 262.45 209.675C262.32 210.193 262.34 210.669 262.509 211.101C262.68 211.528 262.978 211.883 263.404 212.166C263.836 212.45 264.379 212.634 265.032 212.719ZM266.885 204.986C267.414 205.055 267.907 205.01 268.363 204.853C268.825 204.697 269.219 204.446 269.545 204.101C269.872 203.756 270.097 203.338 270.221 202.847C270.331 202.36 270.315 201.919 270.171 201.524C270.029 201.124 269.776 200.798 269.412 200.545C269.05 200.288 268.601 200.124 268.066 200.055C267.519 199.984 267.013 200.023 266.547 200.174C266.088 200.319 265.699 200.562 265.379 200.902C265.066 201.238 264.855 201.649 264.744 202.136C264.62 202.627 264.629 203.075 264.77 203.481C264.918 203.882 265.172 204.217 265.532 204.486C265.898 204.75 266.349 204.917 266.885 204.986ZM279.828 217.084C278.571 216.92 277.505 216.568 276.63 216.027C275.76 215.487 275.135 214.822 274.755 214.032C274.382 213.237 274.308 212.382 274.533 211.465C274.698 210.752 275.013 210.117 275.477 209.562C275.941 209.007 276.494 208.566 277.136 208.239C277.785 207.908 278.46 207.731 279.163 207.708L279.191 207.592C278.347 207.283 277.732 206.744 277.347 205.976C276.968 205.204 276.892 204.359 277.117 203.443C277.321 202.569 277.755 201.822 278.421 201.202C279.086 200.582 279.903 200.132 280.87 199.853C281.839 199.569 282.884 199.499 284.005 199.645C285.115 199.789 286.056 200.116 286.829 200.627C287.608 201.132 288.166 201.76 288.504 202.511C288.847 203.262 288.914 204.074 288.704 204.947C288.485 205.864 288.012 206.637 287.286 207.267C286.567 207.891 285.748 208.243 284.828 208.323L284.8 208.439C285.45 208.638 285.997 208.974 286.441 209.447C286.892 209.916 287.207 210.47 287.385 211.108C287.569 211.747 287.576 212.423 287.405 213.136C287.185 214.053 286.713 214.838 285.987 215.49C285.263 216.137 284.367 216.604 283.298 216.893C282.235 217.182 281.079 217.246 279.828 217.084ZM280.396 214.713C281.044 214.797 281.633 214.763 282.163 214.609C282.695 214.45 283.141 214.189 283.501 213.826C283.861 213.462 284.107 213.021 284.237 212.503C284.361 211.96 284.331 211.464 284.149 211.013C283.974 210.557 283.672 210.179 283.244 209.878C282.822 209.579 282.304 209.389 281.69 209.309C281.07 209.229 280.49 209.276 279.948 209.45C279.407 209.625 278.945 209.904 278.562 210.288C278.187 210.666 277.937 211.127 277.813 211.669C277.683 212.187 277.703 212.663 277.872 213.095C278.043 213.522 278.342 213.877 278.768 214.16C279.199 214.444 279.742 214.628 280.396 214.713ZM282.248 206.98C282.778 207.049 283.27 207.005 283.726 206.847C284.188 206.691 284.582 206.44 284.909 206.095C285.235 205.75 285.46 205.332 285.584 204.841C285.695 204.354 285.678 203.913 285.535 203.518C285.392 203.118 285.139 202.792 284.776 202.54C284.413 202.282 283.964 202.118 283.429 202.049C282.883 201.978 282.376 202.017 281.91 202.168C281.451 202.313 281.062 202.556 280.742 202.896C280.43 203.232 280.218 203.643 280.107 204.13C279.984 204.621 279.992 205.069 280.133 205.475C280.281 205.876 280.535 206.211 280.895 206.48C281.262 206.744 281.713 206.911 282.248 206.98ZM299.111 216.065L299.325 215.17C299.483 214.513 299.769 213.926 300.183 213.41C300.602 212.895 301.126 212.504 301.753 212.238C302.38 211.972 303.083 211.889 303.86 211.99C304.661 212.094 305.291 212.35 305.751 212.757C306.212 213.159 306.515 213.654 306.659 214.242C306.808 214.831 306.803 215.457 306.645 216.12L306.43 217.015C306.273 217.673 305.987 218.26 305.573 218.776C305.159 219.292 304.638 219.683 304.011 219.949C303.389 220.216 302.684 220.298 301.895 220.196C301.106 220.093 300.479 219.838 300.013 219.43C299.547 219.022 299.24 218.523 299.09 217.934C298.946 217.346 298.953 216.723 299.111 216.065ZM301.531 215.457L301.317 216.352C301.212 216.788 301.223 217.203 301.35 217.595C301.477 217.988 301.811 218.219 302.352 218.289C302.898 218.36 303.316 218.229 303.605 217.896C303.901 217.559 304.101 217.169 304.207 216.727L304.422 215.832C304.528 215.39 304.526 214.974 304.416 214.583C304.307 214.188 303.971 213.953 303.408 213.88C302.878 213.811 302.459 213.948 302.151 214.289C301.844 214.625 301.637 215.015 301.531 215.457ZM292.639 205.21L292.854 204.314C293.013 203.651 293.302 203.062 293.722 202.547C294.141 202.032 294.664 201.644 295.29 201.383C295.917 201.117 296.62 201.035 297.397 201.135C298.192 201.239 298.819 201.494 299.279 201.901C299.747 202.303 300.052 202.799 300.196 203.387C300.339 203.976 300.332 204.601 300.173 205.264L299.959 206.16C299.8 206.823 299.513 207.412 299.099 207.928C298.692 208.439 298.176 208.825 297.55 209.086C296.924 209.346 296.219 209.426 295.436 209.324C294.641 209.221 294.011 208.968 293.543 208.566C293.082 208.164 292.776 207.669 292.627 207.08C292.478 206.49 292.482 205.867 292.639 205.21ZM295.077 204.603L294.862 205.498C294.756 205.94 294.764 206.357 294.885 206.749C295.013 207.136 295.348 207.364 295.889 207.435C296.429 207.505 296.844 207.373 297.133 207.041C297.429 206.703 297.63 206.313 297.736 205.871L297.95 204.976C298.056 204.534 298.054 204.118 297.944 203.727C297.836 203.332 297.503 203.098 296.945 203.025C296.409 202.956 295.99 203.092 295.688 203.435C295.385 203.777 295.181 204.166 295.077 204.603ZM290.514 218.231L306.48 202.801L308.593 203.076L292.627 218.505L290.514 218.231Z" fill="#460447"/>
<path d="M124.391 48.8329C124.483 48.1556 124.317 47.5985 123.893 47.1617C123.469 46.725 122.818 46.4496 121.939 46.3355C121.342 46.2579 120.817 46.2754 120.366 46.3878C119.917 46.4946 119.548 46.6774 119.259 46.9362C118.976 47.1958 118.791 47.5079 118.703 47.8726C118.619 48.175 118.621 48.4486 118.707 48.6935C118.8 48.939 118.953 49.1611 119.166 49.3598C119.382 49.553 119.641 49.7319 119.944 49.8966C120.249 50.0558 120.58 50.2013 120.938 50.3332L122.405 50.8997C123.121 51.1635 123.761 51.4745 124.326 51.8327C124.891 52.1909 125.356 52.6016 125.721 53.0649C126.087 53.5283 126.331 54.0499 126.453 54.6298C126.581 55.2105 126.563 55.8548 126.4 56.5628C126.145 57.6009 125.659 58.4665 124.941 59.1595C124.23 59.8477 123.323 60.3367 122.219 60.6265C121.123 60.9115 119.87 60.9625 118.461 60.7797C117.064 60.5983 115.897 60.2304 114.961 59.6759C114.031 59.1221 113.374 58.3959 112.991 57.4973C112.614 56.5939 112.558 55.5298 112.823 54.305L116.364 54.7646C116.267 55.3389 116.32 55.8356 116.521 56.2549C116.73 56.6694 117.059 57.0055 117.508 57.2633C117.965 57.5162 118.509 57.6837 119.14 57.7656C119.76 57.846 120.319 57.8275 120.818 57.7099C121.322 57.593 121.739 57.3936 122.068 57.1116C122.397 56.8295 122.61 56.484 122.708 56.0752C122.799 55.6939 122.761 55.3584 122.592 55.0687C122.429 54.7798 122.149 54.5156 121.753 54.2762C121.363 54.0376 120.87 53.8027 120.275 53.5716L118.502 52.8628C117.126 52.3253 116.104 51.6315 115.436 50.7814C114.768 49.9312 114.587 48.8794 114.893 47.6259C115.134 46.5974 115.628 45.7357 116.375 45.0408C117.128 44.3466 118.052 43.8484 119.147 43.5461C120.242 43.2438 121.421 43.1746 122.683 43.3384C123.968 43.5052 125.037 43.8662 125.892 44.4215C126.752 44.9776 127.358 45.6743 127.709 46.5119C128.06 47.3494 128.123 48.2748 127.898 49.2882L124.391 48.8329ZM127.632 61.7222L130.682 48.9914L134.172 49.4445L133.64 51.6657L133.775 51.6833C134.201 50.9239 134.742 50.3787 135.396 50.0477C136.052 49.7112 136.743 49.5902 137.47 49.6845C137.65 49.7079 137.842 49.7442 138.045 49.7933C138.248 49.8425 138.424 49.8967 138.573 49.9558L137.822 53.0888C137.665 53.0171 137.442 52.9426 137.152 52.8651C136.863 52.7877 136.594 52.7329 136.347 52.7007C135.817 52.6319 135.316 52.6838 134.845 52.8562C134.381 53.0238 133.98 53.2909 133.642 53.6572C133.311 54.0244 133.082 54.4676 132.958 54.987L131.233 62.1895L127.632 61.7222ZM142.623 63.9243C141.288 63.751 140.202 63.3366 139.365 62.6811C138.536 62.0208 137.979 61.168 137.695 60.1227C137.412 59.0719 137.432 57.8751 137.753 56.5324C138.067 55.2229 138.601 54.1072 139.357 53.1854C140.112 52.2636 141.026 51.5875 142.1 51.1571C143.179 50.7274 144.355 50.5952 145.628 50.7605C146.485 50.8717 147.25 51.1105 147.923 51.4771C148.603 51.8388 149.155 52.3236 149.579 52.9312C150.008 53.5396 150.281 54.27 150.396 55.1225C150.513 55.9694 150.441 56.9344 150.182 58.0174L149.95 58.9871L138.988 57.5643L139.512 55.3762L147.085 56.3591C147.206 55.8508 147.202 55.3858 147.07 54.9642C146.939 54.5427 146.699 54.1954 146.352 53.9225C146.012 53.6447 145.58 53.4719 145.056 53.4039C144.51 53.3329 143.995 53.3943 143.513 53.5881C143.038 53.7771 142.632 54.0635 142.296 54.4472C141.962 54.8254 141.731 55.2655 141.605 55.7676L141.107 57.8479C140.956 58.4778 140.944 59.0375 141.071 59.5268C141.203 60.0169 141.46 60.4147 141.839 60.7204C142.219 61.0261 142.711 61.2181 143.314 61.2963C143.714 61.3483 144.093 61.3406 144.452 61.2732C144.811 61.2058 145.135 61.077 145.425 60.8867C145.714 60.6964 145.96 60.449 146.16 60.1447L149.439 60.7924C149.082 61.555 148.571 62.1952 147.907 62.7129C147.249 63.2258 146.47 63.5919 145.57 63.8111C144.676 64.0255 143.694 64.0633 142.623 63.9243ZM156.848 65.7706C155.512 65.5973 154.426 65.1828 153.59 64.5273C152.76 63.867 152.204 63.0142 151.919 61.9689C151.637 60.9181 151.656 59.7214 151.978 58.3787C152.291 57.0691 152.826 55.9535 153.581 55.0317C154.337 54.1099 155.251 53.4338 156.324 53.0034C157.403 52.5737 158.579 52.4415 159.853 52.6068C160.709 52.7179 161.474 52.9568 162.147 53.3233C162.828 53.6851 163.38 54.1698 163.803 54.7775C164.233 55.3858 164.505 56.1163 164.621 56.9687C164.737 57.8157 164.666 58.7807 164.406 59.8636L164.174 60.8334L153.212 59.4106L153.736 57.2225L161.309 58.2054C161.431 57.697 161.426 57.2321 161.295 56.8105C161.163 56.3889 160.924 56.0417 160.577 55.7687C160.237 55.491 159.805 55.3181 159.281 55.2501C158.734 55.1792 158.22 55.2406 157.737 55.4344C157.262 55.6234 156.857 55.9098 156.521 56.2935C156.186 56.6716 155.956 57.1118 155.83 57.6138L155.331 59.6942C155.181 60.3241 155.169 60.8837 155.295 61.3731C155.428 61.8631 155.684 62.261 156.064 62.5667C156.444 62.8724 156.935 63.0644 157.538 63.1426C157.938 63.1945 158.318 63.1868 158.677 63.1195C159.035 63.0521 159.36 62.9233 159.649 62.733C159.939 62.5427 160.184 62.2953 160.385 61.9909L163.663 62.6386C163.306 63.4013 162.796 64.0415 162.131 64.5592C161.474 65.0721 160.695 65.4381 159.794 65.6574C158.9 65.8718 157.918 65.9095 156.848 65.7706ZM177.985 50.7556L179.079 64.1951L179.24 64.216L186.521 51.8636L190.578 52.3901L180.545 68.59L175.829 67.9779L173.919 50.2279L177.985 50.7556ZM188.528 69.6261L191.577 56.8954L195.178 57.3627L192.128 70.0934L188.528 69.6261ZM193.779 55.489C193.244 55.4196 192.826 55.1859 192.526 54.7881C192.234 54.3854 192.146 53.9382 192.264 53.4465C192.38 52.9602 192.669 52.5676 193.13 52.2684C193.598 51.9645 194.099 51.8473 194.635 51.9168C195.17 51.9863 195.584 52.2223 195.877 52.625C196.177 53.0228 196.268 53.4648 196.152 53.9511C196.034 54.4429 195.741 54.8407 195.273 55.1446C194.812 55.4437 194.314 55.5585 193.779 55.489ZM199.746 71.2959C198.76 71.1679 197.927 70.8034 197.246 70.2022C196.572 69.5963 196.117 68.7767 195.883 67.7435C195.655 66.7055 195.711 65.4765 196.051 64.0565C196.401 62.5977 196.931 61.416 197.641 60.5112C198.353 59.6008 199.164 58.9569 200.074 58.5793C200.99 58.1969 201.925 58.0675 202.877 58.1911C203.604 58.2854 204.18 58.4856 204.607 58.7916C205.04 59.0928 205.363 59.4424 205.575 59.8403C205.795 60.2335 205.943 60.6115 206.018 60.9746L206.128 60.9889L207.657 54.6069L211.249 55.0731L207.183 72.0475L203.633 71.5867L204.122 69.5478L203.969 69.5281C203.716 69.8598 203.392 70.1796 202.999 70.4874C202.613 70.7905 202.147 71.0235 201.603 71.1865C201.064 71.3501 200.445 71.3866 199.746 71.2959ZM201.56 68.6343C202.141 68.7096 202.668 68.6185 203.142 68.361C203.623 68.0987 204.038 67.6997 204.388 67.1639C204.742 66.6288 205.01 65.9827 205.192 65.2258C205.373 64.4688 205.423 63.7973 205.343 63.2115C205.263 62.6256 205.056 62.1544 204.723 61.7978C204.39 61.4413 203.934 61.2253 203.353 61.15C202.762 61.0732 202.225 61.166 201.744 61.4283C201.263 61.6905 200.851 62.0872 200.509 62.6182C200.167 63.1492 199.908 63.7822 199.732 64.5171C199.554 65.2575 199.502 65.9258 199.574 66.522C199.653 67.1134 199.854 67.5953 200.178 67.9677C200.508 68.3353 200.969 68.5575 201.56 68.6343ZM211.222 77.4943C210.766 77.435 210.346 77.3435 209.964 77.2198C209.585 77.1023 209.279 76.9742 209.045 76.8356L210.487 74.3052C210.88 74.4872 211.243 74.6056 211.579 74.6605C211.92 74.7162 212.234 74.6772 212.522 74.5436C212.815 74.4108 213.088 74.1557 213.341 73.7783L213.682 73.267L212.162 59.5671L215.948 60.0586L216.396 69.7566L216.531 69.7741L221.484 60.7771L225.296 61.2719L216.871 74.7236C216.464 75.3773 215.992 75.9312 215.453 76.3855C214.919 76.846 214.303 77.1734 213.606 77.3677C212.907 77.5676 212.113 77.6098 211.222 77.4943ZM227.384 74.9174C226.556 74.8099 225.852 74.5732 225.271 74.2073C224.692 73.8358 224.281 73.3466 224.037 72.7395C223.8 72.1276 223.782 71.4018 223.983 70.5619C224.153 69.8546 224.427 69.2778 224.807 68.8315C225.187 68.3851 225.641 68.0451 226.167 67.8115C226.694 67.5779 227.265 67.4242 227.881 67.3503C228.503 67.2772 229.142 67.2519 229.799 67.2745C230.573 67.2951 231.198 67.3023 231.676 67.296C232.155 67.2841 232.516 67.2226 232.757 67.1116C232.999 67.0005 233.152 66.8096 233.217 66.5388L233.229 66.4891C233.355 65.9642 233.283 65.5361 233.014 65.2049C232.75 64.8744 232.311 64.6693 231.697 64.5896C231.049 64.5055 230.5 64.5795 230.049 64.8115C229.6 65.0381 229.263 65.3533 229.038 65.7571L225.772 65.0597C226.126 64.3081 226.619 63.6826 227.25 63.1834C227.882 62.6786 228.626 62.3251 229.482 62.1229C230.345 61.9158 231.295 61.8796 232.331 62.0141C233.053 62.1078 233.723 62.2802 234.343 62.5316C234.968 62.7836 235.495 63.117 235.924 63.5316C236.359 63.947 236.661 64.4476 236.828 65.0334C236.997 65.6137 236.991 66.2823 236.81 67.0393L234.753 75.6259L231.338 75.1827L231.761 73.4173L231.66 73.4042C231.356 73.7749 230.993 74.0896 230.571 74.3482C230.15 74.6012 229.674 74.7816 229.143 74.8892C228.613 74.9914 228.027 75.0007 227.384 74.9174ZM228.999 72.6145C229.529 72.6832 230.021 72.6417 230.476 72.4899C230.932 72.3326 231.317 72.0921 231.633 71.7685C231.949 71.4448 232.16 71.0592 232.268 70.6116L232.591 69.2606C232.461 69.3179 232.29 69.364 232.079 69.3992C231.874 69.4296 231.644 69.454 231.39 69.4722C231.137 69.485 230.885 69.495 230.634 69.5022C230.383 69.5039 230.156 69.5058 229.952 69.5078C229.515 69.5138 229.123 69.5625 228.776 69.6542C228.429 69.7459 228.14 69.8936 227.911 70.0975C227.684 70.2959 227.53 70.5608 227.451 70.8923C227.336 71.373 227.425 71.7635 227.719 72.0638C228.02 72.3592 228.447 72.5428 228.999 72.6145ZM242.91 69.0958L241.147 76.4558L237.546 75.9885L240.596 63.2577L244.027 63.7031L243.489 65.9492L243.641 65.969C244.106 65.2658 244.728 64.7427 245.507 64.3994C246.288 64.0507 247.16 63.9388 248.124 64.0639C249.025 64.1809 249.765 64.4763 250.343 64.9501C250.921 65.424 251.309 66.0442 251.509 66.8107C251.71 67.5718 251.693 68.4469 251.456 69.4359L249.514 77.5418L245.913 77.0745L247.704 69.5985C247.896 68.8201 247.839 68.186 247.532 67.6961C247.227 67.2007 246.714 66.9062 245.992 66.8126C245.508 66.7497 245.055 66.7963 244.634 66.9525C244.219 67.1094 243.86 67.3705 243.558 67.7357C243.262 68.0962 243.046 68.5495 242.91 69.0958ZM252.352 77.9102L255.401 65.1794L259.002 65.6467L255.952 78.3775L252.352 77.9102ZM257.603 63.7731C257.068 63.7036 256.65 63.47 256.35 63.0721C256.058 62.6695 255.97 62.2223 256.088 61.7305C256.204 61.2443 256.493 60.8516 256.954 60.5525C257.422 60.2486 257.923 60.1314 258.459 60.2008C258.994 60.2703 259.408 60.5064 259.701 60.909C260.001 61.3068 260.092 61.7489 259.976 62.2351C259.858 62.7269 259.565 63.1247 259.097 63.4286C258.636 63.7277 258.138 63.8426 257.603 63.7731ZM262.976 75.5119L263.999 71.2777L264.523 71.3457L269.839 67.0534L273.972 67.5898L266.853 73.2632L265.999 73.1524L262.976 75.5119ZM258.836 78.7518L262.902 61.7775L266.503 62.2448L262.437 79.2192L258.836 78.7518ZM266.95 79.805L264.458 73.7643L267.456 71.5811L271.167 80.3524L266.95 79.805ZM278.011 81.497C276.676 81.3237 275.59 80.9093 274.753 80.2537C273.924 79.5934 273.367 78.7406 273.083 77.6953C272.8 76.6445 272.819 75.4478 273.141 74.1051C273.455 72.7955 273.989 71.6799 274.745 70.7581C275.5 69.8363 276.414 69.1602 277.488 68.7298C278.566 68.3001 279.743 68.1679 281.016 68.3332C281.873 68.4443 282.637 68.6832 283.311 69.0498C283.991 69.4115 284.543 69.8962 284.967 70.5039C285.396 71.1122 285.669 71.8427 285.784 72.6951C285.901 73.5421 285.829 74.5071 285.57 75.5901L285.337 76.5598L274.375 75.137L274.9 72.9489L282.472 73.9318C282.594 73.4234 282.589 72.9585 282.458 72.5369C282.327 72.1153 282.087 71.7681 281.74 71.4951C281.4 71.2174 280.968 71.0445 280.444 70.9765C279.897 70.9056 279.383 70.967 278.901 71.1608C278.426 71.3498 278.02 71.6362 277.684 72.0199C277.35 72.398 277.119 72.8382 276.993 73.3402L276.495 75.4206C276.344 76.0505 276.332 76.6101 276.459 77.0995C276.591 77.5895 276.847 77.9874 277.227 78.2931C277.607 78.5988 278.099 78.7908 278.701 78.869C279.102 78.9209 279.481 78.9132 279.84 78.8459C280.199 78.7785 280.523 78.6497 280.813 78.4594C281.102 78.2691 281.347 78.0217 281.548 77.7173L284.827 78.365C284.47 79.1277 283.959 79.7679 283.295 80.2856C282.637 80.7985 281.858 81.1645 280.957 81.3838C280.064 81.5982 279.082 81.636 278.011 81.497ZM296.333 70.4922L295.698 73.1444L287.88 72.1297L288.515 69.4775L296.333 70.4922ZM291.021 66.6578L294.621 67.1251L291.778 78.9939C291.7 79.3199 291.69 79.5806 291.748 79.7761C291.807 79.9661 291.918 80.1087 292.081 80.204C292.25 80.2999 292.455 80.3636 292.698 80.3951C292.867 80.417 293.039 80.4251 293.215 80.4195C293.392 80.4082 293.527 80.4002 293.621 80.3953L293.558 83.0962C293.365 83.1281 293.096 83.1587 292.752 83.1881C292.407 83.223 291.998 83.2184 291.526 83.1743C290.651 83.0948 289.917 82.8828 289.326 82.5383C288.74 82.1945 288.332 81.7257 288.103 81.1319C287.873 80.538 287.861 79.8243 288.067 78.9907L291.021 66.6578ZM301.272 76.6709L299.509 84.0309L295.908 83.5636L299.974 66.5892L303.473 67.0434L301.919 73.5331L302.071 73.5528C302.544 72.8394 303.158 72.3124 303.914 71.9717C304.67 71.6256 305.542 71.5165 306.528 71.6445C307.429 71.7615 308.169 72.0569 308.747 72.5307C309.332 72.9998 309.724 73.6176 309.924 74.3841C310.131 75.1459 310.112 76.0237 309.868 77.0176L307.927 85.1235L304.326 84.6562L306.117 77.1802C306.311 76.3963 306.254 75.7594 305.947 75.2695C305.646 74.7803 305.129 74.4882 304.397 74.3931C303.907 74.3295 303.448 74.3754 303.022 74.5309C302.601 74.687 302.236 74.9474 301.928 75.3119C301.627 75.6716 301.408 76.1246 301.272 76.6709ZM314.404 86.2121C313.576 86.1046 312.872 85.8679 312.291 85.502C311.712 85.1306 311.301 84.6413 311.057 84.0343C310.82 83.4224 310.802 82.6965 311.003 81.8566C311.173 81.1494 311.447 80.5726 311.827 80.1262C312.207 79.6799 312.661 79.3399 313.187 79.1063C313.714 78.8727 314.285 78.7189 314.901 78.6451C315.523 78.572 316.162 78.5467 316.819 78.5693C317.593 78.5899 318.218 78.5971 318.696 78.5907C319.176 78.5789 319.536 78.5174 319.777 78.4063C320.019 78.2952 320.172 78.1043 320.237 77.8336L320.249 77.7839C320.375 77.2589 320.303 76.8309 320.034 76.4997C319.77 76.1692 319.331 75.9641 318.717 75.8844C318.069 75.8003 317.52 75.8743 317.069 76.1063C316.62 76.3329 316.283 76.6481 316.058 77.0519L312.792 76.3545C313.146 75.6028 313.639 74.9774 314.27 74.4782C314.902 73.9734 315.646 73.6199 316.502 73.4176C317.365 73.2106 318.315 73.1744 319.351 73.3089C320.073 73.4025 320.743 73.575 321.363 73.8263C321.988 74.0784 322.515 74.4118 322.944 74.8264C323.379 75.2418 323.681 75.7424 323.848 76.3282C324.017 76.9084 324.011 77.5771 323.83 78.3341L321.773 86.9207L318.358 86.4775L318.781 84.7121L318.68 84.6989C318.376 85.0697 318.013 85.3844 317.591 85.6429C317.17 85.896 316.694 86.0763 316.163 86.184C315.633 86.2861 315.047 86.2955 314.404 86.2121ZM316.019 83.9092C316.549 83.978 317.041 83.9365 317.496 83.7847C317.952 83.6274 318.338 83.3869 318.653 83.0632C318.969 82.7396 319.18 82.354 319.288 81.9064L319.611 80.5554C319.481 80.6126 319.311 80.6588 319.099 80.694C318.894 80.7244 318.664 80.7487 318.41 80.767C318.157 80.7798 317.905 80.7898 317.654 80.797C317.403 80.7987 317.176 80.8006 316.973 80.8026C316.535 80.8085 316.143 80.8573 315.796 80.949C315.449 81.0406 315.16 81.1884 314.932 81.3923C314.704 81.5906 314.55 81.8556 314.471 82.1871C314.356 82.6678 314.445 83.0583 314.739 83.3585C315.04 83.654 315.467 83.8376 316.019 83.9092ZM329.93 80.3906L328.167 87.7506L324.566 87.2833L327.616 74.5525L331.047 74.9979L330.509 77.244L330.661 77.2637C331.126 76.5606 331.748 76.0374 332.527 75.6942C333.308 75.3455 334.18 75.2336 335.144 75.3587C336.045 75.4757 336.785 75.7711 337.363 76.2449C337.941 76.7187 338.33 77.3389 338.529 78.1055C338.73 78.8666 338.713 79.7416 338.476 80.7307L336.534 88.8366L332.933 88.3693L334.724 80.8933C334.917 80.1149 334.859 79.4808 334.553 78.9909C334.247 78.4955 333.734 78.2009 333.013 78.1073C332.528 78.0444 332.075 78.0911 331.654 78.2472C331.239 78.4042 330.88 78.6652 330.578 79.0305C330.282 79.3909 330.066 79.8443 329.93 80.3906ZM350.456 90.6437L354.522 73.6693L366.186 75.1832L365.477 78.1421L357.473 77.1032L356.504 81.1479L363.908 82.1089L363.199 85.0678L355.795 84.1068L354.825 88.1598L362.862 89.203L362.154 92.1619L350.456 90.6437ZM370.325 85.6337L368.562 92.9937L364.962 92.5264L368.011 79.7956L371.443 80.241L370.905 82.4871L371.057 82.5069C371.521 81.8038 372.144 81.2806 372.923 80.9374C373.704 80.5886 374.576 80.4768 375.539 80.6018C376.441 80.7188 377.18 81.0142 377.758 81.4881C378.336 81.9619 378.725 82.5821 378.925 83.3487C379.126 84.1097 379.108 84.9848 378.871 85.9738L376.929 94.0798L373.329 93.6124L375.12 86.1364C375.312 85.3581 375.255 84.7239 374.948 84.234C374.643 83.7386 374.129 83.4441 373.408 83.3505C372.923 83.2876 372.471 83.3342 372.05 83.4904C371.635 83.6473 371.276 83.9084 370.973 84.2736C370.678 84.6341 370.462 85.0875 370.325 85.6337ZM384.409 100.246C383.242 100.095 382.28 99.8078 381.522 99.3846C380.767 98.9677 380.209 98.4594 379.848 97.8598C379.486 97.2602 379.312 96.6166 379.325 95.929L382.761 95.9219C382.801 96.1893 382.905 96.4477 383.072 96.6973C383.238 96.9468 383.486 97.1613 383.815 97.3407C384.148 97.5264 384.577 97.6532 385.101 97.7212C385.884 97.8229 386.574 97.7188 387.171 97.4088C387.773 97.1052 388.178 96.5168 388.387 95.6438L388.945 93.3148L388.793 93.2951C388.55 93.6282 388.234 93.9318 387.843 94.2058C387.452 94.4798 386.984 94.6841 386.441 94.8186C385.897 94.9532 385.282 94.9759 384.595 94.8866C383.62 94.7601 382.785 94.4239 382.091 93.878C381.404 93.3273 380.933 92.5627 380.68 91.584C380.433 90.6005 380.479 89.4043 380.816 87.9953C381.162 86.5531 381.69 85.3797 382.4 84.4749C383.111 83.5701 383.921 82.9289 384.83 82.5513C385.746 82.1744 386.679 82.0478 387.632 82.1714C388.359 82.2657 388.938 82.4662 389.37 82.773C389.803 83.0742 390.126 83.4238 390.339 83.8217C390.558 84.2148 390.709 84.5933 390.79 84.9571L390.925 84.9746L391.438 82.8363L395.013 83.3003L391.933 96.1554C391.674 97.2384 391.186 98.1095 390.471 98.7686C389.755 99.4278 388.875 99.8775 387.83 100.118C386.789 100.364 385.648 100.407 384.409 100.246ZM386.371 92.3825C386.951 92.4578 387.475 92.3805 387.943 92.1507C388.417 91.916 388.825 91.5473 389.166 91.0447C389.514 90.5372 389.778 89.9105 389.957 89.1646C390.135 88.4186 390.183 87.7583 390.1 87.1834C390.018 86.6031 389.811 86.1347 389.478 85.7781C389.145 85.4215 388.688 85.2056 388.108 85.1303C387.516 85.0535 386.98 85.1462 386.499 85.4085C386.019 85.6653 385.609 86.0564 385.268 86.5819C384.927 87.1074 384.67 87.7321 384.497 88.4559C384.321 89.1908 384.273 89.8398 384.353 90.4028C384.44 90.961 384.648 91.4126 384.978 91.7573C385.315 92.0973 385.779 92.3057 386.371 92.3825ZM394.828 96.4029L397.878 83.6722L401.478 84.1395L398.429 96.8703L394.828 96.4029ZM400.08 82.2659C399.544 82.1964 399.127 81.9627 398.827 81.5649C398.534 81.1623 398.447 80.7151 398.565 80.2233C398.681 79.737 398.97 79.3444 399.431 79.0453C399.899 78.7414 400.4 78.6241 400.935 78.6936C401.471 78.7631 401.885 78.9992 402.178 79.4018C402.477 79.7996 402.569 80.2417 402.452 80.7279C402.335 81.2197 402.042 81.6175 401.574 81.9214C401.113 82.2205 400.615 82.3353 400.08 82.2659ZM406.677 90.352L404.913 97.7119L401.313 97.2446L404.363 84.5139L407.794 84.9592L407.256 87.2054L407.408 87.2251C407.873 86.522 408.495 85.9988 409.274 85.6556C410.055 85.3068 410.927 85.195 411.891 85.32C412.792 85.4371 413.532 85.7325 414.11 86.2063C414.688 86.6801 415.076 87.3003 415.276 88.0669C415.477 88.8279 415.459 89.703 415.223 90.6921L413.281 98.798L409.68 98.3307L411.471 90.8546C411.663 90.0763 411.606 89.4421 411.299 88.9522C410.994 88.4568 410.481 88.1623 409.759 88.0687C409.275 88.0058 408.822 88.0524 408.401 88.2086C407.986 88.3655 407.627 88.6266 407.325 88.9918C407.029 89.3523 406.813 89.8057 406.677 90.352ZM421.975 100.183C420.64 100.01 419.554 99.5951 418.717 98.9396C417.888 98.2793 417.331 97.4265 417.047 96.3812C416.764 95.3304 416.784 94.1336 417.105 92.7909C417.419 91.4814 417.954 90.3657 418.709 89.4439C419.464 88.5221 420.378 87.846 421.452 87.4156C422.531 86.9859 423.707 86.8537 424.98 87.019C425.837 87.1302 426.602 87.369 427.275 87.7356C427.955 88.0974 428.507 88.5821 428.931 89.1897C429.36 89.7981 429.633 90.5285 429.748 91.381C429.865 92.2279 429.793 93.1929 429.534 94.2759L429.302 95.2456L418.34 93.8228L418.864 91.6347L426.437 92.6176C426.558 92.1093 426.554 91.6443 426.422 91.2228C426.291 90.8012 426.052 90.4539 425.704 90.181C425.364 89.9033 424.932 89.7304 424.408 89.6624C423.862 89.5914 423.347 89.6529 422.865 89.8467C422.39 90.0357 421.984 90.322 421.648 90.7057C421.314 91.0839 421.084 91.524 420.957 92.0261L420.459 94.1064C420.308 94.7364 420.296 95.296 420.423 95.7853C420.555 96.2754 420.812 96.6733 421.191 96.9789C421.571 97.2846 422.063 97.4766 422.666 97.5549C423.066 97.6068 423.445 97.5991 423.804 97.5317C424.163 97.4643 424.487 97.3355 424.777 97.1452C425.067 96.9549 425.312 96.7076 425.512 96.4032L428.791 97.0509C428.434 97.8136 427.923 98.4538 427.259 98.9714C426.602 99.4843 425.822 99.8504 424.922 100.07C424.028 100.284 423.046 100.322 421.975 100.183ZM436.2 102.029C434.864 101.856 433.778 101.441 432.942 100.786C432.112 100.126 431.556 99.2728 431.272 98.2275C430.989 97.1766 431.008 95.9799 431.33 94.6372C431.643 93.3276 432.178 92.212 432.933 91.2902C433.689 90.3684 434.603 89.6923 435.676 89.2619C436.755 88.8322 437.931 88.7 439.205 88.8653C440.061 88.9765 440.826 89.2153 441.499 89.5819C442.18 89.9436 442.732 90.4283 443.155 91.036C443.585 91.6443 443.857 92.3748 443.973 93.2272C444.089 94.0742 444.018 95.0392 443.758 96.1222L443.526 97.0919L432.564 95.6691L433.088 93.481L440.661 94.4639C440.783 93.9555 440.778 93.4906 440.647 93.069C440.515 92.6475 440.276 92.3002 439.929 92.0273C439.589 91.7495 439.157 91.5766 438.633 91.5086C438.086 91.4377 437.572 91.4991 437.09 91.6929C436.614 91.8819 436.209 92.1683 435.873 92.552C435.538 92.9301 435.308 93.3703 435.182 93.8724L434.684 95.9527C434.533 96.5826 434.521 97.1422 434.647 97.6316C434.78 98.1216 435.036 98.5195 435.416 98.8252C435.796 99.1309 436.287 99.3229 436.89 99.4011C437.29 99.453 437.67 99.4453 438.029 99.378C438.388 99.3106 438.712 99.1818 439.001 98.9915C439.291 98.8012 439.536 98.5538 439.737 98.2494L443.015 98.8971C442.658 99.6598 442.148 100.3 441.483 100.818C440.826 101.331 440.047 101.697 439.146 101.916C438.252 102.13 437.27 102.168 436.2 102.029ZM444.567 102.859L447.617 90.1281L451.108 90.5811L450.575 92.8024L450.711 92.8199C451.137 92.0605 451.677 91.5153 452.331 91.1843C452.987 90.8479 453.678 90.7268 454.405 90.8211C454.585 90.8445 454.777 90.8808 454.98 90.93C455.184 90.9791 455.359 91.0333 455.508 91.0924L454.757 94.2254C454.6 94.1537 454.377 94.0792 454.088 94.0017C453.798 93.9243 453.53 93.8695 453.282 93.8373C452.752 93.7686 452.252 93.8204 451.78 93.9928C451.316 94.1605 450.915 94.4275 450.578 94.7939C450.246 95.161 450.018 95.6043 449.893 96.1236L448.168 103.326L444.567 102.859ZM454.306 104.123L457.356 91.3921L460.956 91.8594L457.906 104.59L454.306 104.123ZM459.557 89.9858C459.022 89.9163 458.605 89.6826 458.305 89.2848C458.012 88.8822 457.924 88.435 458.042 87.9432C458.159 87.4569 458.447 87.0643 458.908 86.7652C459.376 86.4613 459.878 86.3441 460.413 86.4135C460.948 86.483 461.362 86.7191 461.655 87.1217C461.955 87.5195 462.047 87.9616 461.93 88.4478C461.812 88.9396 461.519 89.3374 461.052 89.6413C460.591 89.9404 460.093 90.0552 459.557 89.9858ZM466.154 98.0719L464.391 105.432L460.791 104.965L463.84 92.2338L467.272 92.6791L466.734 94.9253L466.886 94.945C467.35 94.2419 467.973 93.7187 468.752 93.3755C469.533 93.0267 470.405 92.9149 471.368 93.0399C472.27 93.157 473.009 93.4524 473.587 93.9262C474.165 94.4 474.554 95.0202 474.754 95.7868C474.955 96.5478 474.937 97.4229 474.7 98.412L472.758 106.518L469.158 106.051L470.949 98.5746C471.141 97.7962 471.084 97.1621 470.777 96.6722C470.472 96.1767 469.958 95.8822 469.237 95.7886C468.752 95.7257 468.3 95.7723 467.879 95.9285C467.464 96.0854 467.105 96.3465 466.802 96.7117C466.507 97.0722 466.291 97.5256 466.154 98.0719ZM480.238 112.685C479.071 112.533 478.109 112.246 477.35 111.823C476.596 111.406 476.038 110.898 475.677 110.298C475.315 109.698 475.141 109.055 475.154 108.367L478.59 108.36C478.63 108.627 478.734 108.886 478.901 109.135C479.067 109.385 479.315 109.599 479.644 109.779C479.977 109.964 480.406 110.091 480.93 110.159C481.713 110.261 482.403 110.157 483 109.847C483.602 109.543 484.007 108.955 484.216 108.082L484.774 105.753L484.622 105.733C484.379 106.066 484.063 106.37 483.672 106.644C483.281 106.918 482.813 107.122 482.27 107.257C481.726 107.391 481.111 107.414 480.424 107.325C479.449 107.198 478.614 106.862 477.92 106.316C477.233 105.765 476.762 105.001 476.509 104.022C476.262 103.039 476.308 101.842 476.645 100.433C476.991 98.9913 477.519 97.8178 478.229 96.913C478.94 96.0082 479.75 95.367 480.659 94.9894C481.575 94.6125 482.508 94.4859 483.461 94.6095C484.188 94.7038 484.767 94.9044 485.199 95.2111C485.632 95.5123 485.955 95.8619 486.168 96.2598C486.387 96.653 486.538 97.0314 486.619 97.3952L486.754 97.4128L487.267 95.2744L490.842 95.7384L487.762 108.594C487.503 109.677 487.015 110.548 486.3 111.207C485.584 111.866 484.704 112.316 483.659 112.556C482.618 112.803 481.477 112.845 480.238 112.685ZM482.2 104.821C482.78 104.896 483.304 104.819 483.772 104.589C484.246 104.354 484.654 103.985 484.995 103.483C485.343 102.975 485.607 102.349 485.786 101.603C485.964 100.857 486.012 100.196 485.929 99.6216C485.847 99.0412 485.64 98.5728 485.307 98.2162C484.974 97.8597 484.517 97.6437 483.937 97.5684C483.345 97.4916 482.809 97.5844 482.328 97.8467C481.848 98.1034 481.438 98.4946 481.097 99.0201C480.756 99.5455 480.499 100.17 480.326 100.894C480.15 101.629 480.102 102.278 480.182 102.841C480.269 103.399 480.477 103.851 480.807 104.195C481.144 104.535 481.608 104.744 482.2 104.821ZM284.218 99.7506L280.516 99.2701C280.561 98.7917 280.523 98.3566 280.402 97.9648C280.282 97.5676 280.09 97.2179 279.825 96.9158C279.561 96.6137 279.231 96.3657 278.836 96.172C278.446 95.979 278.003 95.8504 277.508 95.786C276.612 95.6697 275.779 95.7867 275.01 96.1369C274.241 96.4816 273.575 97.0446 273.01 97.8259C272.447 98.6016 272.024 99.578 271.742 100.755C271.452 101.965 271.392 103.005 271.561 103.876C271.736 104.748 272.105 105.437 272.669 105.943C273.234 106.449 273.952 106.759 274.826 106.872C275.316 106.936 275.785 106.931 276.232 106.858C276.685 106.786 277.104 106.65 277.489 106.449C277.876 106.243 278.218 105.977 278.517 105.651C278.822 105.326 279.07 104.942 279.263 104.5L282.961 104.997C282.679 105.764 282.259 106.484 281.703 107.158C281.153 107.828 280.489 108.405 279.71 108.891C278.939 109.372 278.071 109.721 277.107 109.937C276.15 110.149 275.116 110.183 274.006 110.039C272.462 109.839 271.164 109.317 270.111 108.474C269.064 107.631 268.343 106.515 267.95 105.125C267.562 103.736 267.59 102.119 268.032 100.273C268.475 98.4223 269.207 96.8936 270.228 95.6872C271.249 94.4809 272.45 93.6169 273.83 93.0952C275.211 92.568 276.662 92.4032 278.183 92.6006C279.186 92.7308 280.083 92.9896 280.873 93.3771C281.669 93.7652 282.336 94.2677 282.874 94.8844C283.413 95.4956 283.8 96.2096 284.034 97.0262C284.274 97.8436 284.335 98.7517 284.218 99.7506ZM289.938 112.124C288.625 111.954 287.555 111.533 286.729 110.861C285.909 110.185 285.357 109.322 285.075 108.271C284.793 107.215 284.809 106.034 285.121 104.73C285.436 103.415 285.971 102.3 286.724 101.383C287.48 100.462 288.399 99.7891 289.482 99.3657C290.573 98.9374 291.774 98.8085 293.087 98.9789C294.4 99.1493 295.466 99.5726 296.286 100.249C297.113 100.92 297.667 101.784 297.949 102.84C298.231 103.891 298.215 105.074 297.9 106.389C297.588 107.693 297.054 108.806 296.299 109.728C295.545 110.644 294.623 111.316 293.532 111.745C292.449 112.168 291.251 112.294 289.938 112.124ZM290.61 109.391C291.208 109.469 291.746 109.368 292.225 109.088C292.706 108.803 293.117 108.383 293.459 107.83C293.807 107.276 294.069 106.63 294.246 105.889C294.424 105.149 294.478 104.475 294.408 103.868C294.344 103.261 294.153 102.764 293.833 102.375C293.514 101.986 293.056 101.752 292.459 101.675C291.856 101.597 291.308 101.699 290.816 101.983C290.33 102.267 289.913 102.686 289.565 103.239C289.224 103.793 288.964 104.44 288.787 105.181C288.609 105.921 288.552 106.594 288.616 107.201C288.686 107.808 288.883 108.307 289.208 108.696C289.54 109.081 290.007 109.313 290.61 109.391ZM306.395 96.5016L302.329 113.476L298.728 113.009L302.795 96.0343L306.395 96.5016ZM312.88 97.3433L308.814 114.318L305.213 113.85L309.279 96.876L312.88 97.3433ZM317.555 115.709C316.219 115.535 315.133 115.121 314.297 114.465C313.467 113.805 312.91 112.952 312.626 111.907C312.344 110.856 312.363 109.659 312.685 108.317C312.998 107.007 313.533 105.891 314.288 104.97C315.043 104.048 315.958 103.372 317.031 102.941C318.11 102.512 319.286 102.379 320.56 102.545C321.416 102.656 322.181 102.895 322.854 103.261C323.534 103.623 324.086 104.108 324.51 104.715C324.94 105.324 325.212 106.054 325.327 106.907C325.444 107.754 325.373 108.719 325.113 109.802L324.881 110.771L313.919 109.349L314.443 107.16L322.016 108.143C322.138 107.635 322.133 107.17 322.001 106.748C321.87 106.327 321.631 105.98 321.284 105.707C320.944 105.429 320.511 105.256 319.987 105.188C319.441 105.117 318.927 105.179 318.444 105.372C317.969 105.561 317.564 105.848 317.228 106.231C316.893 106.61 316.663 107.05 316.537 107.552L316.038 109.632C315.887 110.262 315.875 110.822 316.002 111.311C316.135 111.801 316.391 112.199 316.771 112.505C317.151 112.81 317.642 113.002 318.245 113.081C318.645 113.133 319.025 113.125 319.383 113.057C319.742 112.99 320.067 112.861 320.356 112.671C320.646 112.481 320.891 112.233 321.092 111.929L324.37 112.577C324.013 113.339 323.502 113.979 322.838 114.497C322.181 115.01 321.402 115.376 320.501 115.595C319.607 115.81 318.625 115.848 317.555 115.709ZM330.564 122.337C329.397 122.185 328.435 121.898 327.677 121.475C326.922 121.058 326.364 120.55 326.003 119.95C325.641 119.35 325.467 118.707 325.48 118.019L328.916 118.012C328.956 118.279 329.06 118.538 329.227 118.787C329.393 119.037 329.641 119.251 329.97 119.431C330.303 119.617 330.732 119.743 331.256 119.811C332.039 119.913 332.729 119.809 333.326 119.499C333.928 119.195 334.333 118.607 334.542 117.734L335.1 115.405L334.948 115.385C334.705 115.718 334.389 116.022 333.998 116.296C333.607 116.57 333.139 116.774 332.596 116.909C332.053 117.043 331.437 117.066 330.75 116.977C329.775 116.85 328.94 116.514 328.246 115.968C327.559 115.418 327.088 114.653 326.835 113.674C326.588 112.691 326.634 111.495 326.971 110.085C327.317 108.643 327.845 107.47 328.555 106.565C329.266 105.66 330.076 105.019 330.986 104.641C331.901 104.265 332.835 104.138 333.787 104.262C334.514 104.356 335.093 104.556 335.525 104.863C335.958 105.164 336.281 105.514 336.494 105.912C336.713 106.305 336.864 106.683 336.945 107.047L337.08 107.065L337.593 104.926L341.168 105.39L338.088 118.246C337.829 119.329 337.341 120.2 336.626 120.859C335.91 121.518 335.03 121.968 333.985 122.208C332.944 122.455 331.803 122.498 330.564 122.337ZM332.526 114.473C333.106 114.548 333.63 114.471 334.098 114.241C334.572 114.006 334.98 113.638 335.321 113.135C335.67 112.627 335.933 112.001 336.112 111.255C336.29 110.509 336.338 109.848 336.255 109.274C336.173 108.693 335.966 108.225 335.633 107.868C335.3 107.512 334.844 107.296 334.263 107.22C333.672 107.144 333.135 107.236 332.654 107.499C332.174 107.755 331.764 108.147 331.423 108.672C331.082 109.198 330.825 109.822 330.652 110.546C330.476 111.281 330.428 111.93 330.508 112.493C330.595 113.051 330.803 113.503 331.133 113.848C331.47 114.188 331.934 114.396 332.526 114.473ZM346.84 119.51C345.505 119.336 344.419 118.922 343.582 118.266C342.753 117.606 342.196 116.753 341.912 115.708C341.629 114.657 341.649 113.46 341.97 112.118C342.284 110.808 342.818 109.693 343.574 108.771C344.329 107.849 345.243 107.173 346.317 106.742C347.396 106.313 348.572 106.181 349.845 106.346C350.702 106.457 351.467 106.696 352.14 107.062C352.82 107.424 353.372 107.909 353.796 108.517C354.225 109.125 354.498 109.855 354.613 110.708C354.73 111.555 354.658 112.52 354.399 113.603L354.167 114.572L343.205 113.15L343.729 110.962L351.302 111.944C351.423 111.436 351.418 110.971 351.287 110.55C351.156 110.128 350.916 109.781 350.569 109.508C350.229 109.23 349.797 109.057 349.273 108.989C348.727 108.918 348.212 108.98 347.73 109.173C347.255 109.362 346.849 109.649 346.513 110.033C346.179 110.411 345.948 110.851 345.822 111.353L345.324 113.433C345.173 114.063 345.161 114.623 345.288 115.112C345.42 115.602 345.676 116 346.056 116.306C346.436 116.611 346.928 116.803 347.531 116.882C347.931 116.934 348.31 116.926 348.669 116.859C349.028 116.791 349.352 116.662 349.642 116.472C349.931 116.282 350.177 116.034 350.377 115.73L353.656 116.378C353.299 117.14 352.788 117.781 352.124 118.298C351.466 118.811 350.687 119.177 349.787 119.396C348.893 119.611 347.911 119.649 346.84 119.51Z" fill="#320348"/>
<path d="M231.912 224.86L232.529 222.282L246.339 224.074L245.722 226.652L240.372 225.958L236.923 240.354L233.813 239.951L237.262 225.554L231.912 224.86ZM244.8 241.377L247.85 228.646L250.909 229.043L247.86 241.774L244.8 241.377ZM249.821 227.039C249.336 226.976 248.957 226.764 248.683 226.404C248.411 226.038 248.328 225.632 248.435 225.184C248.544 224.731 248.81 224.37 249.235 224.1C249.661 223.825 250.117 223.719 250.601 223.782C251.091 223.845 251.47 224.06 251.737 224.425C252.011 224.785 252.094 225.192 251.985 225.645C251.878 226.092 251.611 226.454 251.185 226.729C250.766 226.999 250.311 227.103 249.821 227.039ZM251.006 242.182L254.056 229.452L257.022 229.837L256.514 231.958L256.649 231.976C257.062 231.272 257.603 230.758 258.273 230.435C258.95 230.107 259.661 229.991 260.404 230.088C260.573 230.11 260.76 230.142 260.965 230.186C261.176 230.225 261.349 230.267 261.483 230.313L260.822 233.073C260.703 233.012 260.507 232.947 260.233 232.877C259.966 232.802 259.703 232.748 259.444 232.715C258.886 232.642 258.356 232.696 257.854 232.876C257.359 233.051 256.935 233.329 256.582 233.711C256.229 234.092 255.988 234.554 255.858 235.095L254.066 242.579L251.006 242.182ZM269.999 239.127L271.766 231.75L274.826 232.147L271.777 244.878L268.81 244.493L269.352 242.23L269.217 242.213C268.753 242.888 268.132 243.408 267.353 243.774C266.579 244.141 265.705 244.261 264.73 244.135C263.879 244.024 263.172 243.741 262.607 243.286C262.049 242.827 261.672 242.216 261.476 241.456C261.282 240.69 261.307 239.799 261.55 238.782L263.492 230.676L266.552 231.073L264.721 238.715C264.528 239.522 264.6 240.192 264.937 240.726C265.274 241.26 265.808 241.574 266.541 241.669C266.992 241.728 267.454 241.676 267.928 241.516C268.403 241.355 268.826 241.08 269.198 240.689C269.578 240.294 269.845 239.773 269.999 239.127ZM273.779 250.061L277.972 232.556L280.981 232.946L280.477 235.052L280.654 235.075C280.886 234.786 281.187 234.486 281.558 234.175C281.93 233.859 282.391 233.608 282.941 233.423C283.492 233.232 284.148 233.186 284.909 233.285C285.912 233.415 286.756 233.784 287.441 234.392C288.133 234.994 288.599 235.815 288.838 236.855C289.084 237.889 289.037 239.114 288.699 240.528C288.364 241.926 287.845 243.084 287.143 244.001C286.441 244.919 285.626 245.582 284.697 245.991C283.768 246.401 282.794 246.539 281.774 246.407C281.03 246.31 280.443 246.108 280.011 245.802C279.579 245.495 279.254 245.151 279.038 244.77C278.828 244.383 278.679 244.025 278.589 243.694L278.463 243.678L276.839 250.458L273.779 250.061ZM279.448 239.311C279.251 240.134 279.196 240.87 279.285 241.52C279.379 242.17 279.609 242.699 279.977 243.105C280.351 243.507 280.862 243.75 281.51 243.834C282.186 243.922 282.795 243.819 283.336 243.524C283.879 243.224 284.339 242.78 284.719 242.191C285.105 241.597 285.393 240.903 285.584 240.107C285.773 239.317 285.826 238.6 285.742 237.957C285.658 237.314 285.429 236.788 285.056 236.381C284.683 235.974 284.156 235.726 283.474 235.637C282.82 235.552 282.225 235.649 281.688 235.927C281.151 236.204 280.691 236.632 280.309 237.209C279.932 237.787 279.645 238.487 279.448 239.311ZM293.472 247.959C292.649 247.852 291.943 247.613 291.352 247.24C290.769 246.862 290.354 246.364 290.107 245.745C289.866 245.127 289.845 244.4 290.045 243.566C290.217 242.848 290.495 242.271 290.878 241.837C291.261 241.402 291.72 241.074 292.255 240.853C292.79 240.632 293.368 240.488 293.988 240.42C294.616 240.348 295.253 240.319 295.9 240.335C296.679 240.356 297.312 240.367 297.8 240.368C298.289 240.363 298.657 240.308 298.903 240.204C299.156 240.094 299.317 239.895 299.385 239.608L299.397 239.558C299.547 238.934 299.474 238.426 299.178 238.034C298.883 237.643 298.38 237.401 297.67 237.309C296.921 237.212 296.288 237.295 295.772 237.558C295.261 237.822 294.878 238.163 294.621 238.579L291.859 237.811C292.27 237.067 292.797 236.468 293.44 236.016C294.084 235.559 294.812 235.249 295.623 235.086C296.436 234.918 297.296 234.893 298.203 235.011C298.829 235.092 299.434 235.245 300.02 235.469C300.605 235.693 301.114 236.004 301.548 236.402C301.982 236.795 302.287 237.293 302.462 237.897C302.643 238.501 302.632 239.226 302.429 240.072L300.388 248.592L297.447 248.21L297.866 246.461L297.764 246.448C297.494 246.778 297.152 247.075 296.74 247.341C296.335 247.601 295.856 247.793 295.304 247.915C294.759 248.032 294.148 248.047 293.472 247.959ZM294.795 245.858C295.409 245.937 295.97 245.888 296.477 245.708C296.986 245.524 297.41 245.248 297.747 244.882C298.091 244.516 298.318 244.099 298.431 243.629L298.79 242.129C298.676 242.194 298.495 242.244 298.248 242.281C298.007 242.318 297.74 242.343 297.446 242.356C297.152 242.369 296.863 242.377 296.578 242.38C296.292 242.383 296.045 242.385 295.835 242.386C295.364 242.388 294.932 242.434 294.538 242.526C294.145 242.617 293.814 242.773 293.546 242.995C293.279 243.211 293.099 243.512 293.007 243.899C292.874 244.452 292.98 244.896 293.324 245.231C293.668 245.566 294.158 245.775 294.795 245.858ZM312.997 237.102L312.441 239.423L304.978 238.454L305.534 236.133L312.997 237.102ZM308.107 233.322L311.166 233.719L308.303 245.671C308.207 246.074 308.195 246.392 308.267 246.623C308.346 246.85 308.481 247.016 308.671 247.12C308.861 247.225 309.083 247.293 309.336 247.326C309.528 247.351 309.706 247.36 309.87 247.353C310.04 247.346 310.17 247.338 310.26 247.326L310.214 249.739C310.037 249.773 309.788 249.803 309.468 249.83C309.154 249.858 308.778 249.849 308.342 249.804C307.57 249.726 306.907 249.523 306.353 249.195C305.799 248.861 305.406 248.406 305.172 247.828C304.944 247.252 304.929 246.566 305.125 245.771L308.107 233.322ZM312.506 250.165L315.555 237.434L318.615 237.831L315.565 250.562L312.506 250.165ZM317.526 235.827C317.042 235.764 316.663 235.552 316.389 235.192C316.116 234.826 316.033 234.419 316.141 233.972C316.249 233.519 316.516 233.157 316.941 232.888C317.367 232.613 317.822 232.507 318.307 232.569C318.797 232.633 319.175 232.847 319.442 233.213C319.716 233.573 319.799 233.98 319.69 234.433C319.583 234.88 319.317 235.242 318.89 235.517C318.471 235.787 318.017 235.89 317.526 235.827Z" fill="#822684"/>
<defs>
<filter id="filter0_f_9_12" x="493.507" y="56.059" width="29.4047" height="77.3013" filterUnits="userSpaceOnUse" color-interpolation-filters="sRGB">
<feFlood flood-opacity="0" result="BackgroundImageFix"/>
<feBlend mode="normal" in="SourceGraphic" in2="BackgroundImageFix" result="shape"/>
<feGaussianBlur stdDeviation="2" result="effect1_foregroundBlur_9_12"/>
</filter>
<filter id="filter1_f_9_12" x="493.506" y="114.992" width="123.198" height="32.3747" filterUnits="userSpaceOnUse" color-interpolation-filters="sRGB">
<feFlood flood-opacity="0" result="BackgroundImageFix"/>
<feBlend mode="normal" in="SourceGraphic" in2="BackgroundImageFix" result="shape"/>
<feGaussianBlur stdDeviation="2" result="effect1_foregroundBlur_9_12"/>
</filter>
</defs>
</svg>
