<svg width="627" height="300" viewBox="0 0 627 300" fill="none" xmlns="http://www.w3.org/2000/svg">
<path d="M509.304 59.2684C513.203 59.6753 516.797 61.1385 519.683 63.4933L602.17 130.807C607.674 135.299 609.99 142.516 608.252 149.769L580.021 267.625C577.358 278.742 566.117 286.64 554.729 285.395L21.3515 227.106C9.63045 225.825 2.25195 215.371 4.99272 203.93L46.3313 31.3553C48.9849 20.2776 60.1606 12.3886 71.5205 13.5743L509.304 59.2684Z" fill="#C6B6F4"/>
<g filter="url(#filter0_f_75_2)">
<line y1="-2.5" x2="70.6" y2="-2.5" transform="matrix(-0.232951 0.972489 -0.991682 -0.128715 513.315 59.6373)" stroke="#250439" stroke-width="5"/>
</g>
<g filter="url(#filter1_f_75_2)">
<line y1="-5" x2="113.815" y2="-5" transform="matrix(0.991682 0.128715 -0.232951 0.972489 496.869 128.295)" stroke="#250439" stroke-width="10"/>
</g>
<path d="M163.167 67.8796L159.101 84.854L155.94 84.4437L150.968 72.7827L150.842 72.7662L148.283 83.4498L144.623 82.9748L148.689 66.0005L151.901 66.4173L156.815 78.0623L156.967 78.0821L159.524 67.4068L163.167 67.8796ZM162.125 85.2464L166.191 68.2721L173.02 69.1585C174.327 69.3281 175.388 69.7022 176.202 70.2808C177.023 70.8546 177.576 71.5901 177.861 72.4873C178.152 73.3798 178.164 74.3868 177.895 75.5085C177.625 76.6357 177.145 77.5733 176.454 78.3211C175.765 79.0635 174.899 79.5891 173.855 79.898C172.816 80.2076 171.632 80.2761 170.302 80.1035L165.73 79.51L166.42 76.6257L170.401 77.1424C171.1 77.233 171.703 77.2144 172.21 77.0865C172.717 76.9586 173.128 76.7215 173.444 76.375C173.765 76.0292 173.992 75.5773 174.126 75.0192C174.261 74.4556 174.259 73.9655 174.121 73.5487C173.988 73.1326 173.711 72.7948 173.291 72.5352C172.878 72.2708 172.32 72.0929 171.615 72.0014L169.147 71.6811L165.784 85.7214L162.125 85.2464ZM173.323 78.7351L175.774 87.0181L171.734 86.4937L169.376 78.2228L173.323 78.7351ZM185.469 70.7743L181.403 87.7487L177.744 87.2737L181.81 70.2993L185.469 70.7743ZM192.906 89.2417L188.984 88.7327L199.026 72.5339L203.742 73.1461L205.643 90.8949L201.721 90.3859L200.522 76.7277L200.387 76.7101L192.906 89.2417ZM194.259 82.5379L203.522 83.7402L202.851 86.5416L193.588 85.3393L194.259 82.5379ZM207.659 91.1565L210.708 78.4258L214.199 78.8788L213.667 81.1001L213.802 81.1177C214.228 80.3582 214.768 79.813 215.423 79.4821C216.078 79.1456 216.77 79.0245 217.497 79.1189C217.677 79.1423 217.869 79.1785 218.072 79.2277C218.275 79.2769 218.451 79.331 218.599 79.3902L217.849 82.5231C217.692 82.4515 217.468 82.3769 217.179 82.2995C216.89 82.222 216.621 82.1672 216.373 82.135C215.844 82.0663 215.343 82.1181 214.872 82.2906C214.408 82.4582 214.007 82.7252 213.669 83.0916C213.337 83.4587 213.109 83.902 212.985 84.4214L211.259 91.6239L207.659 91.1565ZM228.003 80.6705L227.368 83.3228L219.55 82.308L220.185 79.6558L228.003 80.6705ZM222.69 76.8361L226.291 77.3034L223.448 89.1722C223.37 89.4982 223.36 89.759 223.417 89.9545C223.476 90.1444 223.587 90.2871 223.751 90.3823C223.919 90.4783 224.125 90.542 224.367 90.5734C224.536 90.5953 224.708 90.6035 224.884 90.5978C225.061 90.5866 225.197 90.5785 225.291 90.5737L225.228 93.2745C225.034 93.3064 224.765 93.337 224.421 93.3664C224.076 93.4014 223.668 93.3968 223.196 93.3527C222.32 93.2732 221.587 93.0612 220.995 92.7166C220.41 92.3728 220.002 91.904 219.772 91.3102C219.543 90.7164 219.531 90.0026 219.736 89.169L222.69 76.8361ZM240.117 85.9861L236.774 85.7571C236.783 85.4736 236.722 85.2092 236.589 84.964C236.457 84.7134 236.255 84.502 235.983 84.3299C235.717 84.153 235.376 84.0375 234.959 83.9833C234.401 83.9109 233.903 83.9659 233.464 84.1482C233.027 84.3251 232.762 84.6041 232.671 84.9854C232.598 85.2893 232.66 85.5623 232.858 85.8044C233.056 86.0466 233.441 86.2703 234.013 86.4757L236.252 87.2448C237.453 87.6628 238.296 88.1938 238.781 88.8378C239.265 89.4819 239.398 90.2625 239.178 91.1798C238.978 92.0141 238.552 92.7137 237.9 93.2785C237.253 93.8441 236.454 94.2473 235.501 94.4883C234.556 94.7246 233.52 94.7695 232.393 94.6233C230.674 94.4002 229.389 93.8716 228.537 93.0375C227.692 92.1986 227.328 91.16 227.445 89.9217L231.03 90.199C231.014 90.7268 231.179 91.1527 231.525 91.4769C231.873 91.7955 232.368 91.9965 233.011 92.0799C233.642 92.1618 234.177 92.1088 234.617 91.9209C235.064 91.7283 235.336 91.4417 235.433 91.0611C235.504 90.7399 235.429 90.4596 235.208 90.22C234.988 89.9749 234.609 89.7606 234.072 89.5769L231.929 88.8458C230.721 88.4327 229.88 87.8792 229.407 87.1854C228.94 86.4923 228.82 85.6706 229.048 84.7202C229.244 83.9025 229.638 83.2272 230.23 82.6945C230.828 82.1625 231.577 81.7897 232.477 81.5759C233.382 81.363 234.389 81.3285 235.499 81.4726C237.139 81.6854 238.348 82.1927 239.126 82.9945C239.91 83.797 240.24 84.7942 240.117 85.9861ZM249.653 96.8551C248.825 96.7475 248.121 96.5108 247.54 96.1449C246.961 95.7735 246.55 95.2843 246.306 94.6772C246.069 94.0653 246.051 93.3394 246.252 92.4996C246.422 91.7923 246.696 91.2155 247.076 90.7691C247.456 90.3228 247.909 89.9828 248.436 89.7492C248.963 89.5156 249.534 89.3619 250.15 89.288C250.772 89.2149 251.411 89.1896 252.068 89.2122C252.841 89.2328 253.467 89.24 253.945 89.2336C254.424 89.2218 254.785 89.1603 255.026 89.0492C255.268 88.9382 255.421 88.7472 255.486 88.4765L255.498 88.4268C255.624 87.9018 255.552 87.4738 255.283 87.1426C255.019 86.8121 254.58 86.607 253.966 86.5273C253.318 86.4432 252.769 86.5172 252.318 86.7492C251.869 86.9758 251.532 87.291 251.307 87.6948L248.041 86.9974C248.395 86.2458 248.888 85.6203 249.519 85.1211C250.151 84.6163 250.895 84.2628 251.751 84.0605C252.614 83.8535 253.564 83.8173 254.6 83.9518C255.322 84.0454 255.992 84.2179 256.611 84.4692C257.237 84.7213 257.764 85.0547 258.193 85.4693C258.628 85.8847 258.93 86.3853 259.097 86.9711C259.266 87.5514 259.26 88.22 259.079 88.977L257.022 97.5636L253.607 97.1204L254.03 95.355L253.929 95.3419C253.625 95.7126 253.262 96.0273 252.84 96.2859C252.419 96.5389 251.943 96.7192 251.412 96.8269C250.882 96.929 250.296 96.9384 249.653 96.8551ZM251.268 94.5521C251.798 94.6209 252.29 94.5794 252.745 94.4276C253.201 94.2703 253.586 94.0298 253.902 93.7061C254.218 93.3825 254.429 92.9969 254.537 92.5493L254.86 91.1983C254.73 91.2555 254.559 91.3017 254.348 91.3369C254.143 91.3673 253.913 91.3916 253.659 91.4099C253.406 91.4227 253.154 91.4327 252.902 91.4399C252.652 91.4416 252.425 91.4435 252.221 91.4455C251.784 91.4514 251.392 91.5002 251.045 91.5919C250.697 91.6835 250.409 91.8313 250.18 92.0352C249.953 92.2335 249.799 92.4985 249.72 92.83C249.605 93.3107 249.694 93.7012 249.988 94.0015C250.289 94.2969 250.716 94.4805 251.268 94.5521ZM265.179 91.0335L263.415 98.3935L259.815 97.9262L262.865 85.1954L266.296 85.6408L265.758 87.8869L265.91 87.9067C266.375 87.2035 266.997 86.6804 267.776 86.3371C268.557 85.9884 269.429 85.8765 270.393 86.0016C271.294 86.1186 272.034 86.414 272.612 86.8878C273.19 87.3616 273.578 87.9818 273.778 88.7484C273.979 89.5095 273.961 90.3845 273.725 91.3736L271.783 99.4795L268.182 99.0122L269.973 91.5362C270.165 90.7578 270.108 90.1237 269.801 89.6338C269.496 89.1384 268.983 88.8438 268.261 88.7502C267.777 88.6873 267.324 88.734 266.903 88.8902C266.488 89.0471 266.129 89.3081 265.827 89.6734C265.531 90.0339 265.315 90.4872 265.179 91.0335ZM279.355 100.676C278.369 100.548 277.535 100.183 276.854 99.5823C276.18 98.9763 275.726 98.1568 275.491 97.1236C275.263 96.0856 275.319 94.8566 275.66 93.4365C276.009 91.9778 276.539 90.796 277.25 89.8912C277.961 88.9809 278.772 88.3369 279.682 87.9593C280.598 87.5769 281.533 87.4475 282.485 87.5711C283.212 87.6655 283.788 87.8657 284.215 88.1717C284.648 88.4729 284.971 88.8225 285.184 89.2204C285.403 89.6135 285.551 89.9916 285.627 90.3547L285.736 90.3689L287.265 83.987L290.857 84.4532L286.791 101.428L283.241 100.967L283.73 98.9279L283.578 98.9081C283.324 99.2398 283 99.5596 282.607 99.8675C282.221 100.171 281.755 100.404 281.211 100.567C280.672 100.73 280.053 100.767 279.355 100.676ZM281.169 98.0143C281.749 98.0897 282.276 97.9986 282.75 97.7411C283.232 97.4788 283.647 97.0797 283.996 96.5439C284.351 96.0088 284.619 95.3628 284.8 94.6058C284.981 93.8488 285.032 93.1774 284.951 92.5915C284.871 92.0056 284.664 91.5344 284.331 91.1779C283.998 90.8213 283.542 90.6054 282.961 90.53C282.37 90.4533 281.833 90.546 281.352 90.8083C280.871 91.0706 280.46 91.4673 280.117 91.9983C279.775 92.5293 279.516 93.1622 279.34 93.8971C279.163 94.6376 279.11 95.3059 279.182 95.902C279.261 96.4934 279.463 96.9753 279.786 97.3477C280.116 97.7153 280.577 97.9375 281.169 98.0143ZM307.614 91.6617C307.707 90.9844 307.541 90.4273 307.117 89.9905C306.693 89.5538 306.041 89.2784 305.162 89.1643C304.565 89.0867 304.041 89.1042 303.59 89.2165C303.14 89.3234 302.771 89.5062 302.482 89.765C302.199 90.0246 302.014 90.3367 301.927 90.7014C301.843 91.0038 301.844 91.2774 301.931 91.5223C302.023 91.7678 302.176 91.9899 302.39 92.1886C302.605 92.3818 302.864 92.5607 303.168 92.7254C303.472 92.8846 303.803 93.0301 304.161 93.162L305.629 93.7285C306.344 93.9923 306.984 94.3033 307.549 94.6615C308.114 95.0196 308.579 95.4304 308.945 95.8937C309.31 96.3571 309.554 96.8787 309.677 97.4586C309.805 98.0393 309.787 98.6836 309.623 99.3916C309.369 100.43 308.882 101.295 308.164 101.988C307.454 102.677 306.546 103.166 305.443 103.455C304.346 103.74 303.093 103.791 301.685 103.608C300.287 103.427 299.121 103.059 298.185 102.505C297.254 101.951 296.597 101.225 296.214 100.326C295.838 99.4227 295.782 98.3586 296.046 97.1338L299.588 97.5934C299.491 98.1677 299.543 98.6644 299.745 99.0837C299.953 99.4982 300.282 99.8343 300.732 100.092C301.188 100.345 301.732 100.512 302.363 100.594C302.983 100.675 303.542 100.656 304.041 100.539C304.546 100.422 304.962 100.222 305.291 99.9403C305.62 99.6583 305.834 99.3128 305.932 98.904C306.023 98.5227 305.984 98.1872 305.815 97.8975C305.652 97.6086 305.373 97.3444 304.977 97.105C304.587 96.8664 304.094 96.6315 303.499 96.4004L301.725 95.6916C300.349 95.1541 299.327 94.4603 298.659 93.6102C297.992 92.76 297.811 91.7082 298.117 90.4546C298.357 89.4262 298.851 88.5645 299.599 87.8696C300.352 87.1754 301.276 86.6772 302.371 86.3749C303.466 86.0726 304.644 86.0034 305.906 86.1672C307.191 86.334 308.261 86.695 309.115 87.2503C309.976 87.8063 310.581 88.5031 310.933 89.3407C311.284 90.1782 311.347 91.1036 311.122 92.117L307.614 91.6617ZM316.662 105.561C315.332 105.388 314.254 104.964 313.429 104.287C312.61 103.605 312.063 102.736 311.787 101.681C311.517 100.626 311.536 99.4548 311.844 98.1673C312.157 96.8633 312.687 95.7528 313.436 94.8358C314.191 93.914 315.111 93.2387 316.195 92.8097C317.281 92.3752 318.481 92.2432 319.794 92.4136C320.926 92.5606 321.869 92.891 322.624 93.4048C323.378 93.9186 323.916 94.5723 324.237 95.3661C324.558 96.1598 324.626 97.0517 324.441 98.0418L321.043 97.6008C321.1 96.953 320.969 96.4089 320.65 95.9688C320.338 95.5238 319.853 95.2585 319.194 95.173C318.636 95.1006 318.113 95.1865 317.624 95.4308C317.143 95.6702 316.719 96.0568 316.353 96.5904C315.987 97.124 315.708 97.7914 315.516 98.5926C315.321 99.4048 315.269 100.11 315.358 100.709C315.452 101.308 315.673 101.783 316.018 102.136C316.363 102.488 316.815 102.701 317.373 102.773C317.784 102.827 318.173 102.792 318.54 102.668C318.912 102.546 319.243 102.341 319.532 102.054C319.829 101.762 320.064 101.396 320.239 100.958L323.637 101.399C323.348 102.364 322.872 103.185 322.21 103.863C321.555 104.535 320.755 105.024 319.811 105.329C318.866 105.633 317.817 105.711 316.662 105.561ZM324.824 106.364L327.874 93.6333L331.474 94.1006L328.425 106.831L324.824 106.364ZM330.076 92.227C329.54 92.1575 329.123 91.9239 328.823 91.526C328.53 91.1234 328.443 90.6762 328.561 90.1844C328.677 89.6982 328.966 89.3055 329.427 89.0064C329.895 88.7025 330.396 88.5853 330.931 88.6548C331.467 88.7242 331.881 88.9603 332.174 89.3629C332.473 89.7608 332.565 90.2028 332.448 90.689C332.331 91.1808 332.038 91.5786 331.57 91.8825C331.109 92.1817 330.611 92.2965 330.076 92.227ZM337.166 108.222C335.83 108.049 334.744 107.635 333.908 106.979C333.079 106.319 332.522 105.466 332.238 104.421C331.955 103.37 331.974 102.173 332.296 100.83C332.61 99.5208 333.144 98.4052 333.899 97.4834C334.655 96.5616 335.569 95.8855 336.642 95.4551C337.721 95.0254 338.898 94.8932 340.171 95.0585C341.027 95.1696 341.792 95.4085 342.466 95.7751C343.146 96.1368 343.698 96.6215 344.122 97.2292C344.551 97.8375 344.823 98.568 344.939 99.4204C345.055 100.267 344.984 101.232 344.725 102.315L344.492 103.285L333.53 101.862L334.054 99.6742L341.627 100.657C341.749 100.149 341.744 99.6838 341.613 99.2622C341.481 98.8406 341.242 98.4934 340.895 98.2204C340.555 97.9427 340.123 97.7698 339.599 97.7018C339.052 97.6309 338.538 97.6923 338.056 97.8861C337.58 98.0751 337.175 98.3615 336.839 98.7452C336.504 99.1233 336.274 99.5635 336.148 100.066L335.65 102.146C335.499 102.776 335.487 103.335 335.614 103.825C335.746 104.315 336.002 104.713 336.382 105.018C336.762 105.324 337.253 105.516 337.856 105.594C338.256 105.646 338.636 105.639 338.995 105.571C339.354 105.504 339.678 105.375 339.968 105.185C340.257 104.994 340.502 104.747 340.703 104.443L343.981 105.09C343.624 105.853 343.114 106.493 342.449 107.011C341.792 107.524 341.013 107.89 340.112 108.109C339.219 108.324 338.236 108.361 337.166 108.222ZM350.897 102.159L349.134 109.519L345.534 109.052L348.583 96.3212L352.014 96.7666L351.476 99.0127L351.629 99.0325C352.093 98.3294 352.715 97.8062 353.495 97.463C354.275 97.1142 355.148 97.0024 356.111 97.1274C357.013 97.2444 357.752 97.5399 358.33 98.0137C358.908 98.4875 359.297 99.1077 359.497 99.8743C359.698 100.635 359.68 101.51 359.443 102.499L357.501 110.605L353.901 110.138L355.692 102.662C355.884 101.884 355.827 101.25 355.52 100.76C355.214 100.264 354.701 99.9697 353.98 99.8761C353.495 99.8132 353.043 99.8598 352.622 100.016C352.207 100.173 351.848 100.434 351.545 100.799C351.25 101.16 351.034 101.613 350.897 102.159ZM366.145 111.984C364.815 111.811 363.738 111.386 362.912 110.709C362.094 110.028 361.546 109.159 361.271 108.104C361 107.049 361.019 105.877 361.328 104.59C361.64 103.286 362.171 102.175 362.919 101.259C363.674 100.337 364.594 99.6614 365.679 99.2324C366.765 98.7979 367.964 98.6659 369.277 98.8363C370.409 98.9833 371.353 99.3137 372.107 99.8275C372.861 100.341 373.399 100.995 373.72 101.789C374.041 102.582 374.109 103.474 373.924 104.465L370.527 104.024C370.583 103.376 370.452 102.832 370.133 102.391C369.822 101.947 369.336 101.681 368.677 101.596C368.119 101.523 367.596 101.609 367.108 101.853C366.626 102.093 366.202 102.479 365.836 103.013C365.47 103.547 365.191 104.214 364.999 105.015C364.805 105.828 364.752 106.533 364.841 107.131C364.936 107.73 365.156 108.206 365.501 108.559C365.847 108.911 366.299 109.124 366.856 109.196C367.268 109.249 367.657 109.214 368.023 109.091C368.395 108.968 368.726 108.764 369.016 108.476C369.312 108.184 369.548 107.819 369.723 107.38L373.12 107.821C372.831 108.786 372.355 109.608 371.693 110.285C371.038 110.958 370.239 111.447 369.294 111.751C368.35 112.056 367.3 112.134 366.145 111.984ZM380.164 113.803C378.829 113.63 377.743 113.216 376.907 112.56C376.077 111.9 375.52 111.047 375.236 110.002C374.954 108.951 374.973 107.754 375.295 106.411C375.608 105.102 376.143 103.986 376.898 103.064C377.653 102.143 378.568 101.467 379.641 101.036C380.72 100.606 381.896 100.474 383.17 100.639C384.026 100.751 384.791 100.99 385.464 101.356C386.144 101.718 386.696 102.203 387.12 102.81C387.55 103.419 387.822 104.149 387.937 105.001C388.054 105.848 387.983 106.813 387.723 107.896L387.491 108.866L376.529 107.443L377.053 105.255L384.626 106.238C384.748 105.73 384.743 105.265 384.611 104.843C384.48 104.422 384.241 104.074 383.894 103.801C383.554 103.524 383.121 103.351 382.597 103.283C382.051 103.212 381.537 103.273 381.054 103.467C380.579 103.656 380.174 103.942 379.838 104.326C379.503 104.704 379.273 105.144 379.147 105.647L378.648 107.727C378.497 108.357 378.485 108.916 378.612 109.406C378.745 109.896 379.001 110.294 379.381 110.599C379.761 110.905 380.252 111.097 380.855 111.175C381.255 111.227 381.635 111.22 381.993 111.152C382.352 111.085 382.677 110.956 382.966 110.766C383.256 110.575 383.501 110.328 383.702 110.024L386.98 110.671C386.623 111.434 386.112 112.074 385.448 112.592C384.791 113.105 384.012 113.471 383.111 113.69C382.217 113.905 381.235 113.942 380.164 113.803ZM405.105 99.282L408.722 99.7515L405.887 111.587C405.625 112.681 405.147 113.599 404.452 114.341C403.763 115.083 402.924 115.615 401.935 115.937C400.945 116.258 399.865 116.343 398.693 116.191C397.65 116.056 396.747 115.753 395.982 115.284C395.224 114.809 394.686 114.17 394.368 113.365C394.05 112.555 394.03 111.586 394.305 110.46L397.948 110.933C397.852 111.382 397.853 111.778 397.951 112.121C398.056 112.459 398.243 112.734 398.512 112.946C398.787 113.152 399.139 113.284 399.568 113.339C400.018 113.398 400.421 113.353 400.776 113.206C401.138 113.053 401.445 112.802 401.697 112.453C401.949 112.104 402.14 111.659 402.27 111.118L405.105 99.282ZM417.238 112.77L418.989 105.46L422.589 105.927L419.54 118.658L416.083 118.209L416.637 115.897L416.502 115.879C416.03 116.587 415.399 117.123 414.609 117.488C413.824 117.853 412.944 117.973 411.97 117.846C411.102 117.733 410.385 117.441 409.818 116.969C409.252 116.496 408.868 115.879 408.666 115.118C408.471 114.358 408.49 113.48 408.722 112.485L410.664 104.379L414.264 104.846L412.474 112.322C412.299 113.075 412.363 113.695 412.664 114.184C412.965 114.674 413.456 114.962 414.138 115.051C414.572 115.107 415.001 115.063 415.425 114.919C415.85 114.769 416.224 114.516 416.548 114.159C416.877 113.803 417.107 113.34 417.238 112.77ZM427.783 112.139L426.02 119.499L422.42 119.031L425.469 106.301L428.901 106.746L428.363 108.992L428.515 109.012C428.98 108.309 429.602 107.786 430.381 107.442C431.162 107.094 432.034 106.982 432.997 107.107C433.899 107.224 434.639 107.519 435.216 107.993C435.794 108.467 436.183 109.087 436.383 109.854C436.584 110.615 436.566 111.49 436.329 112.479L434.388 120.585L430.787 120.118L432.578 112.641C432.77 111.863 432.713 111.229 432.406 110.739C432.101 110.244 431.587 109.949 430.866 109.856C430.382 109.793 429.929 109.839 429.508 109.995C429.093 110.152 428.734 110.413 428.432 110.779C428.136 111.139 427.92 111.593 427.783 112.139ZM437.225 120.953L440.275 108.222L443.875 108.69L440.826 121.42L437.225 120.953ZM442.477 106.816C441.941 106.747 441.524 106.513 441.224 106.115C440.931 105.712 440.844 105.265 440.962 104.773C441.078 104.287 441.367 103.895 441.828 103.595C442.295 103.292 442.797 103.174 443.332 103.244C443.868 103.313 444.282 103.549 444.574 103.952C444.874 104.35 444.966 104.792 444.849 105.278C444.732 105.77 444.439 106.168 443.971 106.472C443.51 106.771 443.012 106.886 442.477 106.816ZM449.516 122.805C448.203 122.634 447.133 122.214 446.306 121.542C445.487 120.866 444.935 120.003 444.652 118.952C444.371 117.895 444.386 116.715 444.699 115.411C445.014 114.096 445.548 112.98 446.302 112.064C447.058 111.142 447.977 110.47 449.06 110.046C450.15 109.618 451.352 109.489 452.665 109.66C453.978 109.83 455.044 110.253 455.864 110.929C456.691 111.601 457.245 112.465 457.526 113.521C457.809 114.572 457.793 115.755 457.478 117.07C457.166 118.374 456.632 119.487 455.876 120.409C455.123 121.325 454.2 121.997 453.11 122.425C452.027 122.849 450.829 122.975 449.516 122.805ZM450.188 120.072C450.785 120.149 451.324 120.048 451.803 119.769C452.284 119.484 452.695 119.064 453.037 118.51C453.385 117.957 453.647 117.31 453.824 116.57C454.002 115.83 454.056 115.156 453.986 114.548C453.922 113.942 453.731 113.444 453.411 113.055C453.092 112.666 452.634 112.433 452.036 112.355C451.434 112.277 450.886 112.38 450.394 112.664C449.908 112.948 449.491 113.367 449.143 113.92C448.801 114.474 448.542 115.121 448.364 115.861C448.187 116.602 448.13 117.275 448.194 117.882C448.264 118.489 448.461 118.987 448.786 119.377C449.118 119.762 449.585 119.994 450.188 120.072ZM458.306 123.689L461.356 110.959L464.846 111.412L464.314 113.633L464.45 113.65C464.876 112.891 465.416 112.346 466.07 112.015C466.726 111.678 467.417 111.557 468.144 111.652C468.324 111.675 468.516 111.711 468.719 111.761C468.922 111.81 469.098 111.864 469.247 111.923L468.496 115.056C468.339 114.984 468.116 114.91 467.827 114.832C467.537 114.755 467.269 114.7 467.021 114.668C466.491 114.599 465.991 114.651 465.519 114.823C465.055 114.991 464.654 115.258 464.317 115.624C463.985 115.992 463.756 116.435 463.632 116.954L461.907 124.157L458.306 123.689ZM275.795 117.705L272.093 117.224C272.138 116.746 272.1 116.311 271.979 115.919C271.859 115.522 271.667 115.172 271.402 114.87C271.138 114.568 270.808 114.32 270.413 114.126C270.023 113.933 269.581 113.804 269.085 113.74C268.189 113.624 267.356 113.741 266.587 114.091C265.819 114.436 265.152 114.999 264.587 115.78C264.024 116.556 263.601 117.532 263.319 118.709C263.029 119.919 262.969 120.96 263.138 121.83C263.313 122.702 263.682 123.391 264.246 123.897C264.811 124.403 265.53 124.713 266.403 124.826C266.893 124.89 267.362 124.885 267.809 124.812C268.262 124.74 268.681 124.604 269.066 124.403C269.453 124.197 269.795 123.931 270.094 123.605C270.399 123.28 270.647 122.896 270.84 122.454L274.538 122.951C274.256 123.718 273.837 124.438 273.28 125.112C272.73 125.782 272.066 126.359 271.288 126.845C270.516 127.326 269.648 127.675 268.684 127.891C267.727 128.103 266.693 128.137 265.583 127.993C264.039 127.793 262.741 127.271 261.688 126.428C260.641 125.585 259.921 124.469 259.527 123.079C259.14 121.69 259.167 120.073 259.609 118.227C260.052 116.376 260.785 114.848 261.806 113.641C262.827 112.435 264.027 111.571 265.407 111.049C266.788 110.522 268.239 110.357 269.761 110.555C270.764 110.685 271.66 110.944 272.45 111.331C273.246 111.719 273.913 112.222 274.451 112.838C274.99 113.45 275.377 114.164 275.611 114.98C275.851 115.798 275.912 116.706 275.795 117.705ZM281.515 130.078C280.202 129.908 279.133 129.487 278.306 128.816C277.486 128.139 276.935 127.276 276.652 126.225C276.37 125.169 276.386 123.989 276.698 122.685C277.013 121.369 277.548 120.254 278.302 119.338C279.057 118.416 279.976 117.743 281.059 117.32C282.15 116.891 283.351 116.763 284.664 116.933C285.977 117.103 287.043 117.527 287.863 118.203C288.69 118.874 289.244 119.738 289.526 120.794C289.808 121.845 289.792 123.028 289.477 124.343C289.165 125.647 288.631 126.76 287.876 127.682C287.122 128.598 286.2 129.27 285.109 129.699C284.026 130.122 282.828 130.249 281.515 130.078ZM282.187 127.345C282.785 127.423 283.323 127.322 283.802 127.042C284.283 126.757 284.695 126.337 285.036 125.784C285.384 125.23 285.646 124.584 285.824 123.843C286.001 123.103 286.055 122.429 285.985 121.822C285.922 121.215 285.73 120.718 285.411 120.329C285.091 119.94 284.633 119.706 284.036 119.629C283.433 119.551 282.885 119.653 282.393 119.937C281.907 120.221 281.49 120.64 281.143 121.193C280.801 121.747 280.541 122.394 280.364 123.135C280.186 123.875 280.13 124.549 280.193 125.155C280.263 125.762 280.46 126.261 280.785 126.65C281.117 127.035 281.584 127.267 282.187 127.345ZM297.972 114.456L293.906 131.43L290.306 130.963L294.372 113.988L297.972 114.456ZM304.457 115.297L300.391 132.272L296.79 131.804L300.856 114.83L304.457 115.297ZM309.132 133.663C307.796 133.489 306.71 133.075 305.874 132.419C305.044 131.759 304.488 130.906 304.204 129.861C303.921 128.81 303.94 127.613 304.262 126.271C304.575 124.961 305.11 123.845 305.865 122.924C306.621 122.002 307.535 121.326 308.608 120.895C309.687 120.466 310.863 120.334 312.137 120.499C312.993 120.61 313.758 120.849 314.431 121.215C315.112 121.577 315.664 122.062 316.087 122.669C316.517 123.278 316.789 124.008 316.905 124.861C317.021 125.708 316.95 126.673 316.69 127.756L316.458 128.725L305.496 127.303L306.02 125.114L313.593 126.097C313.715 125.589 313.71 125.124 313.579 124.703C313.447 124.281 313.208 123.934 312.861 123.661C312.521 123.383 312.089 123.21 311.565 123.142C311.018 123.071 310.504 123.133 310.022 123.326C309.546 123.515 309.141 123.802 308.805 124.185C308.47 124.564 308.24 125.004 308.114 125.506L307.616 127.586C307.465 128.216 307.453 128.776 307.579 129.265C307.712 129.755 307.968 130.153 308.348 130.459C308.728 130.764 309.219 130.956 309.822 131.035C310.222 131.087 310.602 131.079 310.961 131.011C311.32 130.944 311.644 130.815 311.933 130.625C312.223 130.435 312.468 130.187 312.669 129.883L315.947 130.531C315.59 131.293 315.08 131.934 314.415 132.451C313.758 132.964 312.979 133.33 312.078 133.549C311.184 133.764 310.202 133.802 309.132 133.663ZM322.141 140.291C320.975 140.139 320.012 139.852 319.254 139.429C318.5 139.012 317.942 138.504 317.58 137.904C317.218 137.304 317.044 136.661 317.058 135.973L320.493 135.966C320.533 136.234 320.637 136.492 320.804 136.741C320.971 136.991 321.218 137.206 321.547 137.385C321.88 137.571 322.309 137.697 322.833 137.765C323.616 137.867 324.306 137.763 324.903 137.453C325.505 137.149 325.91 136.561 326.119 135.688L326.677 133.359L326.525 133.339C326.283 133.672 325.966 133.976 325.575 134.25C325.184 134.524 324.717 134.728 324.173 134.863C323.63 134.997 323.014 135.02 322.327 134.931C321.352 134.804 320.518 134.468 319.823 133.922C319.136 133.372 318.666 132.607 318.412 131.628C318.165 130.645 318.211 129.449 318.548 128.04C318.894 126.597 319.422 125.424 320.132 124.519C320.843 123.614 321.653 122.973 322.563 122.596C323.478 122.219 324.412 122.092 325.364 122.216C326.091 122.31 326.67 122.51 327.102 122.817C327.535 123.118 327.858 123.468 328.071 123.866C328.291 124.259 328.441 124.638 328.522 125.001L328.658 125.019L329.17 122.881L332.745 123.345L329.666 136.2C329.406 137.283 328.919 138.154 328.203 138.813C327.487 139.472 326.607 139.922 325.562 140.162C324.521 140.409 323.381 140.452 322.141 140.291ZM324.103 132.427C324.683 132.502 325.207 132.425 325.675 132.195C326.15 131.96 326.557 131.592 326.899 131.089C327.247 130.581 327.51 129.955 327.689 129.209C327.867 128.463 327.915 127.803 327.832 127.228C327.75 126.647 327.543 126.179 327.21 125.822C326.877 125.466 326.421 125.25 325.84 125.175C325.249 125.098 324.712 125.19 324.231 125.453C323.751 125.71 323.341 126.101 323 126.626C322.659 127.152 322.402 127.776 322.229 128.5C322.053 129.235 322.005 129.884 322.085 130.447C322.172 131.005 322.38 131.457 322.71 131.802C323.047 132.142 323.511 132.35 324.103 132.427ZM338.417 137.464C337.082 137.29 335.996 136.876 335.16 136.22C334.33 135.56 333.773 134.707 333.489 133.662C333.206 132.611 333.226 131.415 333.547 130.072C333.861 128.762 334.396 127.647 335.151 126.725C335.906 125.803 336.821 125.127 337.894 124.697C338.973 124.267 340.149 124.135 341.422 124.3C342.279 124.411 343.044 124.65 343.717 125.016C344.397 125.378 344.949 125.863 345.373 126.471C345.802 127.079 346.075 127.809 346.19 128.662C346.307 129.509 346.235 130.474 345.976 131.557L345.744 132.527L334.782 131.104L335.306 128.916L342.879 129.899C343 129.39 342.996 128.925 342.864 128.504C342.733 128.082 342.494 127.735 342.146 127.462C341.806 127.184 341.374 127.011 340.85 126.943C340.304 126.872 339.789 126.934 339.307 127.128C338.832 127.317 338.426 127.603 338.09 127.987C337.756 128.365 337.526 128.805 337.399 129.307L336.901 131.387C336.75 132.017 336.738 132.577 336.865 133.066C336.997 133.556 337.254 133.954 337.634 134.26C338.013 134.566 338.505 134.757 339.108 134.836C339.508 134.888 339.887 134.88 340.246 134.813C340.605 134.745 340.929 134.616 341.219 134.426C341.509 134.236 341.754 133.988 341.954 133.684L345.233 134.332C344.876 135.094 344.365 135.735 343.701 136.252C343.044 136.765 342.265 137.131 341.364 137.351C340.47 137.565 339.488 137.603 338.417 137.464Z" fill="#320348"/>
<path d="M138.005 149.754L141.202 150.169L143.029 160.975L143.198 160.997L149.936 151.303L153.133 151.718L149.745 165.863L147.238 165.538L149.565 155.82L149.432 155.802L143.127 164.961L141.254 164.718L139.59 154.503L139.456 154.486L137.124 164.225L134.616 163.899L138.005 149.754ZM155.54 166.836C154.854 166.747 154.265 166.547 153.773 166.236C153.287 165.922 152.941 165.506 152.735 164.991C152.534 164.476 152.517 163.87 152.684 163.175C152.827 162.576 153.058 162.096 153.377 161.734C153.697 161.372 154.079 161.099 154.525 160.914C154.971 160.73 155.453 160.61 155.97 160.553C156.492 160.493 157.023 160.469 157.562 160.482C158.212 160.5 158.74 160.509 159.146 160.51C159.554 160.506 159.86 160.46 160.065 160.373C160.276 160.282 160.41 160.116 160.467 159.877L160.477 159.835C160.602 159.315 160.541 158.892 160.295 158.565C160.049 158.239 159.63 158.037 159.038 157.961C158.414 157.88 157.886 157.949 157.456 158.168C157.03 158.389 156.711 158.672 156.497 159.02L154.196 158.379C154.538 157.759 154.977 157.26 155.512 156.883C156.049 156.502 156.656 156.244 157.332 156.108C158.01 155.968 158.726 155.948 159.482 156.046C160.003 156.113 160.508 156.24 160.996 156.427C161.484 156.614 161.908 156.873 162.269 157.205C162.631 157.532 162.885 157.947 163.031 158.45C163.182 158.954 163.172 159.558 163.004 160.263L161.303 167.363L158.852 167.045L159.201 165.588L159.116 165.577C158.891 165.851 158.606 166.099 158.263 166.321C157.925 166.538 157.526 166.697 157.066 166.799C156.612 166.897 156.103 166.909 155.54 166.836ZM156.642 165.085C157.153 165.151 157.621 165.11 158.044 164.96C158.468 164.807 158.821 164.577 159.102 164.272C159.388 163.967 159.578 163.619 159.672 163.227L159.971 161.977C159.876 162.031 159.726 162.074 159.52 162.104C159.319 162.135 159.096 162.156 158.851 162.167C158.606 162.178 158.365 162.184 158.127 162.187C157.89 162.189 157.683 162.191 157.509 162.192C157.116 162.193 156.756 162.232 156.428 162.308C156.1 162.384 155.824 162.514 155.601 162.699C155.379 162.879 155.229 163.13 155.152 163.453C155.041 163.913 155.129 164.283 155.416 164.562C155.703 164.842 156.111 165.016 156.642 165.085ZM171.81 157.788L171.347 159.722L165.128 158.915L165.591 156.981L171.81 157.788ZM167.735 154.638L170.285 154.969L167.899 164.929C167.818 165.265 167.808 165.53 167.869 165.723C167.935 165.912 168.047 166.05 168.205 166.137C168.363 166.224 168.548 166.281 168.76 166.308C168.919 166.329 169.068 166.337 169.204 166.331C169.346 166.325 169.454 166.318 169.529 166.309L169.491 168.319C169.344 168.347 169.137 168.373 168.87 168.395C168.608 168.418 168.295 168.411 167.931 168.373C167.288 168.309 166.735 168.14 166.273 167.866C165.812 167.588 165.484 167.208 165.29 166.727C165.1 166.247 165.087 165.675 165.25 165.013L167.735 154.638ZM175.672 162.819L174.183 169.035L171.633 168.704L175.022 154.559L177.515 154.882L176.236 160.221L176.363 160.238C176.76 159.672 177.265 159.251 177.878 158.975C178.497 158.694 179.22 158.608 180.047 158.715C180.798 158.812 181.416 159.052 181.901 159.433C182.386 159.814 182.71 160.321 182.872 160.955C183.04 161.589 183.021 162.334 182.816 163.191L181.198 169.945L178.648 169.615L180.174 163.246C180.345 162.533 180.29 161.953 180.009 161.509C179.734 161.06 179.261 160.792 178.589 160.705C178.139 160.646 177.712 160.691 177.309 160.838C176.911 160.981 176.569 161.219 176.281 161.552C175.997 161.885 175.795 162.308 175.672 162.819ZM194.217 163.588L191.833 163.535C191.823 163.296 191.759 163.065 191.644 162.841C191.532 162.617 191.356 162.426 191.113 162.266C190.871 162.107 190.552 162.001 190.158 161.95C189.627 161.881 189.154 161.936 188.738 162.115C188.327 162.294 188.081 162.564 188 162.923C187.921 163.231 187.976 163.497 188.165 163.721C188.358 163.945 188.714 164.156 189.234 164.351L190.987 164.977C191.958 165.327 192.637 165.768 193.022 166.303C193.412 166.838 193.518 167.485 193.341 168.246C193.176 168.913 192.836 169.476 192.319 169.936C191.808 170.392 191.17 170.718 190.407 170.913C189.644 171.108 188.811 171.147 187.91 171.03C186.586 170.858 185.585 170.448 184.908 169.8C184.231 169.147 183.932 168.323 184.011 167.327L186.554 167.415C186.552 167.908 186.705 168.301 187.012 168.592C187.32 168.884 187.768 169.068 188.355 169.144C188.96 169.222 189.475 169.163 189.9 168.967C190.33 168.771 190.587 168.494 190.673 168.134C190.746 167.83 190.686 167.564 190.494 167.335C190.307 167.106 189.977 166.907 189.505 166.736L187.751 166.117C186.764 165.771 186.081 165.314 185.704 164.748C185.328 164.176 185.234 163.504 185.424 162.731C185.576 162.077 185.893 161.534 186.374 161.103C186.86 160.667 187.464 160.361 188.184 160.184C188.91 160.003 189.705 159.968 190.569 160.081C191.837 160.245 192.771 160.639 193.372 161.263C193.978 161.888 194.259 162.663 194.217 163.588ZM199.715 172.349L203.103 158.204L208.512 158.906C209.62 159.049 210.501 159.373 211.156 159.875C211.815 160.379 212.252 161.01 212.467 161.769C212.688 162.524 212.691 163.351 212.476 164.249C212.258 165.156 211.87 165.936 211.312 166.59C210.753 167.244 210.045 167.724 209.188 168.031C208.331 168.333 207.346 168.411 206.233 168.267L202.649 167.801L203.153 165.695L206.386 166.114C207.034 166.199 207.591 166.157 208.057 165.99C208.523 165.822 208.901 165.558 209.191 165.197C209.486 164.836 209.693 164.405 209.813 163.903C209.934 163.401 209.938 162.946 209.828 162.538C209.722 162.13 209.486 161.793 209.119 161.527C208.758 161.257 208.25 161.079 207.598 160.995L205.203 160.684L202.328 172.688L199.715 172.349ZM216.405 168.106L214.916 174.322L212.366 173.991L215.754 159.846L218.248 160.169L216.969 165.508L217.095 165.525C217.492 164.959 217.998 164.538 218.611 164.261C219.23 163.981 219.953 163.894 220.779 164.002C221.53 164.099 222.148 164.338 222.633 164.719C223.118 165.101 223.442 165.608 223.605 166.241C223.773 166.876 223.754 167.621 223.549 168.477L221.931 175.232L219.381 174.901L220.906 168.533C221.077 167.82 221.022 167.24 220.742 166.796C220.467 166.347 219.993 166.079 219.322 165.992C218.871 165.933 218.444 165.978 218.041 166.125C217.644 166.268 217.301 166.506 217.013 166.839C216.73 167.172 216.527 167.595 216.405 168.106ZM224.774 179.703C224.426 179.658 224.111 179.589 223.829 179.495C223.55 179.407 223.332 179.317 223.175 179.225L224.233 177.354C224.578 177.508 224.897 177.602 225.189 177.635C225.482 177.668 225.759 177.612 226.022 177.465C226.288 177.324 226.546 177.064 226.797 176.683L227.153 176.138L225.824 164.799L228.529 165.15L229.103 173.486L229.216 173.5L233.635 165.813L236.347 166.165L229.166 177.496C228.83 178.032 228.447 178.478 228.017 178.835C227.587 179.197 227.105 179.453 226.57 179.602C226.039 179.756 225.441 179.79 224.774 179.703ZM245.99 170.308L243.606 170.255C243.595 170.016 243.532 169.785 243.416 169.561C243.305 169.337 243.128 169.146 242.886 168.986C242.643 168.826 242.325 168.721 241.93 168.67C241.4 168.601 240.927 168.656 240.511 168.835C240.1 169.014 239.854 169.283 239.773 169.643C239.694 169.951 239.749 170.217 239.938 170.441C240.131 170.665 240.487 170.875 241.007 171.071L242.759 171.697C243.731 172.047 244.41 172.488 244.795 173.023C245.185 173.557 245.291 174.205 245.114 174.965C244.949 175.633 244.608 176.196 244.091 176.656C243.58 177.112 242.943 177.437 242.18 177.633C241.417 177.828 240.584 177.867 239.683 177.75C238.359 177.578 237.358 177.168 236.68 176.52C236.004 175.867 235.705 175.043 235.784 174.047L238.327 174.134C238.325 174.628 238.477 175.02 238.785 175.312C239.093 175.604 239.54 175.787 240.127 175.864C240.733 175.942 241.248 175.883 241.673 175.687C242.102 175.491 242.36 175.213 242.446 174.854C242.519 174.55 242.459 174.284 242.267 174.055C242.08 173.826 241.75 173.627 241.278 173.456L239.523 172.837C238.536 172.49 237.854 172.034 237.477 171.467C237.1 170.896 237.007 170.224 237.197 169.451C237.349 168.797 237.665 168.254 238.146 167.823C238.633 167.387 239.237 167.081 239.957 166.904C240.683 166.723 241.478 166.688 242.342 166.8C243.61 166.965 244.544 167.359 245.145 167.983C245.751 168.608 246.032 169.383 245.99 170.308ZM246.455 178.416L248.996 167.807L251.546 168.137L249.005 178.746L246.455 178.416ZM250.639 166.467C250.235 166.415 249.919 166.238 249.691 165.938C249.464 165.633 249.395 165.294 249.484 164.921C249.574 164.544 249.797 164.243 250.151 164.018C250.506 163.789 250.885 163.7 251.289 163.753C251.698 163.806 252.013 163.984 252.235 164.289C252.464 164.589 252.533 164.928 252.442 165.305C252.353 165.678 252.131 165.98 251.776 166.209C251.426 166.434 251.047 166.52 250.639 166.467ZM256.296 179.906C255.216 179.766 254.344 179.413 253.681 178.848C253.022 178.283 252.582 177.563 252.361 176.689C252.145 175.812 252.165 174.836 252.422 173.763C252.68 172.686 253.12 171.762 253.74 170.993C254.361 170.219 255.111 169.652 255.992 169.291C256.878 168.927 257.849 168.813 258.906 168.95C259.784 169.064 260.523 169.324 261.123 169.729C261.729 170.131 262.165 170.646 262.431 171.274C262.698 171.897 262.768 172.595 262.641 173.366L260.204 173.05C260.228 172.526 260.095 172.07 259.806 171.681C259.522 171.288 259.073 171.052 258.458 170.972C257.937 170.904 257.446 170.983 256.985 171.208C256.526 171.428 256.124 171.78 255.781 172.262C255.443 172.745 255.188 173.344 255.017 174.057C254.844 174.78 254.803 175.416 254.894 175.964C254.987 176.508 255.194 176.946 255.517 177.277C255.845 177.605 256.274 177.803 256.805 177.872C257.181 177.92 257.533 177.895 257.862 177.795C258.197 177.691 258.497 177.519 258.763 177.278C259.029 177.037 259.245 176.731 259.412 176.358L261.848 176.675C261.608 177.417 261.223 178.053 260.694 178.583C260.167 179.108 259.528 179.49 258.778 179.73C258.029 179.965 257.202 180.024 256.296 179.906ZM273.493 173.878L271.11 173.824C271.099 173.586 271.036 173.354 270.92 173.13C270.809 172.907 270.632 172.716 270.39 172.556C270.147 172.396 269.828 172.291 269.434 172.24C268.903 172.171 268.43 172.226 268.015 172.404C267.604 172.584 267.358 172.853 267.276 173.213C267.198 173.521 267.253 173.787 267.441 174.011C267.634 174.235 267.991 174.445 268.51 174.641L270.263 175.267C271.235 175.616 271.913 176.058 272.298 176.592C272.688 177.127 272.795 177.775 272.617 178.535C272.453 179.202 272.112 179.766 271.595 180.226C271.084 180.682 270.447 181.007 269.684 181.203C268.92 181.398 268.088 181.437 267.186 181.32C265.862 181.148 264.861 180.738 264.184 180.09C263.508 179.437 263.209 178.613 263.288 177.616L265.83 177.704C265.828 178.198 265.981 178.59 266.289 178.882C266.597 179.173 267.044 179.357 267.631 179.433C268.237 179.512 268.752 179.453 269.177 179.257C269.606 179.061 269.864 178.783 269.95 178.424C270.023 178.12 269.963 177.854 269.771 177.625C269.584 177.396 269.254 177.197 268.781 177.026L267.027 176.407C266.04 176.06 265.358 175.604 264.98 175.037C264.604 174.466 264.511 173.794 264.701 173.021C264.853 172.367 265.169 171.824 265.65 171.392C266.137 170.957 266.74 170.651 267.461 170.474C268.187 170.293 268.982 170.258 269.846 170.37C271.113 170.535 272.048 170.929 272.649 171.553C273.254 172.178 273.536 172.952 273.493 173.878ZM293.583 174.868L290.949 174.527C290.975 174.093 290.926 173.7 290.803 173.347C290.68 172.989 290.496 172.676 290.251 172.406C290.006 172.137 289.704 171.92 289.347 171.755C288.995 171.586 288.599 171.473 288.157 171.415C287.373 171.313 286.632 171.417 285.934 171.725C285.236 172.028 284.628 172.529 284.107 173.225C283.588 173.918 283.201 174.796 282.946 175.859C282.687 176.941 282.64 177.875 282.805 178.661C282.976 179.443 283.317 180.062 283.827 180.517C284.344 180.969 284.992 181.245 285.771 181.346C286.203 181.403 286.62 181.4 287.022 181.338C287.43 181.272 287.811 181.148 288.164 180.966C288.522 180.785 288.843 180.546 289.127 180.251C289.416 179.956 289.65 179.607 289.829 179.202L292.46 179.558C292.2 180.218 291.835 180.821 291.365 181.367C290.9 181.915 290.351 182.38 289.717 182.763C289.084 183.141 288.385 183.411 287.62 183.573C286.856 183.731 286.044 183.753 285.185 183.642C283.917 183.477 282.855 183.043 281.997 182.338C281.139 181.633 280.554 180.7 280.242 179.539C279.929 178.378 279.955 177.038 280.319 175.518C280.684 173.994 281.285 172.729 282.122 171.721C282.96 170.71 283.945 169.981 285.078 169.534C286.212 169.088 287.408 168.946 288.666 169.11C289.469 169.214 290.189 169.421 290.826 169.732C291.464 170.043 292.001 170.447 292.438 170.945C292.877 171.439 293.196 172.017 293.396 172.679C293.601 173.337 293.664 174.067 293.583 174.868ZM297.657 178.652L296.168 184.868L293.618 184.537L297.006 170.392L299.5 170.715L298.221 176.054L298.348 176.071C298.744 175.505 299.25 175.084 299.863 174.808C300.482 174.527 301.205 174.441 302.031 174.548C302.782 174.645 303.401 174.885 303.885 175.266C304.37 175.647 304.694 176.154 304.857 176.788C305.025 177.422 305.006 178.167 304.801 179.024L303.183 185.778L300.633 185.448L302.158 179.079C302.329 178.366 302.275 177.786 301.994 177.342C301.719 176.893 301.246 176.625 300.574 176.538C300.123 176.479 299.696 176.524 299.293 176.671C298.896 176.814 298.553 177.052 298.265 177.385C297.982 177.718 297.779 178.141 297.657 178.652ZM310.521 186.945C309.437 186.804 308.553 186.461 307.87 185.917C307.193 185.368 306.741 184.659 306.513 183.789C306.287 182.915 306.307 181.923 306.573 180.813C306.834 179.722 307.275 178.792 307.895 178.022C308.52 177.249 309.271 176.682 310.147 176.32C311.024 175.955 311.979 175.839 313.012 175.973C313.678 176.06 314.282 176.247 314.823 176.536C315.37 176.82 315.818 177.211 316.169 177.707C316.524 178.205 316.753 178.809 316.853 179.52C316.955 180.226 316.895 181.044 316.672 181.974L316.488 182.741L307.621 181.59L308.025 179.905L314.448 180.739C314.558 180.259 314.554 179.819 314.437 179.42C314.321 179.015 314.103 178.681 313.784 178.416C313.47 178.152 313.069 177.989 312.58 177.925C312.059 177.858 311.571 177.923 311.117 178.12C310.665 178.313 310.28 178.595 309.963 178.967C309.652 179.335 309.438 179.756 309.319 180.23L308.967 181.701C308.819 182.318 308.807 182.862 308.932 183.334C309.057 183.801 309.298 184.179 309.655 184.468C310.013 184.752 310.469 184.93 311.023 185.001C311.394 185.05 311.742 185.043 312.067 184.98C312.393 184.913 312.69 184.793 312.959 184.619C313.229 184.445 313.455 184.216 313.64 183.931L315.957 184.502C315.659 185.1 315.244 185.602 314.711 186.007C314.184 186.409 313.564 186.694 312.85 186.862C312.138 187.026 311.362 187.054 310.521 186.945ZM317.538 187.642L320.08 177.033L322.517 177.349L322.085 179.152L322.212 179.168C322.583 178.59 323.07 178.164 323.672 177.891C324.276 177.613 324.94 177.521 325.663 177.615C326.395 177.71 326.971 177.965 327.389 178.38C327.814 178.792 328.058 179.31 328.121 179.935L328.234 179.95C328.614 179.392 329.131 178.974 329.783 178.698C330.44 178.418 331.161 178.329 331.945 178.43C332.941 178.56 333.679 178.974 334.161 179.672C334.642 180.371 334.741 181.312 334.458 182.495L332.752 189.616L330.195 189.285L331.808 182.55C331.966 181.892 331.903 181.388 331.619 181.037C331.336 180.683 330.936 180.472 330.42 180.405C329.804 180.325 329.278 180.451 328.84 180.783C328.408 181.112 328.12 181.576 327.977 182.174L326.392 188.791L323.891 188.466L325.529 181.629C325.661 181.081 325.596 180.621 325.337 180.25C325.082 179.88 324.684 179.66 324.144 179.59C323.778 179.542 323.422 179.591 323.078 179.736C322.734 179.877 322.434 180.102 322.176 180.41C321.919 180.714 321.738 181.084 321.633 181.522L320.088 187.973L317.538 187.642ZM335.338 189.952L337.88 179.343L340.429 179.674L337.888 190.283L335.338 189.952ZM339.522 178.004C339.118 177.951 338.802 177.775 338.574 177.475C338.347 177.17 338.278 176.831 338.367 176.458C338.458 176.081 338.68 175.779 339.034 175.555C339.389 175.325 339.769 175.237 340.172 175.289C340.581 175.342 340.896 175.521 341.119 175.825C341.347 176.126 341.416 176.464 341.326 176.842C341.236 177.215 341.014 177.516 340.659 177.745C340.31 177.971 339.931 178.057 339.522 178.004ZM350.93 183.928L348.546 183.875C348.535 183.637 348.472 183.405 348.356 183.181C348.245 182.958 348.068 182.766 347.826 182.607C347.583 182.447 347.265 182.342 346.87 182.291C346.34 182.222 345.867 182.277 345.451 182.455C345.04 182.635 344.794 182.904 344.713 183.264C344.634 183.572 344.689 183.838 344.878 184.062C345.071 184.286 345.427 184.496 345.947 184.692L347.699 185.318C348.671 185.667 349.35 186.109 349.735 186.643C350.125 187.178 350.231 187.826 350.054 188.586C349.889 189.253 349.548 189.817 349.032 190.277C348.52 190.733 347.883 191.058 347.12 191.253C346.357 191.449 345.524 191.488 344.623 191.371C343.299 191.199 342.298 190.789 341.62 190.141C340.944 189.488 340.645 188.663 340.724 187.667L343.267 187.755C343.265 188.249 343.417 188.641 343.725 188.933C344.033 189.224 344.48 189.408 345.067 189.484C345.673 189.563 346.188 189.504 346.613 189.308C347.042 189.112 347.3 188.834 347.386 188.475C347.459 188.171 347.399 187.905 347.207 187.675C347.02 187.447 346.69 187.248 346.218 187.077L344.463 186.458C343.476 186.111 342.794 185.655 342.417 185.088C342.04 184.517 341.947 183.845 342.137 183.072C342.289 182.418 342.606 181.875 343.086 181.443C343.573 181.008 344.177 180.702 344.897 180.525C345.623 180.343 346.418 180.309 347.282 180.421C348.55 180.586 349.484 180.98 350.085 181.604C350.691 182.229 350.972 183.003 350.93 183.928ZM359.339 182.128L358.875 184.062L352.656 183.255L353.119 181.321L359.339 182.128ZM355.264 178.979L357.813 179.31L355.428 189.269C355.347 189.606 355.337 189.87 355.397 190.063C355.463 190.252 355.575 190.39 355.734 190.477C355.892 190.564 356.077 190.621 356.288 190.649C356.448 190.669 356.596 190.677 356.733 190.671C356.875 190.666 356.983 190.658 357.058 190.649L357.019 192.659C356.872 192.688 356.665 192.713 356.398 192.735C356.136 192.758 355.823 192.751 355.459 192.713C354.816 192.649 354.264 192.48 353.802 192.206C353.341 191.928 353.013 191.548 352.818 191.067C352.628 190.587 352.615 190.015 352.779 189.353L355.264 178.979ZM358.93 193.014L361.471 182.405L363.943 182.726L363.519 184.494L363.632 184.509C363.976 183.922 364.427 183.494 364.986 183.225C365.55 182.951 366.142 182.855 366.761 182.935C366.902 182.953 367.058 182.981 367.228 183.017C367.405 183.05 367.549 183.085 367.661 183.123L367.11 185.423C367.01 185.372 366.847 185.318 366.619 185.26C366.396 185.198 366.177 185.153 365.961 185.124C365.496 185.064 365.055 185.109 364.636 185.259C364.224 185.405 363.87 185.636 363.576 185.954C363.282 186.272 363.081 186.657 362.973 187.108L361.479 193.345L358.93 193.014ZM367.754 198.262C367.407 198.217 367.092 198.147 366.809 198.053C366.53 197.965 366.312 197.875 366.155 197.783L367.213 195.912C367.559 196.066 367.878 196.16 368.17 196.193C368.462 196.226 368.739 196.17 369.002 196.024C369.268 195.882 369.527 195.622 369.778 195.241L370.133 194.696L368.805 183.357L371.509 183.708L372.083 192.044L372.196 192.058L376.615 184.371L379.327 184.723L372.147 196.054C371.81 196.59 371.427 197.036 370.998 197.394C370.567 197.756 370.085 198.011 369.551 198.16C369.02 198.314 368.421 198.348 367.754 198.262ZM380.566 189.876C380.979 188.149 381.592 186.593 382.403 185.207C383.22 183.818 384.238 182.569 385.457 181.459L387.859 181.771C387.393 182.18 386.926 182.697 386.457 183.319C385.989 183.938 385.546 184.626 385.128 185.383C384.715 186.137 384.342 186.926 384.008 187.752C383.68 188.578 383.417 189.401 383.221 190.22C382.959 191.312 382.805 192.431 382.758 193.579C382.715 194.727 382.77 195.802 382.922 196.805C383.077 197.812 383.322 198.651 383.655 199.321L381.253 199.01C380.623 197.66 380.246 196.232 380.123 194.725C380.005 193.214 380.153 191.598 380.566 189.876ZM389.857 182.443L393.054 182.858L394.881 193.664L395.05 193.686L401.788 183.992L404.986 184.407L401.597 198.552L399.09 198.227L401.418 188.509L401.284 188.491L394.979 197.651L393.106 197.407L391.442 187.193L391.309 187.175L388.976 196.914L386.468 196.589L389.857 182.443ZM404.443 198.922L407.831 184.776L413.24 185.478C414.348 185.622 415.23 185.945 415.884 186.448C416.543 186.951 416.98 187.583 417.195 188.342C417.416 189.097 417.419 189.923 417.204 190.821C416.986 191.728 416.598 192.509 416.04 193.163C415.482 193.817 414.773 194.297 413.916 194.603C413.059 194.905 412.074 194.984 410.962 194.839L407.377 194.374L407.881 192.268L411.114 192.687C411.762 192.771 412.319 192.73 412.785 192.562C413.251 192.395 413.629 192.131 413.919 191.769C414.214 191.409 414.421 190.978 414.541 190.476C414.662 189.974 414.666 189.519 414.556 189.11C414.45 188.702 414.214 188.366 413.847 188.099C413.486 187.829 412.979 187.652 412.326 187.567L409.931 187.257L407.056 199.261L404.443 198.922ZM431.799 192.808L429.164 192.466C429.191 192.033 429.142 191.64 429.019 191.286C428.896 190.929 428.712 190.615 428.467 190.346C428.221 190.077 427.92 189.86 427.563 189.695C427.211 189.525 426.814 189.412 426.373 189.355C425.589 189.253 424.848 189.356 424.149 189.665C423.452 189.968 422.843 190.468 422.323 191.165C421.804 191.857 421.417 192.735 421.162 193.799C420.903 194.881 420.856 195.815 421.021 196.601C421.192 197.383 421.532 198.001 422.043 198.457C422.559 198.909 423.207 199.185 423.987 199.286C424.419 199.342 424.836 199.339 425.238 199.278C425.646 199.212 426.027 199.088 426.38 198.906C426.738 198.725 427.059 198.486 427.343 198.191C427.631 197.896 427.865 197.546 428.044 197.142L430.675 197.498C430.416 198.157 430.051 198.76 429.581 199.307C429.116 199.855 428.566 200.32 427.932 200.703C427.299 201.081 426.6 201.351 425.835 201.513C425.071 201.67 424.26 201.693 423.401 201.582C422.133 201.417 421.07 200.982 420.213 200.278C419.355 199.573 418.77 198.64 418.457 197.479C418.145 196.318 418.171 194.978 418.535 193.458C418.9 191.934 419.501 190.668 420.337 189.661C421.175 188.649 422.161 187.92 423.294 187.474C424.427 187.028 425.623 186.886 426.882 187.05C427.685 187.154 428.405 187.361 429.042 187.672C429.679 187.982 430.217 188.387 430.654 188.885C431.093 189.379 431.412 189.957 431.611 190.619C431.817 191.277 431.879 192.007 431.799 192.808ZM437.765 197.3C437.353 199.022 436.738 200.578 435.921 201.967C435.11 203.353 434.094 204.6 432.875 205.71L430.473 205.398C430.944 204.989 431.411 204.475 431.874 203.856C432.341 203.238 432.782 202.55 433.196 201.792C433.615 201.034 433.988 200.242 434.317 199.416C434.65 198.591 434.915 197.77 435.11 196.955C435.371 195.864 435.523 194.744 435.566 193.596C435.613 192.449 435.559 191.371 435.403 190.363C435.253 189.356 435.01 188.518 434.677 187.848L437.079 188.159C437.709 189.509 438.083 190.939 438.201 192.45C438.324 193.957 438.179 195.573 437.765 197.3ZM259.763 191.48C260.534 191.586 261.262 191.823 261.946 192.191C262.631 192.559 263.201 193.089 263.657 193.78C264.118 194.473 264.405 195.365 264.515 196.456C264.632 197.542 264.509 198.859 264.144 200.407C263.788 201.893 263.318 203.197 262.736 204.318C262.155 205.433 261.485 206.352 260.725 207.074C259.971 207.796 259.142 208.312 258.237 208.622C257.332 208.932 256.375 209.021 255.366 208.89C254.335 208.757 253.467 208.439 252.762 207.937C252.058 207.435 251.539 206.801 251.205 206.034C250.873 205.262 250.755 204.409 250.851 203.476L253.429 203.81C253.423 204.562 253.625 205.198 254.035 205.718C254.452 206.234 255.074 206.545 255.902 206.653C257.17 206.817 258.289 206.404 259.258 205.413C260.229 204.417 260.951 202.944 261.424 200.994L261.288 200.976C260.881 201.414 260.417 201.775 259.896 202.06C259.38 202.347 258.829 202.549 258.243 202.666C257.657 202.784 257.057 202.803 256.443 202.723C255.445 202.594 254.596 202.236 253.894 201.649C253.192 201.062 252.7 200.317 252.416 199.415C252.133 198.512 252.12 197.522 252.378 196.444C252.635 195.372 253.116 194.432 253.821 193.623C254.531 192.815 255.396 192.215 256.413 191.823C257.438 191.426 258.555 191.312 259.763 191.48ZM259.256 193.637C258.596 193.551 257.964 193.634 257.357 193.886C256.758 194.133 256.241 194.507 255.807 195.009C255.374 195.506 255.079 196.083 254.922 196.74C254.764 197.398 254.768 198.014 254.932 198.588C255.104 199.157 255.408 199.632 255.846 200.014C256.29 200.39 256.845 200.622 257.509 200.708C258.005 200.772 258.49 200.739 258.963 200.606C259.436 200.474 259.873 200.263 260.274 199.973C260.676 199.678 261.018 199.329 261.3 198.927C261.582 198.525 261.779 198.089 261.892 197.619C262.042 196.995 262.028 196.395 261.853 195.82C261.682 195.245 261.374 194.76 260.928 194.366C260.484 193.967 259.926 193.724 259.256 193.637ZM265.135 209.919L276.201 196.246L276.231 196.122L267.492 194.988L268.018 192.791L279.462 194.277L278.918 196.548L267.865 210.273L265.135 209.919ZM277.021 211.624C276.559 211.564 276.2 211.352 275.944 210.989C275.69 210.62 275.618 210.206 275.728 209.747C275.836 209.294 276.095 208.929 276.504 208.652C276.915 208.369 277.351 208.257 277.813 208.317C278.275 208.377 278.633 208.592 278.888 208.961C279.143 209.324 279.217 209.733 279.108 210.186C279.036 210.49 278.89 210.759 278.671 210.992C278.46 211.221 278.209 211.394 277.92 211.51C277.63 211.626 277.331 211.664 277.021 211.624ZM282.531 208.759L283.027 206.687L293.283 196.07L294.948 196.287L294.217 199.337L293.161 199.199L285.821 206.81L285.789 206.943L296.042 208.273L295.521 210.445L282.531 208.759ZM289.943 213.139L290.889 209.194L291.132 208.251L294.026 196.167L296.503 196.488L292.437 213.463L289.943 213.139ZM307.563 212.144L307.777 211.249C307.935 210.592 308.221 210.005 308.635 209.489C309.055 208.974 309.578 208.583 310.205 208.317C310.833 208.051 311.535 207.968 312.313 208.069C313.113 208.173 313.743 208.429 314.203 208.836C314.665 209.238 314.967 209.733 315.111 210.321C315.26 210.91 315.256 211.536 315.097 212.199L314.882 213.094C314.725 213.752 314.439 214.339 314.025 214.855C313.611 215.371 313.09 215.762 312.463 216.028C311.841 216.295 311.136 216.377 310.347 216.275C309.558 216.172 308.931 215.917 308.465 215.509C307.999 215.101 307.692 214.602 307.542 214.013C307.399 213.425 307.406 212.802 307.563 212.144ZM309.983 211.536L309.769 212.431C309.664 212.867 309.676 213.282 309.802 213.674C309.929 214.067 310.263 214.298 310.804 214.368C311.35 214.439 311.768 214.308 312.057 213.975C312.353 213.638 312.554 213.248 312.66 212.806L312.874 211.911C312.98 211.469 312.978 211.053 312.868 210.662C312.759 210.266 312.423 210.032 311.86 209.959C311.33 209.89 310.911 210.027 310.603 210.368C310.296 210.704 310.089 211.094 309.983 211.536ZM301.092 201.289L301.306 200.393C301.465 199.73 301.754 199.141 302.174 198.626C302.594 198.111 303.116 197.723 303.742 197.462C304.37 197.196 305.072 197.113 305.85 197.214C306.644 197.318 307.271 197.573 307.732 197.98C308.199 198.382 308.504 198.878 308.648 199.466C308.792 200.055 308.784 200.68 308.625 201.343L308.411 202.239C308.252 202.902 307.966 203.491 307.551 204.007C307.144 204.518 306.628 204.904 306.002 205.165C305.376 205.425 304.671 205.505 303.888 205.403C303.094 205.3 302.463 205.047 301.996 204.645C301.534 204.243 301.229 203.748 301.079 203.159C300.93 202.569 300.934 201.946 301.092 201.289ZM303.529 200.682L303.314 201.577C303.209 202.019 303.216 202.436 303.337 202.828C303.465 203.215 303.8 203.443 304.341 203.513C304.882 203.584 305.297 203.452 305.585 203.12C305.881 202.782 306.082 202.392 306.188 201.95L306.402 201.055C306.508 200.613 306.506 200.197 306.396 199.806C306.288 199.411 305.955 199.177 305.397 199.104C304.862 199.035 304.443 199.171 304.14 199.514C303.837 199.856 303.633 200.245 303.529 200.682ZM298.966 214.31L314.932 198.88L317.045 199.155L301.079 214.584L298.966 214.31Z" fill="#460447"/>
<path d="M231.834 219.831L232.451 217.254L246.262 219.046L245.644 221.624L240.294 220.93L236.845 235.326L233.735 234.923L237.184 220.526L231.834 219.831ZM244.723 236.349L247.772 223.618L250.832 224.015L247.782 236.746L244.723 236.349ZM249.743 222.011C249.259 221.948 248.879 221.736 248.605 221.376C248.333 221.01 248.25 220.603 248.357 220.156C248.466 219.703 248.733 219.341 249.157 219.072C249.583 218.797 250.039 218.691 250.523 218.753C251.014 218.817 251.392 219.031 251.659 219.397C251.933 219.757 252.016 220.163 251.907 220.617C251.8 221.064 251.533 221.425 251.107 221.701C250.688 221.971 250.233 222.074 249.743 222.011ZM250.928 237.154L253.978 224.423L256.944 224.808L256.436 226.93L256.571 226.948C256.984 226.244 257.525 225.73 258.195 225.407C258.872 225.079 259.583 224.963 260.327 225.059C260.496 225.081 260.682 225.114 260.887 225.158C261.098 225.197 261.271 225.239 261.405 225.285L260.744 228.045C260.625 227.984 260.429 227.918 260.155 227.849C259.888 227.774 259.625 227.72 259.366 227.687C258.808 227.614 258.278 227.668 257.776 227.848C257.281 228.023 256.857 228.301 256.504 228.682C256.152 229.064 255.91 229.525 255.781 230.067L253.988 237.551L250.928 237.154ZM269.922 234.099L271.689 226.722L274.748 227.119L271.699 239.85L268.732 239.465L269.274 237.202L269.139 237.185C268.675 237.859 268.054 238.38 267.275 238.746C266.501 239.113 265.627 239.233 264.652 239.106C263.802 238.996 263.094 238.713 262.529 238.258C261.971 237.798 261.594 237.188 261.399 236.428C261.204 235.662 261.229 234.771 261.473 233.754L263.414 225.648L266.474 226.045L264.643 233.687C264.45 234.494 264.522 235.164 264.859 235.698C265.196 236.231 265.731 236.546 266.463 236.641C266.914 236.699 267.376 236.648 267.851 236.488C268.325 236.327 268.748 236.052 269.12 235.661C269.5 235.266 269.767 234.745 269.922 234.099ZM273.701 245.032L277.894 227.528L280.903 227.918L280.399 230.023L280.576 230.046C280.808 229.757 281.11 229.458 281.48 229.147C281.853 228.83 282.313 228.58 282.863 228.395C283.414 228.204 284.07 228.158 284.831 228.257C285.834 228.387 286.678 228.756 287.363 229.363C288.055 229.966 288.521 230.787 288.76 231.826C289.006 232.861 288.96 234.086 288.621 235.5C288.286 236.898 287.768 238.056 287.066 238.973C286.364 239.89 285.548 240.554 284.619 240.963C283.691 241.372 282.716 241.511 281.696 241.378C280.953 241.282 280.365 241.08 279.933 240.773C279.501 240.467 279.177 240.123 278.96 239.741C278.75 239.355 278.601 238.997 278.512 238.666L278.385 238.65L276.761 245.43L273.701 245.032ZM279.37 234.282C279.173 235.106 279.118 235.842 279.207 236.492C279.301 237.142 279.532 237.671 279.899 238.077C280.273 238.479 280.784 238.722 281.432 238.806C282.109 238.894 282.717 238.79 283.258 238.496C283.801 238.196 284.262 237.752 284.641 237.163C285.027 236.569 285.316 235.875 285.506 235.079C285.695 234.289 285.748 233.572 285.664 232.929C285.58 232.285 285.351 231.76 284.978 231.353C284.605 230.945 284.078 230.697 283.396 230.609C282.742 230.524 282.147 230.621 281.61 230.898C281.073 231.176 280.613 231.604 280.231 232.181C279.854 232.759 279.567 233.459 279.37 234.282ZM293.394 242.931C292.572 242.824 291.865 242.584 291.275 242.211C290.691 241.834 290.276 241.335 290.029 240.717C289.788 240.098 289.767 239.372 289.967 238.538C290.139 237.82 290.417 237.243 290.8 236.809C291.183 236.374 291.642 236.046 292.177 235.825C292.712 235.604 293.29 235.46 293.91 235.392C294.538 235.32 295.175 235.291 295.822 235.307C296.601 235.328 297.235 235.339 297.722 235.34C298.212 235.335 298.579 235.28 298.825 235.175C299.078 235.066 299.239 234.867 299.308 234.58L299.319 234.53C299.469 233.906 299.396 233.398 299.101 233.006C298.805 232.615 298.302 232.373 297.593 232.281C296.843 232.183 296.21 232.266 295.694 232.53C295.183 232.794 294.8 233.135 294.543 233.551L291.782 232.783C292.192 232.038 292.719 231.44 293.362 230.988C294.006 230.53 294.734 230.22 295.545 230.058C296.358 229.89 297.218 229.865 298.126 229.983C298.751 230.064 299.356 230.216 299.942 230.441C300.527 230.665 301.037 230.976 301.47 231.374C301.905 231.766 302.209 232.265 302.384 232.868C302.565 233.473 302.554 234.198 302.351 235.043L300.31 243.564L297.369 243.182L297.788 241.433L297.687 241.42C297.416 241.749 297.074 242.047 296.662 242.312C296.257 242.573 295.778 242.765 295.226 242.887C294.681 243.004 294.07 243.019 293.394 242.931ZM294.717 240.829C295.331 240.909 295.892 240.859 296.4 240.68C296.909 240.496 297.332 240.22 297.67 239.854C298.013 239.488 298.241 239.07 298.353 238.601L298.712 237.101C298.598 237.166 298.418 237.216 298.171 237.253C297.929 237.29 297.662 237.315 297.368 237.328C297.075 237.341 296.785 237.349 296.5 237.352C296.214 237.355 295.967 237.357 295.758 237.358C295.287 237.36 294.854 237.406 294.461 237.497C294.067 237.589 293.736 237.745 293.468 237.967C293.201 238.183 293.022 238.484 292.929 238.871C292.797 239.424 292.902 239.867 293.246 240.203C293.59 240.538 294.08 240.747 294.717 240.829ZM312.919 232.074L312.363 234.394L304.9 233.426L305.456 231.105L312.919 232.074ZM308.029 228.294L311.089 228.691L308.226 240.643C308.129 241.046 308.117 241.364 308.189 241.595C308.269 241.822 308.403 241.988 308.593 242.092C308.783 242.196 309.005 242.265 309.258 242.298C309.45 242.323 309.628 242.332 309.792 242.325C309.962 242.318 310.092 242.309 310.182 242.298L310.136 244.711C309.959 244.745 309.711 244.775 309.391 244.802C309.076 244.83 308.701 244.821 308.264 244.775C307.492 244.698 306.829 244.495 306.275 244.167C305.721 243.833 305.328 243.377 305.094 242.8C304.867 242.224 304.851 241.538 305.047 240.743L308.029 228.294ZM312.428 245.136L315.478 232.406L318.537 232.803L315.488 245.534L312.428 245.136ZM317.449 230.799C316.964 230.736 316.585 230.524 316.311 230.164C316.038 229.798 315.956 229.391 316.063 228.944C316.171 228.491 316.438 228.129 316.863 227.86C317.289 227.584 317.744 227.478 318.229 227.541C318.719 227.605 319.098 227.819 319.365 228.184C319.639 228.545 319.721 228.951 319.613 229.404C319.505 229.852 319.239 230.213 318.813 230.488C318.394 230.759 317.939 230.862 317.449 230.799Z" fill="#822684"/>
<defs>
<filter id="filter0_f_75_2" x="492.869" y="55.6373" width="29.4047" height="77.3013" filterUnits="userSpaceOnUse" color-interpolation-filters="sRGB">
<feFlood flood-opacity="0" result="BackgroundImageFix"/>
<feBlend mode="normal" in="SourceGraphic" in2="BackgroundImageFix" result="shape"/>
<feGaussianBlur stdDeviation="2" result="effect1_foregroundBlur_75_2"/>
</filter>
<filter id="filter1_f_75_2" x="492.869" y="114.57" width="123.198" height="32.3747" filterUnits="userSpaceOnUse" color-interpolation-filters="sRGB">
<feFlood flood-opacity="0" result="BackgroundImageFix"/>
<feBlend mode="normal" in="SourceGraphic" in2="BackgroundImageFix" result="shape"/>
<feGaussianBlur stdDeviation="2" result="effect1_foregroundBlur_75_2"/>
</filter>
</defs>
</svg>
