<svg width="627" height="300" viewBox="0 0 627 300" fill="none" xmlns="http://www.w3.org/2000/svg">
<path d="M509.304 59.2684C513.203 59.6753 516.797 61.1385 519.683 63.4934L602.17 130.807C607.674 135.299 609.99 142.516 608.252 149.769L580.021 267.625C577.358 278.742 566.117 286.64 554.729 285.395L21.3515 227.106C9.63045 225.825 2.25195 215.371 4.99272 203.93L46.3313 31.3554C48.9849 20.2776 60.1606 12.3886 71.5205 13.5743L509.304 59.2684Z" fill="#C6B6F4"/>
<g filter="url(#filter0_f_75_7)">
<line y1="-2.5" x2="70.6" y2="-2.5" transform="matrix(-0.232951 0.972489 -0.991682 -0.128715 513.315 59.6373)" stroke="#250439" stroke-width="5"/>
</g>
<g filter="url(#filter1_f_75_7)">
<line y1="-5" x2="113.815" y2="-5" transform="matrix(0.991682 0.128715 -0.232951 0.972489 496.869 128.295)" stroke="#250439" stroke-width="10"/>
</g>
<path d="M181.233 75.2581C181.325 74.5807 181.16 74.0236 180.736 73.5869C180.311 73.1501 179.66 72.8747 178.781 72.7606C178.184 72.6831 177.66 72.7005 177.209 72.8129C176.759 72.9197 176.39 73.1026 176.101 73.3614C175.818 73.6209 175.633 73.933 175.546 74.2977C175.462 74.6001 175.463 74.8738 175.549 75.1186C175.642 75.3642 175.795 75.5863 176.009 75.7849C176.224 75.9781 176.483 76.157 176.786 76.3217C177.091 76.4809 177.422 76.6265 177.78 76.7583L179.248 77.3249C179.963 77.5886 180.603 77.8996 181.168 78.2578C181.733 78.616 182.198 79.0267 182.563 79.4901C182.929 79.9534 183.173 80.475 183.295 81.055C183.423 81.6356 183.406 82.28 183.242 82.988C182.987 84.026 182.501 84.8916 181.783 85.5846C181.072 86.2729 180.165 86.7619 179.061 87.0516C177.965 87.3366 176.712 87.3877 175.304 87.2048C173.906 87.0235 172.739 86.6555 171.803 86.101C170.873 85.5472 170.216 84.821 169.833 83.9224C169.457 83.019 169.401 81.9549 169.665 80.7301L173.206 81.1897C173.109 81.764 173.162 82.2608 173.363 82.68C173.572 83.0945 173.901 83.4307 174.351 83.6884C174.807 83.9414 175.351 84.1088 175.982 84.1907C176.602 84.2712 177.161 84.2526 177.66 84.135C178.164 84.0182 178.581 83.8187 178.91 83.5367C179.239 83.2546 179.452 82.9092 179.55 82.5003C179.642 82.119 179.603 81.7836 179.434 81.4939C179.271 81.2049 178.991 80.9407 178.596 80.7014C178.205 80.4627 177.713 80.2278 177.117 79.9967L175.344 79.288C173.968 78.7504 172.946 78.0566 172.278 77.2065C171.61 76.3564 171.429 75.3045 171.735 74.051C171.976 73.0225 172.47 72.1608 173.217 71.4659C173.971 70.7717 174.895 70.2735 175.989 69.9712C177.084 69.6689 178.263 69.5997 179.525 69.7635C180.81 69.9303 181.879 70.2913 182.734 70.8466C183.594 71.4027 184.2 72.0995 184.551 72.937C184.903 73.7745 184.966 74.7 184.74 75.7133L181.233 75.2581ZM184.474 88.1473L187.524 75.4166L191.124 75.8839L188.075 88.6146L184.474 88.1473ZM189.726 74.0102C189.19 73.9408 188.773 73.7071 188.473 73.3093C188.18 72.9066 188.093 72.4594 188.211 71.9677C188.327 71.4814 188.616 71.0887 189.077 70.7896C189.545 70.4857 190.046 70.3685 190.581 70.438C191.117 70.5075 191.531 70.7435 191.823 71.1462C192.123 71.544 192.215 71.986 192.098 72.4723C191.981 72.9641 191.688 73.3619 191.22 73.6658C190.759 73.9649 190.261 74.0797 189.726 74.0102ZM195.693 89.8171C194.707 89.6891 193.874 89.3246 193.193 88.7234C192.519 88.1175 192.064 87.2979 191.829 86.2647C191.602 85.2267 191.658 83.9977 191.998 82.5777C192.347 81.1189 192.877 79.9372 193.588 79.0324C194.3 78.122 195.111 77.4781 196.02 77.1005C196.937 76.7181 197.871 76.5887 198.824 76.7123C199.55 76.8066 200.127 77.0068 200.553 77.3128C200.987 77.614 201.31 77.9636 201.522 78.3615C201.742 78.7547 201.889 79.1327 201.965 79.4958L202.075 79.5101L203.604 73.1281L207.196 73.5943L203.13 90.5687L199.58 90.1079L200.068 88.069L199.916 88.0493C199.662 88.381 199.339 88.7008 198.946 89.0086C198.559 89.3117 198.094 89.5447 197.549 89.7077C197.011 89.8713 196.392 89.9078 195.693 89.8171ZM197.507 87.1555C198.087 87.2308 198.615 87.1397 199.089 86.8822C199.57 86.6199 199.985 86.2209 200.334 85.6851C200.689 85.15 200.957 84.5039 201.138 83.747C201.32 82.99 201.37 82.3185 201.29 81.7327C201.209 81.1468 201.003 80.6756 200.67 80.319C200.337 79.9625 199.88 79.7465 199.3 79.6712C198.708 79.5944 198.172 79.6872 197.691 79.9495C197.21 80.2117 196.798 80.6084 196.456 81.1394C196.114 81.6704 195.855 82.3034 195.679 83.0383C195.501 83.7787 195.449 84.447 195.521 85.0432C195.6 85.6346 195.801 86.1165 196.124 86.4889C196.455 86.8565 196.916 87.0787 197.507 87.1555ZM210.824 91.781C209.838 91.653 209.004 91.2885 208.323 90.6873C207.649 90.0814 207.195 89.2618 206.96 88.2286C206.733 87.1907 206.789 85.9616 207.129 84.5416C207.478 83.0828 208.008 81.9011 208.719 80.9963C209.431 80.086 210.242 79.442 211.151 79.0644C212.068 78.682 213.002 78.5526 213.954 78.6762C214.681 78.7705 215.258 78.9707 215.684 79.2767C216.117 79.578 216.44 79.9275 216.653 80.3254C216.873 80.7186 217.02 81.0967 217.096 81.4597L217.206 81.474L218.735 75.092L222.327 75.5583L218.261 92.5326L214.711 92.0719L215.199 90.0329L215.047 90.0132C214.793 90.3449 214.47 90.6647 214.076 90.9726C213.69 91.2757 213.225 91.5087 212.68 91.6716C212.141 91.8352 211.523 91.8717 210.824 91.781ZM212.638 89.1194C213.218 89.1947 213.746 89.1036 214.22 88.8461C214.701 88.5838 215.116 88.1848 215.465 87.649C215.82 87.1139 216.088 86.4679 216.269 85.7109C216.451 84.9539 216.501 84.2824 216.421 83.6966C216.34 83.1107 216.134 82.6395 215.801 82.2829C215.468 81.9264 215.011 81.7104 214.431 81.6351C213.839 81.5583 213.303 81.6511 212.822 81.9134C212.341 82.1757 211.929 82.5723 211.587 83.1033C211.245 83.6344 210.985 84.2673 210.809 85.0022C210.632 85.7426 210.579 86.4109 210.652 87.0071C210.731 87.5985 210.932 88.0804 211.255 88.4528C211.585 88.8204 212.046 89.0426 212.638 89.1194ZM226.584 86.0242L224.821 93.3842L221.221 92.9168L225.287 75.9425L228.786 76.3966L227.231 82.8863L227.383 82.9061C227.856 82.1927 228.471 81.6656 229.226 81.325C229.983 80.9788 230.855 80.8698 231.841 80.9977C232.742 81.1147 233.482 81.4102 234.06 81.884C234.645 82.353 235.037 82.9708 235.237 83.7374C235.443 84.4992 235.425 85.377 235.181 86.3709L233.239 94.4768L229.639 94.0094L231.43 86.5334C231.623 85.7495 231.567 85.1127 231.26 84.6227C230.959 84.1336 230.442 83.8415 229.709 83.7464C229.219 83.6828 228.761 83.7287 228.334 83.8841C227.914 84.0403 227.549 84.3006 227.241 84.6652C226.94 85.0249 226.721 85.4779 226.584 86.0242ZM239.717 95.5654C238.889 95.4579 238.184 95.2212 237.604 94.8553C237.025 94.4838 236.613 93.9946 236.369 93.3875C236.133 92.7756 236.115 92.0498 236.316 91.2099C236.485 90.5026 236.76 89.9258 237.14 89.4795C237.52 89.0331 237.973 88.6932 238.5 88.4595C239.026 88.2259 239.598 88.0722 240.214 87.9983C240.836 87.9252 241.475 87.8999 242.132 87.9225C242.905 87.9432 243.531 87.9503 244.009 87.944C244.488 87.9321 244.849 87.8706 245.09 87.7596C245.332 87.6485 245.485 87.4576 245.55 87.1868L245.562 87.1371C245.687 86.6122 245.616 86.1841 245.346 85.8529C245.083 85.5224 244.644 85.3173 244.03 85.2376C243.382 85.1535 242.833 85.2275 242.382 85.4596C241.933 85.6861 241.596 86.0013 241.371 86.4052L238.105 85.7077C238.459 84.9561 238.951 84.3306 239.582 83.8314C240.214 83.3266 240.959 82.9731 241.815 82.7709C242.678 82.5638 243.627 82.5276 244.664 82.6622C245.385 82.7558 246.056 82.9282 246.675 83.1796C247.3 83.4316 247.828 83.765 248.257 84.1797C248.692 84.5951 248.993 85.0956 249.161 85.6814C249.33 86.2617 249.324 86.9303 249.142 87.6873L247.085 96.2739L243.671 95.8307L244.094 94.0654L243.992 94.0522C243.689 94.423 243.326 94.7376 242.904 94.9962C242.483 95.2492 242.007 95.4296 241.475 95.5372C240.946 95.6394 240.359 95.6488 239.717 95.5654ZM241.332 93.2625C241.862 93.3312 242.354 93.2897 242.808 93.1379C243.264 92.9806 243.65 92.7401 243.966 92.4165C244.282 92.0928 244.493 91.7072 244.6 91.2597L244.924 89.9087C244.794 89.9659 244.623 90.0121 244.411 90.0473C244.207 90.0776 243.977 90.102 243.723 90.1203C243.47 90.133 243.218 90.143 242.966 90.1502C242.716 90.1519 242.489 90.1538 242.285 90.1558C241.848 90.1618 241.456 90.2106 241.109 90.3022C240.761 90.3939 240.473 90.5416 240.244 90.7455C240.017 90.9439 239.863 91.2088 239.784 91.5403C239.668 92.0211 239.758 92.4115 240.052 92.7118C240.353 93.0072 240.78 93.1908 241.332 93.2625ZM249.879 96.6365L252.928 83.9057L256.419 84.3588L255.887 86.5801L256.022 86.5976C256.448 85.8382 256.988 85.293 257.643 84.962C258.298 84.6255 258.99 84.5045 259.717 84.5988C259.897 84.6222 260.089 84.6585 260.292 84.7077C260.495 84.7568 260.671 84.811 260.819 84.8701L260.069 88.0031C259.912 87.9314 259.689 87.8569 259.399 87.7794C259.11 87.702 258.841 87.6472 258.593 87.615C258.064 87.5463 257.563 87.5981 257.092 87.7705C256.628 87.9382 256.227 88.2052 255.889 88.5716C255.557 88.9387 255.329 89.3819 255.205 89.9013L253.479 97.1038L249.879 96.6365ZM270.223 86.1505L269.588 88.8027L261.77 87.788L262.405 85.1358L270.223 86.1505ZM264.91 82.3161L268.511 82.7834L265.668 94.6522C265.59 94.9782 265.58 95.2389 265.637 95.4344C265.696 95.6244 265.808 95.767 265.971 95.8622C266.139 95.9582 266.345 96.0219 266.587 96.0534C266.756 96.0753 266.929 96.0834 267.104 96.0777C267.281 96.0665 267.417 96.0585 267.511 96.0536L267.448 98.7545C267.254 98.7863 266.985 98.817 266.641 98.8464C266.296 98.8813 265.888 98.8767 265.416 98.8326C264.54 98.7531 263.807 98.5411 263.215 98.1966C262.63 97.8528 262.222 97.384 261.992 96.7901C261.763 96.1963 261.751 95.4826 261.956 94.649L264.91 82.3161ZM275.161 92.3292L273.398 99.6892L269.798 99.2219L273.864 82.2475L277.363 82.7017L275.808 89.1914L275.96 89.2111C276.433 88.4977 277.048 87.9707 277.803 87.63C278.56 87.2839 279.431 87.1748 280.418 87.3028C281.319 87.4198 282.059 87.7152 282.637 88.189C283.221 88.658 283.614 89.2758 283.814 90.0424C284.02 90.8042 284.002 91.682 283.758 92.6759L281.816 100.782L278.216 100.314L280.007 92.8385C280.2 92.0546 280.144 91.4177 279.837 90.9278C279.536 90.4386 279.019 90.1465 278.286 90.0514C277.796 89.9878 277.338 90.0337 276.911 90.1892C276.49 90.3453 276.126 90.6057 275.818 90.9702C275.517 91.3299 275.298 91.7829 275.161 92.3292ZM288.294 101.87C287.466 101.763 286.761 101.526 286.181 101.16C285.602 100.789 285.19 100.3 284.946 99.6926C284.71 99.0807 284.692 98.3548 284.893 97.5149C285.062 96.8077 285.337 96.2309 285.717 95.7845C286.097 95.3382 286.55 94.9982 287.077 94.7646C287.603 94.531 288.175 94.3772 288.791 94.3034C289.412 94.2302 290.052 94.205 290.709 94.2276C291.482 94.2482 292.108 94.2554 292.586 94.249C293.065 94.2372 293.426 94.1757 293.667 94.0646C293.909 93.9535 294.062 93.7626 294.127 93.4919L294.139 93.4421C294.264 92.9172 294.193 92.4892 293.923 92.1579C293.66 91.8275 293.221 91.6224 292.607 91.5427C291.959 91.4586 291.409 91.5325 290.959 91.7646C290.509 91.9912 290.172 92.3064 289.948 92.7102L286.681 92.0128C287.036 91.2611 287.528 90.6357 288.159 90.1364C288.791 89.6317 289.535 89.2782 290.391 89.0759C291.254 88.8689 292.204 88.8326 293.241 88.9672C293.962 89.0608 294.633 89.2333 295.252 89.4846C295.877 89.7367 296.405 90.07 296.834 90.4847C297.269 90.9001 297.57 91.4007 297.738 91.9865C297.907 92.5667 297.901 93.2354 297.719 93.9923L295.662 102.579L292.248 102.136L292.671 100.37L292.569 100.357C292.266 100.728 291.903 101.043 291.48 101.301C291.06 101.554 290.584 101.735 290.052 101.842C289.522 101.944 288.936 101.954 288.294 101.87ZM289.909 99.5675C290.438 99.6363 290.931 99.5947 291.385 99.443C291.841 99.2856 292.227 99.0452 292.543 98.7215C292.859 98.3979 293.07 98.0123 293.177 97.5647L293.501 96.2137C293.371 96.2709 293.2 96.3171 292.988 96.3523C292.784 96.3827 292.554 96.407 292.3 96.4253C292.047 96.4381 291.795 96.448 291.543 96.4553C291.293 96.457 291.066 96.4589 290.862 96.4609C290.425 96.4668 290.033 96.5156 289.685 96.6073C289.338 96.6989 289.05 96.8467 288.821 97.0506C288.593 97.2489 288.44 97.5139 288.361 97.8454C288.245 98.3261 288.335 98.7166 288.629 99.0168C288.93 99.3123 289.357 99.4958 289.909 99.5675ZM304.032 103.665L308.098 86.6909L311.758 87.1659L310.08 94.1695L317.509 95.1338L319.187 88.1302L322.838 88.6041L318.772 105.578L315.121 105.105L316.8 98.0927L309.371 97.1284L307.691 104.14L304.032 103.665ZM321.722 105.961L324.771 93.2306L328.372 93.6979L325.322 106.429L321.722 105.961ZM326.973 91.8242C326.438 91.7548 326.02 91.5211 325.72 91.1233C325.427 90.7206 325.34 90.2734 325.458 89.7817C325.574 89.2954 325.863 88.9028 326.324 88.6036C326.792 88.2997 327.293 88.1825 327.829 88.252C328.364 88.3215 328.778 88.5575 329.071 88.9602C329.37 89.358 329.462 89.8001 329.346 90.2863C329.228 90.7781 328.935 91.1759 328.467 91.4798C328.006 91.7789 327.508 91.8937 326.973 91.8242ZM332.848 112.601C331.681 112.45 330.719 112.163 329.961 111.74C329.206 111.323 328.648 110.814 328.287 110.215C327.925 109.615 327.751 108.972 327.764 108.284L331.2 108.277C331.24 108.544 331.344 108.803 331.511 109.052C331.677 109.302 331.925 109.516 332.254 109.696C332.587 109.881 333.016 110.008 333.54 110.076C334.323 110.178 335.013 110.074 335.61 109.764C336.212 109.46 336.617 108.872 336.826 107.999L337.384 105.67L337.232 105.65C336.989 105.983 336.673 106.287 336.282 106.561C335.891 106.835 335.423 107.039 334.88 107.174C334.336 107.308 333.721 107.331 333.034 107.242C332.059 107.115 331.224 106.779 330.53 106.233C329.843 105.682 329.372 104.918 329.119 103.939C328.872 102.955 328.918 101.759 329.255 100.35C329.601 98.9081 330.129 97.7346 330.839 96.8298C331.55 95.925 332.36 95.2838 333.269 94.9062C334.185 94.5293 335.118 94.4027 336.071 94.5263C336.798 94.6206 337.377 94.8212 337.809 95.1279C338.242 95.4291 338.565 95.7787 338.778 96.1766C338.997 96.5698 339.148 96.9482 339.229 97.312L339.364 97.3296L339.877 95.1912L343.452 95.6552L340.372 108.51C340.113 109.593 339.625 110.464 338.91 111.124C338.194 111.783 337.314 112.232 336.269 112.473C335.228 112.719 334.087 112.762 332.848 112.601ZM334.81 104.737C335.39 104.813 335.914 104.735 336.382 104.506C336.856 104.271 337.264 103.902 337.605 103.4C337.953 102.892 338.217 102.265 338.396 101.52C338.574 100.774 338.622 100.113 338.539 99.5384C338.457 98.958 338.25 98.4896 337.917 98.133C337.584 97.7765 337.127 97.5605 336.547 97.4852C335.955 97.4084 335.419 97.5012 334.938 97.7635C334.458 98.0202 334.048 98.4114 333.707 98.9369C333.366 99.4623 333.109 100.087 332.936 100.811C332.76 101.546 332.712 102.195 332.792 102.758C332.879 103.316 333.087 103.767 333.417 104.112C333.754 104.452 334.218 104.661 334.81 104.737ZM348.631 101.865L346.868 109.225L343.267 108.758L347.333 91.7835L350.832 92.2377L349.278 98.7274L349.43 98.7471C349.903 98.0337 350.517 97.5067 351.273 97.166C352.03 96.8199 352.901 96.7108 353.887 96.8388C354.789 96.9558 355.528 97.2512 356.106 97.725C356.691 98.194 357.083 98.8118 357.283 99.5784C357.49 100.34 357.471 101.218 357.228 102.212L355.286 110.318L351.685 109.85L353.476 102.374C353.67 101.591 353.613 100.954 353.306 100.464C353.005 99.9746 352.488 99.6825 351.756 99.5874C351.266 99.5238 350.807 99.5697 350.381 99.7252C349.96 99.8813 349.596 100.142 349.288 100.506C348.986 100.866 348.768 101.319 348.631 101.865ZM375.982 100.536C376.075 99.8582 375.909 99.3011 375.485 98.8644C375.061 98.4276 374.409 98.1522 373.53 98.0381C372.933 97.9606 372.409 97.978 371.958 98.0904C371.508 98.1972 371.139 98.38 370.85 98.6389C370.567 98.8984 370.382 99.2105 370.295 99.5752C370.211 99.8776 370.212 100.151 370.299 100.396C370.391 100.642 370.544 100.864 370.758 101.062C370.973 101.256 371.232 101.435 371.536 101.599C371.84 101.758 372.171 101.904 372.529 102.036L373.997 102.602C374.712 102.866 375.352 103.177 375.917 103.535C376.482 103.893 376.947 104.304 377.313 104.768C377.678 105.231 377.922 105.753 378.044 106.332C378.173 106.913 378.155 107.557 377.991 108.265C377.737 109.304 377.25 110.169 376.532 110.862C375.821 111.55 374.914 112.039 373.811 112.329C372.714 112.614 371.461 112.665 370.053 112.482C368.655 112.301 367.489 111.933 366.552 111.379C365.622 110.825 364.965 110.099 364.582 109.2C364.206 108.296 364.15 107.232 364.414 106.008L367.956 106.467C367.859 107.041 367.911 107.538 368.113 107.958C368.321 108.372 368.65 108.708 369.1 108.966C369.556 109.219 370.1 109.386 370.731 109.468C371.351 109.549 371.91 109.53 372.409 109.413C372.913 109.296 373.33 109.096 373.659 108.814C373.988 108.532 374.202 108.187 374.3 107.778C374.391 107.397 374.352 107.061 374.183 106.771C374.02 106.482 373.741 106.218 373.345 105.979C372.955 105.74 372.462 105.505 371.867 105.274L370.093 104.565C368.717 104.028 367.695 103.334 367.027 102.484C366.359 101.634 366.179 100.582 366.485 99.3285C366.725 98.3 367.219 97.4383 367.967 96.7434C368.72 96.0492 369.644 95.551 370.739 95.2487C371.834 94.9464 373.012 94.8772 374.274 95.041C375.559 95.2078 376.629 95.5688 377.483 96.1241C378.344 96.6802 378.949 97.377 379.301 98.2145C379.652 99.052 379.715 99.9774 379.49 100.991L375.982 100.536ZM385.03 114.435C383.7 114.262 382.622 113.837 381.797 113.161C380.978 112.479 380.431 111.61 380.155 110.555C379.885 109.5 379.904 108.329 380.212 107.041C380.525 105.737 381.055 104.627 381.803 103.71C382.559 102.788 383.479 102.112 384.563 101.684C385.649 101.249 386.849 101.117 388.161 101.287C389.294 101.434 390.237 101.765 390.992 102.279C391.746 102.792 392.283 103.446 392.605 104.24C392.926 105.034 392.994 105.926 392.809 106.916L389.411 106.475C389.468 105.827 389.337 105.283 389.018 104.843C388.706 104.398 388.221 104.132 387.561 104.047C387.004 103.974 386.481 104.06 385.992 104.305C385.511 104.544 385.087 104.931 384.721 105.464C384.355 105.998 384.076 106.665 383.884 107.466C383.689 108.279 383.637 108.984 383.726 109.582C383.82 110.181 384.04 110.657 384.386 111.01C384.731 111.362 385.183 111.575 385.741 111.647C386.152 111.701 386.541 111.666 386.908 111.542C387.28 111.42 387.611 111.215 387.9 110.928C388.197 110.636 388.432 110.27 388.607 109.831L392.005 110.272C391.716 111.238 391.24 112.059 390.578 112.736C389.923 113.409 389.123 113.898 388.179 114.203C387.234 114.507 386.185 114.585 385.03 114.435ZM398.556 108.345L396.793 115.705L393.192 115.238L397.258 98.2635L400.757 98.7177L399.203 105.207L399.355 105.227C399.828 104.514 400.442 103.987 401.198 103.646C401.955 103.3 402.826 103.191 403.812 103.319C404.714 103.436 405.453 103.731 406.031 104.205C406.616 104.674 407.008 105.292 407.208 106.058C407.415 106.82 407.396 107.698 407.153 108.692L405.211 116.798L401.61 116.331L403.401 108.854C403.595 108.071 403.538 107.434 403.231 106.944C402.93 106.455 402.413 106.163 401.681 106.067C401.191 106.004 400.732 106.05 400.306 106.205C399.885 106.361 399.521 106.622 399.213 106.986C398.911 107.346 398.692 107.799 398.556 108.345ZM413.85 118.176C412.537 118.005 411.468 117.584 410.641 116.913C409.821 116.237 409.27 115.373 408.987 114.322C408.705 113.266 408.721 112.086 409.033 110.782C409.348 109.467 409.883 108.351 410.637 107.435C411.392 106.513 412.311 105.841 413.394 105.417C414.485 104.989 415.686 104.86 416.999 105.03C418.312 105.201 419.378 105.624 420.198 106.3C421.025 106.972 421.579 107.835 421.861 108.892C422.143 109.943 422.127 111.126 421.812 112.441C421.5 113.745 420.966 114.858 420.211 115.779C419.457 116.696 418.535 117.368 417.445 117.796C416.361 118.219 415.163 118.346 413.85 118.176ZM414.522 115.443C415.12 115.52 415.658 115.419 416.137 115.14C416.618 114.854 417.03 114.435 417.371 113.881C417.719 113.328 417.981 112.681 418.159 111.941C418.336 111.2 418.39 110.526 418.32 109.919C418.257 109.313 418.065 108.815 417.746 108.426C417.426 108.037 416.968 107.804 416.371 107.726C415.768 107.648 415.22 107.751 414.728 108.034C414.242 108.319 413.825 108.738 413.478 109.291C413.136 109.845 412.876 110.492 412.699 111.232C412.521 111.972 412.465 112.646 412.529 113.252C412.598 113.86 412.795 114.358 413.12 114.748C413.452 115.133 413.919 115.364 414.522 115.443ZM428.447 120.07C427.134 119.9 426.064 119.479 425.237 118.807C424.417 118.131 423.866 117.268 423.583 116.217C423.302 115.161 423.317 113.98 423.629 112.676C423.944 111.361 424.479 110.246 425.233 109.329C425.988 108.408 426.908 107.735 427.991 107.312C429.081 106.883 430.283 106.755 431.595 106.925C432.908 107.095 433.975 107.519 434.795 108.195C435.621 108.866 436.176 109.73 436.457 110.786C436.74 111.837 436.724 113.02 436.409 114.335C436.096 115.639 435.562 116.752 434.807 117.674C434.053 118.59 433.131 119.262 432.041 119.691C430.958 120.114 429.759 120.24 428.447 120.07ZM429.119 117.337C429.716 117.415 430.254 117.314 430.734 117.034C431.215 116.749 431.626 116.329 431.968 115.776C432.315 115.222 432.578 114.576 432.755 113.835C432.932 113.095 432.986 112.421 432.917 111.814C432.853 111.207 432.661 110.71 432.342 110.321C432.023 109.932 431.564 109.698 430.967 109.621C430.364 109.543 429.817 109.645 429.325 109.929C428.838 110.213 428.421 110.632 428.074 111.185C427.732 111.739 427.472 112.386 427.295 113.127C427.118 113.867 427.061 114.54 427.125 115.147C427.194 115.754 427.392 116.253 427.717 116.642C428.048 117.027 428.516 117.259 429.119 117.337ZM444.903 104.448L440.837 121.422L437.237 120.955L441.303 103.98L444.903 104.448Z" fill="#320348"/>
<path d="M75.3946 127.134L72.6055 126.772L81.072 113.286L84.2978 113.704L85.9946 128.51L83.2055 128.148L82.0464 116.403L81.9337 116.388L75.3946 127.134ZM76.8147 121.599L84.4214 122.587L83.9283 124.645L76.3217 123.658L76.8147 121.599ZM91.8205 122.856L90.3315 129.072L87.7818 128.742L90.3231 118.133L92.7601 118.449L92.3282 120.252L92.455 120.268C92.8462 119.706 93.356 119.286 93.9845 119.007C94.6177 118.728 95.3381 118.641 96.1457 118.746C96.8923 118.843 97.5051 119.084 97.9842 119.469C98.4679 119.854 98.7913 120.364 98.9542 120.998C99.1218 121.632 99.1018 122.372 98.8941 123.219L97.2761 129.974L94.7264 129.643L96.2519 123.275C96.4217 122.566 96.3668 121.986 96.0871 121.537C95.8121 121.088 95.346 120.821 94.6886 120.736C94.2425 120.678 93.8226 120.723 93.4288 120.872C93.0408 121.016 92.7052 121.255 92.422 121.588C92.1434 121.922 91.9429 122.345 91.8205 122.856ZM103.838 131.018C102.988 130.907 102.279 130.595 101.71 130.079C101.141 129.564 100.759 128.873 100.565 128.008C100.37 127.142 100.413 126.127 100.692 124.962C100.974 123.783 101.409 122.814 101.998 122.055C102.592 121.292 103.277 120.747 104.053 120.42C104.829 120.089 105.633 119.977 106.464 120.085C107.098 120.167 107.594 120.341 107.951 120.606C108.31 120.866 108.574 121.159 108.743 121.485C108.913 121.806 109.033 122.104 109.103 122.379L109.208 122.393L110.476 117.102L113.032 117.434L109.644 131.579L107.137 131.254L107.537 129.582L107.382 129.562C107.189 129.803 106.933 130.052 106.615 130.31C106.297 130.563 105.91 130.765 105.453 130.914C104.996 131.064 104.458 131.098 103.838 131.018ZM105.041 129.059C105.581 129.129 106.075 129.046 106.524 128.81C106.974 128.569 107.359 128.204 107.68 127.713C108 127.223 108.243 126.635 108.407 125.949C108.572 125.263 108.616 124.654 108.54 124.122C108.469 123.59 108.277 123.16 107.964 122.829C107.655 122.5 107.226 122.299 106.677 122.228C106.109 122.154 105.6 122.238 105.15 122.478C104.7 122.719 104.318 123.082 104.003 123.569C103.688 124.055 103.452 124.627 103.294 125.285C103.135 125.949 103.09 126.553 103.157 127.098C103.231 127.639 103.422 128.084 103.731 128.433C104.045 128.778 104.482 128.986 105.041 129.059ZM116.399 126.046L114.91 132.263L112.361 131.932L115.749 117.786L118.242 118.11L116.964 123.449L117.09 123.466C117.487 122.9 117.992 122.479 118.606 122.202C119.225 121.922 119.948 121.835 120.774 121.942C121.525 122.04 122.143 122.279 122.628 122.66C123.113 123.041 123.437 123.549 123.6 124.182C123.767 124.816 123.749 125.562 123.544 126.418L121.925 133.173L119.376 132.842L120.901 126.474C121.072 125.76 121.017 125.181 120.737 124.736C120.462 124.288 119.988 124.02 119.317 123.933C118.866 123.874 118.439 123.918 118.036 124.065C117.639 124.208 117.296 124.447 117.008 124.779C116.725 125.113 116.522 125.535 116.399 126.046ZM124.524 133.511L127.066 122.902L129.538 123.222L129.114 124.991L129.227 125.005C129.571 124.418 130.022 123.99 130.58 123.721C131.145 123.448 131.737 123.351 132.356 123.432C132.497 123.45 132.653 123.477 132.823 123.514C132.999 123.546 133.144 123.581 133.255 123.619L132.704 125.919C132.605 125.869 132.442 125.814 132.213 125.756C131.991 125.694 131.772 125.649 131.556 125.621C131.091 125.561 130.649 125.605 130.231 125.755C129.819 125.901 129.465 126.133 129.171 126.451C128.877 126.769 128.676 127.153 128.568 127.605L127.074 133.841L124.524 133.511ZM135.256 135.124C134.571 135.035 133.982 134.835 133.49 134.525C133.004 134.21 132.658 133.795 132.452 133.279C132.251 132.764 132.234 132.159 132.4 131.463C132.544 130.865 132.775 130.384 133.094 130.022C133.413 129.66 133.796 129.387 134.242 129.203C134.688 129.018 135.169 128.898 135.686 128.842C136.209 128.781 136.74 128.758 137.279 128.771C137.929 128.789 138.457 128.798 138.863 128.798C139.271 128.794 139.577 128.749 139.782 128.661C139.993 128.57 140.127 128.404 140.184 128.165L140.194 128.124C140.319 127.603 140.258 127.18 140.012 126.854C139.765 126.527 139.346 126.326 138.755 126.249C138.13 126.168 137.603 126.237 137.173 126.457C136.747 126.677 136.427 126.961 136.214 127.308L133.912 126.667C134.255 126.047 134.694 125.549 135.229 125.172C135.766 124.79 136.373 124.532 137.049 124.397C137.726 124.257 138.443 124.236 139.199 124.334C139.72 124.402 140.225 124.529 140.713 124.716C141.2 124.902 141.625 125.162 141.986 125.493C142.348 125.82 142.602 126.236 142.748 126.739C142.898 127.243 142.889 127.847 142.72 128.551L141.02 135.651L138.569 135.333L138.918 133.876L138.833 133.865C138.608 134.14 138.323 134.388 137.98 134.609C137.642 134.826 137.243 134.986 136.783 135.087C136.329 135.185 135.82 135.197 135.256 135.124ZM136.358 133.373C136.87 133.439 137.338 133.398 137.761 133.249C138.185 133.095 138.538 132.865 138.819 132.56C139.105 132.255 139.295 131.907 139.389 131.516L139.688 130.266C139.593 130.32 139.442 130.362 139.237 130.392C139.035 130.423 138.813 130.444 138.568 130.455C138.323 130.466 138.082 130.473 137.844 130.475C137.606 130.477 137.4 130.479 137.226 130.48C136.833 130.481 136.473 130.52 136.145 130.596C135.817 130.672 135.541 130.803 135.318 130.987C135.095 131.167 134.946 131.419 134.868 131.741C134.758 132.201 134.846 132.571 135.133 132.851C135.419 133.13 135.828 133.304 136.358 133.373ZM148.616 136.637L152.004 122.492L157.413 123.194C158.521 123.338 159.402 123.661 160.057 124.164C160.716 124.667 161.153 125.299 161.368 126.058C161.589 126.813 161.592 127.639 161.377 128.537C161.159 129.444 160.771 130.225 160.213 130.879C159.655 131.533 158.946 132.013 158.089 132.319C157.232 132.621 156.247 132.7 155.135 132.555L151.55 132.09L152.054 129.983L155.287 130.403C155.935 130.487 156.492 130.446 156.958 130.278C157.424 130.111 157.802 129.846 158.092 129.485C158.387 129.125 158.594 128.693 158.714 128.192C158.835 127.69 158.839 127.235 158.729 126.826C158.623 126.418 158.387 126.081 158.02 125.815C157.659 125.545 157.152 125.368 156.499 125.283L154.104 124.972L151.229 136.977L148.616 136.637ZM161.267 138.28L163.808 127.671L166.28 127.991L165.857 129.76L165.97 129.774C166.313 129.187 166.765 128.759 167.323 128.49C167.887 128.217 168.479 128.12 169.099 128.201C169.24 128.219 169.395 128.246 169.566 128.283C169.742 128.315 169.886 128.35 169.998 128.388L169.447 130.688C169.348 130.638 169.184 130.583 168.956 130.525C168.734 130.463 168.514 130.418 168.299 130.39C167.834 130.33 167.392 130.374 166.974 130.524C166.561 130.67 166.208 130.902 165.914 131.22C165.62 131.538 165.419 131.922 165.311 132.374L163.817 138.61L161.267 138.28ZM171.999 139.893C171.313 139.804 170.725 139.604 170.233 139.294C169.746 138.979 169.4 138.564 169.195 138.048C168.994 137.533 168.976 136.928 169.143 136.232C169.286 135.634 169.518 135.153 169.837 134.791C170.156 134.429 170.538 134.156 170.984 133.972C171.43 133.787 171.912 133.667 172.429 133.611C172.952 133.55 173.483 133.527 174.022 133.54C174.671 133.558 175.199 133.567 175.606 133.567C176.013 133.563 176.32 133.518 176.524 133.43C176.735 133.339 176.869 133.173 176.927 132.934L176.936 132.893C177.061 132.372 177 131.949 176.754 131.623C176.508 131.296 176.089 131.095 175.497 131.018C174.873 130.937 174.346 131.006 173.915 131.226C173.49 131.446 173.17 131.73 172.956 132.077L170.655 131.436C170.997 130.816 171.436 130.318 171.972 129.941C172.509 129.559 173.115 129.301 173.791 129.166C174.469 129.026 175.186 129.005 175.942 129.103C176.463 129.171 176.967 129.298 177.455 129.485C177.943 129.671 178.367 129.931 178.728 130.262C179.091 130.589 179.345 131.005 179.49 131.508C179.641 132.012 179.632 132.616 179.463 133.32L177.762 140.421L175.311 140.102L175.66 138.645L175.576 138.634C175.35 138.909 175.066 139.157 174.722 139.378C174.384 139.595 173.986 139.755 173.525 139.856C173.071 139.954 172.562 139.966 171.999 139.893ZM173.101 138.142C173.613 138.208 174.08 138.167 174.503 138.018C174.927 137.864 175.28 137.634 175.562 137.329C175.848 137.024 176.037 136.676 176.131 136.285L176.431 135.035C176.335 135.089 176.185 135.131 175.979 135.161C175.778 135.192 175.555 135.213 175.31 135.224C175.066 135.235 174.825 135.242 174.587 135.244C174.349 135.246 174.143 135.248 173.968 135.249C173.576 135.25 173.215 135.289 172.887 135.365C172.559 135.441 172.284 135.572 172.06 135.756C171.838 135.936 171.688 136.188 171.611 136.51C171.501 136.97 171.589 137.34 171.875 137.62C172.162 137.899 172.57 138.073 173.101 138.142ZM184.296 141.461C183.446 141.351 182.737 141.038 182.168 140.522C181.599 140.007 181.217 139.316 181.023 138.451C180.828 137.585 180.87 136.57 181.149 135.405C181.432 134.226 181.867 133.257 182.456 132.498C183.05 131.735 183.735 131.19 184.51 130.863C185.287 130.532 186.091 130.42 186.922 130.528C187.556 130.61 188.052 130.784 188.409 131.049C188.768 131.309 189.032 131.602 189.201 131.928C189.371 132.249 189.491 132.547 189.561 132.822L189.666 132.836L190.934 127.545L193.49 127.877L190.102 142.022L187.594 141.697L187.995 140.025L187.84 140.005C187.647 140.246 187.391 140.495 187.072 140.753C186.755 141.006 186.368 141.208 185.911 141.357C185.454 141.507 184.916 141.541 184.296 141.461ZM185.499 139.502C186.039 139.572 186.533 139.489 186.982 139.253C187.431 139.012 187.817 138.647 188.137 138.157C188.458 137.666 188.701 137.078 188.865 136.392C189.029 135.706 189.074 135.097 188.998 134.565C188.927 134.033 188.734 133.603 188.421 133.272C188.113 132.943 187.684 132.742 187.135 132.671C186.567 132.597 186.058 132.681 185.608 132.921C185.158 133.162 184.776 133.526 184.461 134.012C184.146 134.498 183.909 135.07 183.752 135.729C183.593 136.392 183.547 136.996 183.615 137.541C183.689 138.082 183.88 138.527 184.189 138.876C184.503 139.221 184.94 139.429 185.499 139.502ZM197.558 143.204C196.474 143.063 195.59 142.72 194.907 142.176C194.23 141.627 193.778 140.918 193.55 140.048C193.324 139.174 193.344 138.182 193.61 137.072C193.871 135.981 194.312 135.051 194.932 134.281C195.558 133.508 196.308 132.941 197.184 132.579C198.061 132.214 199.016 132.098 200.049 132.232C200.715 132.318 201.319 132.506 201.86 132.795C202.407 133.079 202.855 133.47 203.206 133.966C203.562 134.464 203.79 135.068 203.89 135.779C203.992 136.485 203.932 137.303 203.709 138.233L203.525 139L194.658 137.849L195.062 136.164L201.485 136.998C201.595 136.518 201.592 136.078 201.474 135.679C201.358 135.274 201.141 134.94 200.821 134.675C200.507 134.411 200.106 134.248 199.617 134.184C199.096 134.117 198.609 134.182 198.155 134.379C197.702 134.572 197.317 134.854 197 135.226C196.689 135.594 196.475 136.015 196.357 136.489L196.004 137.96C195.856 138.577 195.845 139.121 195.969 139.593C196.094 140.06 196.335 140.438 196.692 140.727C197.05 141.011 197.506 141.189 198.06 141.26C198.431 141.309 198.779 141.302 199.104 141.239C199.43 141.172 199.727 141.052 199.996 140.878C200.266 140.704 200.492 140.475 200.677 140.19L202.995 140.761C202.697 141.359 202.281 141.861 201.748 142.266C201.221 142.668 200.601 142.953 199.888 143.121C199.175 143.285 198.399 143.313 197.558 143.204ZM214.996 137.206L212.612 137.153C212.601 136.914 212.538 136.683 212.422 136.459C212.311 136.235 212.134 136.044 211.892 135.884C211.649 135.725 211.331 135.619 210.936 135.568C210.406 135.499 209.933 135.554 209.517 135.733C209.106 135.912 208.86 136.182 208.779 136.541C208.7 136.849 208.755 137.115 208.943 137.339C209.136 137.563 209.493 137.773 210.012 137.969L211.765 138.595C212.737 138.945 213.415 139.386 213.801 139.921C214.19 140.456 214.297 141.103 214.12 141.864C213.955 142.531 213.614 143.094 213.097 143.554C212.586 144.01 211.949 144.336 211.186 144.531C210.422 144.726 209.59 144.765 208.688 144.648C207.364 144.476 206.364 144.066 205.686 143.418C205.01 142.765 204.711 141.941 204.79 140.945L207.332 141.032C207.33 141.526 207.483 141.919 207.791 142.21C208.099 142.502 208.546 142.686 209.133 142.762C209.739 142.84 210.254 142.781 210.679 142.585C211.108 142.389 211.366 142.111 211.452 141.752C211.525 141.448 211.465 141.182 211.273 140.953C211.086 140.724 210.756 140.525 210.283 140.354L208.529 139.735C207.542 139.389 206.86 138.932 206.482 138.366C206.106 137.794 206.013 137.122 206.203 136.349C206.355 135.695 206.671 135.152 207.152 134.721C207.639 134.285 208.242 133.979 208.963 133.802C209.689 133.621 210.484 133.586 211.348 133.698C212.615 133.863 213.55 134.257 214.151 134.881C214.756 135.506 215.038 136.281 214.996 137.206ZM219.5 139.428L218.01 145.645L215.461 145.314L218.849 131.168L221.343 131.492L220.064 136.831L220.19 136.847C220.587 136.282 221.092 135.861 221.706 135.584C222.325 135.304 223.048 135.217 223.874 135.324C224.625 135.422 225.243 135.661 225.728 136.042C226.213 136.423 226.537 136.931 226.7 137.564C226.868 138.198 226.849 138.944 226.644 139.8L225.025 146.555L222.476 146.224L224.001 139.856C224.172 139.142 224.117 138.563 223.837 138.118C223.562 137.67 223.088 137.402 222.417 137.314C221.966 137.256 221.539 137.3 221.136 137.447C220.739 137.59 220.396 137.828 220.108 138.161C219.825 138.495 219.622 138.917 219.5 139.428ZM242.953 138.306C243.032 137.695 242.867 137.189 242.459 136.789C242.056 136.391 241.467 136.141 240.692 136.04C240.148 135.97 239.661 135.989 239.233 136.1C238.805 136.211 238.454 136.391 238.181 136.64C237.908 136.89 237.727 137.191 237.638 137.545C237.567 137.84 237.574 138.104 237.658 138.338C237.747 138.573 237.893 138.782 238.096 138.965C238.301 139.143 238.536 139.302 238.803 139.441C239.07 139.58 239.343 139.704 239.622 139.811L240.895 140.318C241.41 140.513 241.893 140.749 242.345 141.026C242.801 141.304 243.19 141.63 243.512 142.004C243.839 142.379 244.065 142.809 244.191 143.295C244.316 143.782 244.306 144.331 244.159 144.944C243.96 145.772 243.569 146.474 242.986 147.049C242.404 147.619 241.662 148.028 240.76 148.277C239.864 148.521 238.839 148.569 237.684 148.419C236.561 148.273 235.628 147.976 234.883 147.528C234.143 147.081 233.619 146.5 233.311 145.786C233.007 145.072 232.949 144.243 233.137 143.299L235.707 143.633C235.627 144.13 235.684 144.56 235.878 144.923C236.072 145.285 236.368 145.575 236.766 145.793C237.169 146.011 237.642 146.156 238.187 146.227C238.755 146.3 239.273 146.282 239.74 146.172C240.212 146.057 240.607 145.866 240.923 145.599C241.24 145.327 241.449 144.988 241.551 144.584C241.634 144.215 241.597 143.896 241.438 143.629C241.281 143.357 241.026 143.115 240.675 142.903C240.33 142.688 239.914 142.482 239.429 142.286L237.887 141.658C236.771 141.205 235.94 140.629 235.396 139.932C234.857 139.231 234.709 138.373 234.951 137.36C235.151 136.527 235.556 135.827 236.166 135.26C236.781 134.695 237.529 134.291 238.41 134.049C239.292 133.803 240.238 133.745 241.247 133.876C242.271 134.009 243.126 134.3 243.812 134.75C244.504 135.196 244.997 135.756 245.29 136.43C245.585 137.1 245.644 137.834 245.467 138.633L242.953 138.306ZM250.164 150.032C249.079 149.891 248.196 149.548 247.513 149.004C246.836 148.455 246.383 147.746 246.156 146.876C245.93 146.002 245.949 145.01 246.215 143.9C246.477 142.809 246.917 141.878 247.537 141.109C248.163 140.336 248.914 139.768 249.79 139.407C250.666 139.042 251.621 138.926 252.654 139.06C253.321 139.146 253.925 139.334 254.466 139.623C255.012 139.907 255.461 140.298 255.812 140.794C256.167 141.291 256.395 141.896 256.496 142.607C256.598 143.313 256.538 144.131 256.315 145.061L256.131 145.828L247.264 144.677L247.667 142.992L254.091 143.826C254.201 143.346 254.197 142.906 254.08 142.507C253.964 142.102 253.746 141.768 253.427 141.503C253.113 141.239 252.711 141.076 252.223 141.012C251.702 140.945 251.214 141.009 250.76 141.207C250.307 141.4 249.923 141.682 249.606 142.054C249.295 142.422 249.08 142.843 248.962 143.317L248.61 144.788C248.462 145.405 248.45 145.949 248.574 146.421C248.7 146.888 248.941 147.266 249.298 147.555C249.656 147.839 250.112 148.016 250.666 148.088C251.037 148.137 251.385 148.129 251.709 148.067C252.035 148 252.333 147.88 252.602 147.706C252.871 147.532 253.098 147.303 253.282 147.018L255.6 147.589C255.302 148.187 254.887 148.688 254.354 149.094C253.827 149.496 253.206 149.781 252.493 149.949C251.781 150.113 251.005 150.141 250.164 150.032ZM261.85 151.548C260.771 151.408 259.899 151.055 259.236 150.49C258.577 149.925 258.137 149.205 257.915 148.331C257.699 147.454 257.72 146.478 257.977 145.405C258.235 144.328 258.674 143.404 259.294 142.635C259.915 141.861 260.666 141.294 261.546 140.933C262.433 140.569 263.404 140.455 264.46 140.592C265.338 140.706 266.078 140.966 266.678 141.371C267.283 141.773 267.719 142.288 267.985 142.916C268.252 143.539 268.322 144.237 268.196 145.008L265.759 144.692C265.783 144.168 265.65 143.712 265.36 143.323C265.077 142.93 264.628 142.693 264.013 142.614C263.491 142.546 263 142.625 262.54 142.85C262.08 143.07 261.679 143.422 261.336 143.904C260.997 144.387 260.743 144.986 260.572 145.699C260.399 146.422 260.358 147.058 260.449 147.606C260.542 148.15 260.749 148.588 261.071 148.919C261.4 149.247 261.829 149.445 262.36 149.514C262.735 149.562 263.088 149.537 263.417 149.437C263.751 149.333 264.052 149.161 264.317 148.92C264.583 148.679 264.8 148.373 264.966 148L267.403 148.317C267.162 149.059 266.778 149.695 266.249 150.225C265.721 150.75 265.083 151.132 264.333 151.372C263.584 151.607 262.757 151.666 261.85 151.548ZM273.297 153.034C272.241 152.897 271.38 152.55 270.714 151.994C270.049 151.437 269.601 150.722 269.37 149.847C269.143 148.972 269.161 147.987 269.424 146.891C269.687 145.795 270.128 144.863 270.748 144.093C271.373 143.324 272.127 142.762 273.011 142.407C273.895 142.052 274.865 141.943 275.921 142.08C276.978 142.217 277.839 142.564 278.505 143.12C279.17 143.677 279.615 144.394 279.841 145.273C280.07 146.153 280.054 147.141 279.792 148.237C279.529 149.333 279.086 150.263 278.462 151.027C277.843 151.792 277.092 152.352 276.208 152.707C275.324 153.062 274.354 153.171 273.297 153.034ZM273.791 151.033C274.364 151.107 274.88 151.015 275.339 150.757C275.799 150.494 276.186 150.112 276.499 149.611C276.818 149.111 277.054 148.539 277.208 147.894C277.364 147.245 277.408 146.646 277.342 146.096C277.281 145.542 277.095 145.083 276.785 144.72C276.475 144.357 276.034 144.138 275.461 144.064C274.874 143.988 274.348 144.081 273.883 144.343C273.423 144.607 273.033 144.99 272.714 145.495C272.401 145.996 272.166 146.57 272.011 147.22C271.856 147.864 271.81 148.461 271.872 149.011C271.939 149.56 272.127 150.017 272.437 150.38C272.753 150.739 273.204 150.957 273.791 151.033ZM284.734 147.895L283.245 154.112L280.695 153.781L283.236 143.172L285.673 143.488L285.241 145.291L285.368 145.307C285.759 144.745 286.269 144.325 286.898 144.046C287.531 143.767 288.251 143.68 289.059 143.785C289.805 143.882 290.418 144.123 290.897 144.508C291.381 144.894 291.704 145.403 291.867 146.037C292.035 146.671 292.015 147.411 291.807 148.258L290.189 155.013L287.639 154.682L289.165 148.314C289.335 147.605 289.28 147.026 289 146.576C288.725 146.127 288.259 145.86 287.602 145.775C287.156 145.717 286.736 145.762 286.342 145.911C285.954 146.055 285.618 146.294 285.335 146.627C285.056 146.962 284.856 147.384 284.734 147.895ZM296.751 156.057C295.901 155.947 295.192 155.634 294.623 155.118C294.054 154.603 293.672 153.913 293.478 153.047C293.283 152.181 293.326 151.166 293.605 150.001C293.887 148.822 294.322 147.853 294.911 147.094C295.505 146.331 296.19 145.786 296.966 145.459C297.742 145.128 298.546 145.016 299.377 145.124C300.011 145.207 300.507 145.38 300.865 145.645C301.223 145.905 301.487 146.198 301.656 146.524C301.826 146.845 301.946 147.143 302.016 147.418L302.121 147.432L303.389 142.141L305.945 142.473L302.557 156.618L300.05 156.293L300.45 154.621L300.295 154.601C300.102 154.842 299.846 155.091 299.528 155.349C299.21 155.602 298.823 155.804 298.366 155.953C297.909 156.103 297.371 156.137 296.751 156.057ZM297.954 154.098C298.494 154.168 298.988 154.085 299.437 153.849C299.887 153.608 300.272 153.243 300.593 152.753C300.913 152.263 301.156 151.674 301.32 150.988C301.485 150.302 301.529 149.693 301.453 149.161C301.382 148.63 301.19 148.199 300.877 147.868C300.568 147.539 300.139 147.338 299.59 147.267C299.022 147.193 298.513 147.277 298.063 147.518C297.613 147.758 297.231 148.122 296.916 148.608C296.601 149.094 296.365 149.666 296.207 150.325C296.048 150.988 296.003 151.592 296.07 152.137C296.144 152.678 296.335 153.123 296.644 153.472C296.958 153.817 297.395 154.025 297.954 154.098ZM308.336 157.589C307.65 157.5 307.061 157.3 306.569 156.989C306.083 156.675 305.737 156.26 305.532 155.744C305.331 155.229 305.313 154.624 305.48 153.928C305.623 153.33 305.854 152.849 306.174 152.487C306.493 152.125 306.875 151.852 307.321 151.668C307.767 151.483 308.249 151.363 308.766 151.307C309.289 151.246 309.82 151.223 310.359 151.236C311.008 151.253 311.536 151.263 311.942 151.263C312.35 151.259 312.656 151.213 312.861 151.126C313.072 151.035 313.206 150.869 313.263 150.63L313.273 150.588C313.398 150.068 313.337 149.645 313.091 149.318C312.845 148.992 312.426 148.791 311.834 148.714C311.21 148.633 310.682 148.702 310.252 148.922C309.827 149.142 309.507 149.425 309.293 149.773L306.992 149.132C307.334 148.512 307.773 148.013 308.309 147.637C308.845 147.255 309.452 146.997 310.128 146.862C310.806 146.722 311.522 146.701 312.278 146.799C312.8 146.866 313.304 146.994 313.792 147.18C314.28 147.367 314.704 147.626 315.065 147.958C315.428 148.285 315.682 148.7 315.827 149.204C315.978 149.707 315.969 150.312 315.8 151.016L314.099 158.116L311.648 157.798L311.997 156.341L311.913 156.33C311.687 156.604 311.402 156.852 311.059 157.074C310.721 157.291 310.322 157.45 309.862 157.552C309.408 157.65 308.899 157.662 308.336 157.589ZM309.438 155.838C309.95 155.904 310.417 155.863 310.84 155.714C311.264 155.56 311.617 155.33 311.898 155.025C312.184 154.72 312.374 154.372 312.468 153.981L312.767 152.73C312.672 152.785 312.522 152.827 312.316 152.857C312.115 152.888 311.892 152.909 311.647 152.92C311.403 152.931 311.161 152.937 310.924 152.94C310.686 152.942 310.48 152.944 310.305 152.945C309.913 152.946 309.552 152.985 309.224 153.061C308.896 153.137 308.62 153.268 308.397 153.452C308.175 153.632 308.025 153.883 307.948 154.206C307.838 154.666 307.926 155.036 308.212 155.315C308.499 155.595 308.907 155.769 309.438 155.838ZM316.663 158.449L319.204 147.84L321.676 148.161L321.253 149.929L321.365 149.944C321.709 149.357 322.16 148.929 322.719 148.66C323.283 148.386 323.875 148.29 324.495 148.37C324.635 148.388 324.791 148.416 324.962 148.452C325.138 148.485 325.282 148.52 325.394 148.558L324.843 150.858C324.744 150.807 324.58 150.753 324.352 150.695C324.129 150.633 323.91 150.587 323.694 150.559C323.229 150.499 322.788 150.544 322.369 150.694C321.957 150.84 321.604 151.071 321.31 151.389C321.016 151.707 320.814 152.092 320.706 152.543L319.212 158.78L316.663 158.449ZM325.487 163.697C325.14 163.651 324.825 163.582 324.542 163.488C324.263 163.4 324.045 163.31 323.888 163.218L324.946 161.347C325.292 161.501 325.611 161.595 325.903 161.628C326.195 161.661 326.473 161.605 326.735 161.459C327.001 161.317 327.26 161.057 327.511 160.676L327.867 160.131L326.538 148.792L329.242 149.143L329.816 157.479L329.929 157.493L334.349 149.806L337.06 150.158L329.88 161.489C329.543 162.025 329.16 162.471 328.731 162.829C328.301 163.19 327.818 163.446 327.284 163.595C326.753 163.749 326.154 163.783 325.487 163.697ZM351.612 152.41C351.69 151.798 351.526 151.292 351.118 150.893C350.715 150.494 350.126 150.244 349.351 150.144C348.807 150.073 348.32 150.093 347.892 150.203C347.463 150.314 347.113 150.494 346.84 150.743C346.567 150.993 346.386 151.295 346.296 151.649C346.226 151.943 346.233 152.208 346.317 152.442C346.406 152.676 346.552 152.885 346.755 153.068C346.959 153.247 347.195 153.406 347.462 153.545C347.729 153.684 348.002 153.807 348.281 153.914L349.554 154.422C350.069 154.617 350.552 154.853 351.004 155.13C351.46 155.407 351.849 155.733 352.171 156.107C352.498 156.482 352.724 156.912 352.849 157.399C352.975 157.885 352.964 158.435 352.818 159.047C352.619 159.876 352.228 160.578 351.645 161.152C351.063 161.722 350.321 162.132 349.419 162.38C348.523 162.625 347.498 162.672 346.343 162.522C345.22 162.377 344.287 162.08 343.542 161.632C342.802 161.184 342.278 160.603 341.97 159.889C341.666 159.176 341.608 158.347 341.795 157.403L344.366 157.736C344.286 158.234 344.343 158.664 344.537 159.026C344.731 159.388 345.027 159.678 345.425 159.896C345.827 160.115 346.301 160.259 346.846 160.33C347.414 160.404 347.932 160.385 348.399 160.275C348.871 160.161 349.266 159.97 349.582 159.702C349.899 159.43 350.108 159.092 350.21 158.687C350.293 158.318 350.256 158 350.097 157.732C349.939 157.46 349.685 157.218 349.334 157.007C348.989 156.791 348.573 156.585 348.088 156.389L346.546 155.762C345.43 155.308 344.599 154.733 344.054 154.035C343.516 153.334 343.368 152.477 343.61 151.464C343.81 150.63 344.215 149.93 344.825 149.364C345.44 148.798 346.188 148.394 347.069 148.152C347.951 147.906 348.896 147.848 349.906 147.979C350.93 148.112 351.785 148.404 352.471 148.854C353.163 149.299 353.656 149.86 353.949 150.534C354.244 151.204 354.303 151.938 354.126 152.736L351.612 152.41ZM358.753 164.126C357.673 163.986 356.801 163.633 356.138 163.067C355.479 162.502 355.039 161.783 354.817 160.909C354.601 160.031 354.622 159.056 354.879 157.983C355.137 156.905 355.576 155.982 356.196 155.212C356.817 154.438 357.568 153.871 358.448 153.511C359.335 153.146 360.306 153.033 361.362 153.17C362.24 153.284 362.98 153.543 363.58 153.949C364.185 154.35 364.621 154.865 364.887 155.493C365.154 156.116 365.224 156.814 365.098 157.586L362.661 157.269C362.685 156.745 362.552 156.289 362.262 155.9C361.979 155.507 361.53 155.271 360.915 155.191C360.393 155.123 359.902 155.202 359.442 155.427C358.982 155.648 358.581 155.999 358.238 156.482C357.9 156.965 357.645 157.563 357.474 158.277C357.301 159 357.26 159.635 357.351 160.184C357.444 160.727 357.651 161.165 357.973 161.497C358.302 161.824 358.731 162.022 359.262 162.091C359.637 162.14 359.99 162.114 360.319 162.015C360.653 161.911 360.954 161.739 361.219 161.498C361.485 161.257 361.702 160.95 361.868 160.578L364.305 160.894C364.064 161.637 363.68 162.273 363.151 162.802C362.623 163.327 361.985 163.71 361.235 163.949C360.486 164.185 359.659 164.243 358.753 164.126ZM369.569 158.907L368.08 165.123L365.53 164.792L368.919 150.647L371.412 150.97L370.133 156.309L370.26 156.326C370.657 155.76 371.162 155.339 371.775 155.062C372.394 154.782 373.117 154.695 373.943 154.803C374.695 154.9 375.313 155.139 375.798 155.52C376.282 155.901 376.606 156.409 376.769 157.042C376.937 157.677 376.918 158.422 376.713 159.278L375.095 166.033L372.545 165.702L374.071 159.334C374.242 158.621 374.187 158.041 373.906 157.597C373.631 157.148 373.158 156.88 372.486 156.793C372.035 156.734 371.609 156.778 371.205 156.926C370.808 157.069 370.465 157.307 370.177 157.64C369.894 157.973 369.691 158.395 369.569 158.907ZM382.363 167.19C381.307 167.053 380.446 166.706 379.78 166.15C379.114 165.594 378.666 164.878 378.435 164.003C378.209 163.128 378.227 162.143 378.49 161.047C378.752 159.951 379.193 159.019 379.813 158.249C380.438 157.481 381.192 156.919 382.076 156.563C382.96 156.208 383.931 156.099 384.987 156.236C386.044 156.373 386.905 156.72 387.57 157.276C388.236 157.833 388.681 158.55 388.906 159.43C389.136 160.309 389.12 161.297 388.857 162.393C388.595 163.489 388.152 164.419 387.528 165.183C386.909 165.948 386.158 166.508 385.274 166.863C384.39 167.218 383.42 167.327 382.363 167.19ZM382.857 165.189C383.43 165.264 383.946 165.171 384.405 164.913C384.865 164.65 385.251 164.268 385.565 163.767C385.883 163.267 386.12 162.695 386.274 162.051C386.43 161.401 386.474 160.802 386.407 160.252C386.346 159.698 386.161 159.239 385.851 158.876C385.541 158.513 385.099 158.294 384.526 158.22C383.939 158.144 383.414 158.237 382.949 158.5C382.489 158.763 382.099 159.147 381.78 159.651C381.466 160.152 381.232 160.727 381.076 161.376C380.922 162.02 380.876 162.617 380.938 163.167C381.004 163.717 381.193 164.173 381.503 164.536C381.819 164.895 382.27 165.113 382.857 165.189ZM394.43 168.757C393.373 168.619 392.512 168.273 391.847 167.716C391.181 167.16 390.733 166.444 390.502 165.569C390.276 164.695 390.294 163.709 390.556 162.613C390.819 161.518 391.26 160.585 391.88 159.816C392.505 159.047 393.259 158.485 394.143 158.129C395.027 157.774 395.997 157.665 397.054 157.802C398.11 157.939 398.971 158.286 399.637 158.843C400.302 159.399 400.748 160.117 400.973 160.996C401.203 161.875 401.186 162.863 400.924 163.959C400.661 165.055 400.218 165.985 399.595 166.749C398.976 167.514 398.224 168.074 397.34 168.429C396.457 168.785 395.486 168.894 394.43 168.757ZM394.924 166.755C395.497 166.83 396.012 166.738 396.471 166.479C396.931 166.216 397.318 165.834 397.632 165.334C397.95 164.834 398.186 164.261 398.341 163.617C398.496 162.967 398.541 162.368 398.474 161.818C398.413 161.264 398.227 160.806 397.917 160.442C397.607 160.079 397.166 159.861 396.593 159.786C396.006 159.71 395.48 159.803 395.016 160.066C394.556 160.329 394.166 160.713 393.847 161.217C393.533 161.718 393.298 162.293 393.143 162.942C392.988 163.587 392.942 164.184 393.004 164.733C393.071 165.283 393.26 165.739 393.57 166.102C393.885 166.462 394.337 166.679 394.924 166.755ZM407.765 155.689L404.377 169.834L401.827 169.503L405.216 155.358L407.765 155.689ZM426.623 163.057L423.989 162.715C424.015 162.282 423.967 161.889 423.843 161.536C423.72 161.178 423.536 160.864 423.291 160.595C423.046 160.326 422.744 160.109 422.387 159.944C422.035 159.775 421.639 159.661 421.197 159.604C420.413 159.502 419.672 159.606 418.974 159.914C418.276 160.217 417.668 160.718 417.147 161.414C416.628 162.107 416.241 162.985 415.986 164.048C415.727 165.13 415.68 166.064 415.845 166.85C416.016 167.632 416.357 168.251 416.867 168.706C417.384 169.158 418.032 169.434 418.811 169.535C419.243 169.591 419.66 169.589 420.062 169.527C420.47 169.461 420.851 169.337 421.204 169.155C421.563 168.974 421.883 168.735 422.167 168.44C422.456 168.145 422.69 167.795 422.869 167.391L425.5 167.747C425.24 168.407 424.875 169.01 424.405 169.556C423.94 170.104 423.391 170.569 422.757 170.952C422.124 171.33 421.425 171.6 420.66 171.762C419.896 171.919 419.084 171.942 418.225 171.831C416.957 171.666 415.895 171.232 415.037 170.527C414.179 169.822 413.594 168.889 413.282 167.728C412.969 166.567 412.995 165.227 413.359 163.707C413.724 162.183 414.325 160.918 415.162 159.91C416 158.899 416.985 158.17 418.119 157.723C419.252 157.277 420.448 157.135 421.706 157.299C422.509 157.403 423.229 157.61 423.866 157.921C424.504 158.232 425.041 158.636 425.478 159.134C425.917 159.628 426.236 160.206 426.436 160.868C426.641 161.526 426.704 162.256 426.623 163.057ZM431.398 173.555C430.313 173.414 429.429 173.071 428.746 172.527C428.069 171.979 427.617 171.269 427.39 170.4C427.163 169.525 427.183 168.533 427.449 167.423C427.71 166.332 428.151 165.402 428.771 164.632C429.397 163.859 430.148 163.292 431.023 162.931C431.9 162.565 432.855 162.449 433.888 162.583C434.555 162.67 435.159 162.857 435.699 163.146C436.246 163.43 436.695 163.821 437.045 164.318C437.401 164.815 437.629 165.419 437.73 166.13C437.832 166.836 437.771 167.654 437.548 168.585L437.365 169.351L428.497 168.2L428.901 166.515L435.324 167.349C435.434 166.869 435.431 166.43 435.314 166.03C435.197 165.625 434.98 165.291 434.661 165.026C434.346 164.762 433.945 164.599 433.457 164.535C432.935 164.468 432.448 164.533 431.994 164.73C431.541 164.923 431.156 165.205 430.84 165.577C430.529 165.945 430.314 166.366 430.196 166.84L429.843 168.311C429.696 168.928 429.684 169.472 429.808 169.944C429.933 170.412 430.174 170.79 430.531 171.078C430.889 171.362 431.345 171.54 431.9 171.612C432.27 171.66 432.618 171.653 432.943 171.59C433.269 171.524 433.567 171.403 433.836 171.229C434.105 171.055 434.332 170.826 434.516 170.541L436.834 171.113C436.536 171.71 436.12 172.212 435.587 172.617C435.06 173.019 434.44 173.304 433.727 173.473C433.015 173.636 432.238 173.664 431.398 173.555ZM438.415 174.252L440.956 163.643L443.428 163.964L443.005 165.732L443.117 165.747C443.461 165.16 443.913 164.732 444.471 164.462C445.035 164.189 445.627 164.093 446.247 164.173C446.388 164.191 446.543 164.219 446.714 164.255C446.89 164.287 447.034 164.323 447.146 164.361L446.595 166.661C446.496 166.61 446.332 166.556 446.104 166.497C445.882 166.435 445.662 166.39 445.446 166.362C444.982 166.302 444.54 166.347 444.122 166.497C443.709 166.642 443.356 166.874 443.062 167.192C442.768 167.51 442.567 167.895 442.459 168.346L440.965 174.583L438.415 174.252ZM454.803 165.44L454.34 167.374L448.121 166.567L448.584 164.633L454.803 165.44ZM450.728 162.291L453.278 162.622L450.892 172.581C450.812 172.917 450.801 173.182 450.862 173.375C450.928 173.564 451.04 173.702 451.198 173.789C451.357 173.876 451.541 173.933 451.753 173.961C451.912 173.981 452.061 173.989 452.198 173.983C452.339 173.977 452.448 173.97 452.522 173.961L452.484 175.971C452.337 176 452.13 176.025 451.863 176.047C451.601 176.07 451.288 176.063 450.924 176.025C450.281 175.961 449.728 175.792 449.266 175.518C448.805 175.24 448.477 174.86 448.283 174.379C448.093 173.899 448.08 173.327 448.243 172.665L450.728 162.291ZM454.394 176.326L456.935 165.717L459.485 166.048L456.944 176.657L454.394 176.326ZM458.578 164.378C458.174 164.325 457.858 164.149 457.63 163.849C457.403 163.544 457.334 163.205 457.423 162.832C457.514 162.454 457.736 162.153 458.09 161.929C458.445 161.699 458.824 161.611 459.228 161.663C459.637 161.716 459.952 161.895 460.175 162.199C460.403 162.499 460.472 162.838 460.381 163.216C460.292 163.589 460.07 163.89 459.715 164.119C459.365 164.345 458.986 164.431 458.578 164.378ZM467.586 167.099L467.123 169.033L460.728 168.203L461.191 166.269L467.586 167.099ZM460.249 177.086L463.03 165.475C463.201 164.762 463.493 164.187 463.908 163.752C464.326 163.317 464.82 163.016 465.388 162.847C465.956 162.679 466.552 162.635 467.177 162.716C467.618 162.774 468.002 162.859 468.328 162.973C468.654 163.086 468.893 163.181 469.044 163.258L468.074 165.126C467.973 165.08 467.845 165.03 467.688 164.976C467.533 164.918 467.354 164.876 467.152 164.85C466.678 164.788 466.315 164.857 466.064 165.057C465.819 165.253 465.646 165.559 465.547 165.973L462.805 177.418L460.249 177.086ZM467.042 177.968L469.583 167.359L472.133 167.69L469.592 178.299L467.042 177.968ZM471.226 166.019C470.822 165.967 470.506 165.791 470.278 165.49C470.051 165.185 469.982 164.847 470.071 164.474C470.161 164.096 470.384 163.795 470.738 163.57C471.093 163.341 471.472 163.252 471.876 163.305C472.284 163.358 472.6 163.537 472.822 163.841C473.051 164.141 473.12 164.48 473.029 164.858C472.94 165.231 472.718 165.532 472.362 165.761C472.013 165.986 471.634 166.072 471.226 166.019ZM476.883 179.459C475.803 179.318 474.931 178.965 474.268 178.4C473.609 177.835 473.169 177.115 472.947 176.242C472.732 175.364 472.752 174.388 473.009 173.315C473.267 172.238 473.706 171.315 474.326 170.545C474.948 169.771 475.698 169.204 476.579 168.843C477.465 168.479 478.436 168.365 479.493 168.502C480.371 168.616 481.11 168.876 481.71 169.282C482.316 169.683 482.751 170.198 483.017 170.826C483.284 171.449 483.355 172.147 483.228 172.918L480.791 172.602C480.815 172.078 480.682 171.622 480.393 171.233C480.109 170.84 479.66 170.604 479.045 170.524C478.524 170.456 478.033 170.535 477.572 170.76C477.113 170.98 476.711 171.332 476.368 171.814C476.03 172.297 475.775 172.896 475.604 173.61C475.431 174.332 475.39 174.968 475.481 175.516C475.574 176.06 475.781 176.498 476.104 176.829C476.432 177.157 476.861 177.355 477.392 177.424C477.768 177.472 478.12 177.447 478.449 177.347C478.783 177.244 479.084 177.071 479.35 176.83C479.615 176.589 479.832 176.283 479.998 175.91L482.435 176.227C482.195 176.969 481.81 177.605 481.281 178.135C480.753 178.66 480.115 179.042 479.365 179.282C478.616 179.517 477.789 179.576 476.883 179.459ZM486.722 180.743C486.037 180.654 485.448 180.454 484.956 180.143C484.47 179.828 484.124 179.413 483.918 178.897C483.717 178.382 483.7 177.777 483.866 177.082C484.01 176.483 484.241 176.003 484.56 175.641C484.879 175.279 485.262 175.005 485.708 174.821C486.154 174.637 486.635 174.517 487.152 174.46C487.675 174.4 488.206 174.376 488.745 174.389C489.394 174.407 489.922 174.416 490.329 174.417C490.737 174.413 491.043 174.367 491.248 174.28C491.459 174.188 491.593 174.023 491.65 173.784L491.66 173.742C491.784 173.222 491.724 172.799 491.477 172.472C491.231 172.146 490.812 171.944 490.221 171.868C489.596 171.786 489.069 171.856 488.639 172.075C488.213 172.295 487.893 172.579 487.679 172.926L485.378 172.286C485.721 171.666 486.159 171.167 486.695 170.79C487.232 170.409 487.838 170.151 488.515 170.015C489.192 169.875 489.909 169.854 490.665 169.952C491.186 170.02 491.691 170.147 492.178 170.334C492.666 170.521 493.091 170.78 493.452 171.112C493.814 171.439 494.068 171.854 494.214 172.357C494.364 172.861 494.355 173.465 494.186 174.17L492.485 181.27L490.034 180.952L490.384 179.495L490.299 179.484C490.073 179.758 489.789 180.006 489.445 180.227C489.108 180.445 488.709 180.604 488.249 180.706C487.794 180.804 487.286 180.816 486.722 180.743ZM487.824 178.991C488.336 179.058 488.804 179.016 489.227 178.867C489.651 178.713 490.004 178.484 490.285 178.178C490.571 177.874 490.761 177.526 490.855 177.134L491.154 175.884C491.059 175.938 490.908 175.98 490.702 176.011C490.501 176.042 490.279 176.063 490.034 176.074C489.789 176.084 489.548 176.091 489.31 176.094C489.072 176.096 488.866 176.098 488.692 176.099C488.299 176.1 487.939 176.139 487.611 176.215C487.283 176.291 487.007 176.421 486.784 176.606C486.561 176.786 486.412 177.037 486.334 177.359C486.224 177.82 486.312 178.19 486.599 178.469C486.885 178.748 487.294 178.923 487.824 178.991ZM502.993 171.695L502.529 173.629L496.31 172.822L496.773 170.888L502.993 171.695ZM498.918 168.545L501.467 168.876L499.082 178.836C499.001 179.172 498.991 179.437 499.051 179.63C499.117 179.819 499.23 179.957 499.388 180.044C499.546 180.131 499.731 180.188 499.942 180.215C500.102 180.236 500.25 180.243 500.387 180.237C500.529 180.232 500.637 180.225 500.712 180.216L500.673 182.226C500.526 182.254 500.319 182.28 500.052 182.302C499.79 182.325 499.477 182.318 499.114 182.28C498.471 182.215 497.918 182.046 497.456 181.773C496.995 181.494 496.667 181.115 496.472 180.634C496.282 180.153 496.269 179.582 496.433 178.919L498.918 168.545ZM507.207 183.394C506.123 183.254 505.239 182.911 504.556 182.367C503.879 181.818 503.426 181.109 503.199 180.239C502.973 179.365 502.993 178.373 503.258 177.263C503.52 176.172 503.96 175.241 504.58 174.472C505.206 173.699 505.957 173.131 506.833 172.77C507.709 172.405 508.664 172.289 509.697 172.423C510.364 172.509 510.968 172.697 511.509 172.986C512.056 173.27 512.504 173.661 512.855 174.157C513.21 174.654 513.438 175.259 513.539 175.97C513.641 176.676 513.581 177.494 513.358 178.424L513.174 179.191L504.307 178.04L504.71 176.355L511.134 177.188C511.244 176.709 511.24 176.269 511.123 175.87C511.007 175.465 510.789 175.131 510.47 174.866C510.156 174.602 509.754 174.439 509.266 174.375C508.745 174.307 508.257 174.372 507.803 174.57C507.35 174.763 506.966 175.045 506.649 175.417C506.338 175.785 506.124 176.206 506.005 176.679L505.653 178.151C505.505 178.768 505.493 179.312 505.617 179.784C505.743 180.251 505.984 180.629 506.341 180.918C506.699 181.202 507.155 181.379 507.709 181.451C508.08 181.499 508.428 181.492 508.753 181.43C509.078 181.363 509.376 181.243 509.645 181.069C509.914 180.895 510.141 180.666 510.326 180.381L512.643 180.952C512.345 181.55 511.93 182.051 511.397 182.457C510.87 182.859 510.25 183.144 509.536 183.312C508.824 183.476 508.048 183.504 507.207 183.394ZM262.509 168.193C262.922 166.466 263.535 164.91 264.346 163.525C265.163 162.135 266.181 160.886 267.4 159.776L269.802 160.088C269.336 160.498 268.869 161.014 268.4 161.637C267.932 162.255 267.489 162.943 267.071 163.7C266.658 164.454 266.285 165.243 265.951 166.069C265.623 166.895 265.36 167.718 265.164 168.538C264.902 169.629 264.748 170.748 264.701 171.896C264.658 173.044 264.712 174.122 264.863 175.129C265.02 176.132 265.265 176.969 265.598 177.638L263.196 177.327C262.566 175.977 262.189 174.549 262.066 173.042C261.948 171.532 262.096 169.915 262.509 168.193ZM278.395 166.972C278.473 166.36 278.309 165.855 277.901 165.455C277.498 165.056 276.909 164.806 276.134 164.706C275.59 164.635 275.103 164.655 274.675 164.766C274.247 164.876 273.896 165.056 273.623 165.306C273.35 165.555 273.169 165.857 273.08 166.211C273.009 166.505 273.016 166.77 273.1 167.004C273.189 167.239 273.335 167.448 273.538 167.631C273.742 167.809 273.978 167.968 274.245 168.107C274.512 168.246 274.785 168.369 275.064 168.477L276.337 168.984C276.852 169.179 277.335 169.415 277.787 169.692C278.243 169.969 278.632 170.295 278.954 170.669C279.281 171.044 279.507 171.475 279.632 171.961C279.758 172.447 279.747 172.997 279.601 173.609C279.402 174.438 279.011 175.14 278.428 175.714C277.846 176.285 277.104 176.694 276.202 176.942C275.306 177.187 274.281 177.234 273.126 177.084C272.003 176.939 271.07 176.642 270.325 176.194C269.585 175.746 269.061 175.166 268.753 174.452C268.449 173.738 268.391 172.909 268.579 171.965L271.149 172.298C271.069 172.796 271.126 173.226 271.32 173.588C271.514 173.951 271.81 174.241 272.208 174.458C272.611 174.677 273.084 174.821 273.629 174.892C274.197 174.966 274.715 174.948 275.182 174.837C275.654 174.723 276.049 174.532 276.365 174.264C276.682 173.992 276.891 173.654 276.993 173.249C277.076 172.88 277.039 172.562 276.88 172.295C276.723 172.022 276.468 171.781 276.117 171.569C275.772 171.353 275.356 171.147 274.871 170.951L273.329 170.324C272.213 169.87 271.382 169.295 270.838 168.598C270.299 167.896 270.151 167.039 270.393 166.026C270.593 165.192 270.998 164.493 271.608 163.926C272.223 163.36 272.971 162.956 273.852 162.715C274.734 162.468 275.68 162.411 276.689 162.542C277.713 162.674 278.568 162.966 279.254 163.416C279.946 163.862 280.439 164.422 280.732 165.096C281.027 165.766 281.086 166.5 280.909 167.298L278.395 166.972ZM291.275 168.644C291.354 168.032 291.189 167.526 290.781 167.127C290.378 166.728 289.789 166.478 289.015 166.378C288.47 166.307 287.983 166.327 287.555 166.437C287.127 166.548 286.776 166.728 286.503 166.977C286.231 167.227 286.049 167.529 285.96 167.883C285.889 168.177 285.896 168.442 285.98 168.676C286.069 168.91 286.215 169.119 286.419 169.302C286.623 169.481 286.858 169.64 287.125 169.779C287.392 169.918 287.665 170.041 287.944 170.148L289.217 170.656C289.732 170.851 290.215 171.087 290.667 171.364C291.123 171.641 291.513 171.967 291.834 172.341C292.161 172.716 292.387 173.146 292.513 173.633C292.638 174.119 292.628 174.668 292.481 175.281C292.282 176.11 291.892 176.812 291.309 177.386C290.727 177.956 289.985 178.366 289.083 178.614C288.187 178.859 287.161 178.906 286.006 178.756C284.884 178.61 283.95 178.314 283.205 177.866C282.465 177.418 281.941 176.837 281.633 176.123C281.329 175.41 281.271 174.581 281.459 173.637L284.03 173.97C283.949 174.468 284.006 174.898 284.2 175.26C284.394 175.622 284.69 175.912 285.088 176.13C285.491 176.349 285.965 176.493 286.509 176.564C287.077 176.638 287.595 176.619 288.062 176.509C288.535 176.395 288.929 176.204 289.245 175.936C289.562 175.664 289.771 175.326 289.873 174.921C289.956 174.552 289.919 174.234 289.76 173.966C289.603 173.694 289.348 173.452 288.997 173.241C288.652 173.025 288.237 172.819 287.751 172.623L286.209 171.996C285.093 171.542 284.262 170.967 283.718 170.269C283.179 169.568 283.031 168.711 283.274 167.698C283.473 166.864 283.878 166.164 284.488 165.598C285.103 165.032 285.851 164.628 286.732 164.386C287.614 164.14 288.56 164.082 289.569 164.213C290.593 164.346 291.448 164.638 292.134 165.088C292.826 165.533 293.319 166.094 293.612 166.768C293.907 167.438 293.966 168.172 293.789 168.97L291.275 168.644ZM308.451 171.785L305.817 171.443C305.843 171.009 305.795 170.616 305.671 170.263C305.549 169.905 305.365 169.592 305.119 169.323C304.874 169.053 304.573 168.836 304.215 168.671C303.863 168.502 303.467 168.389 303.026 168.331C302.241 168.23 301.5 168.333 300.802 168.641C300.104 168.945 299.496 169.445 298.975 170.142C298.456 170.834 298.069 171.712 297.814 172.776C297.555 173.858 297.508 174.792 297.673 175.577C297.844 176.359 298.185 176.978 298.696 177.434C299.212 177.885 299.86 178.161 300.639 178.263C301.071 178.319 301.488 178.316 301.89 178.254C302.298 178.188 302.679 178.064 303.032 177.882C303.391 177.701 303.712 177.463 303.995 177.167C304.284 176.872 304.518 176.523 304.697 176.119L307.328 176.474C307.068 177.134 306.703 177.737 306.233 178.284C305.768 178.831 305.219 179.296 304.585 179.679C303.952 180.058 303.253 180.328 302.488 180.49C301.724 180.647 300.912 180.67 300.053 180.558C298.785 180.394 297.723 179.959 296.865 179.254C296.008 178.549 295.423 177.616 295.11 176.455C294.797 175.294 294.823 173.954 295.187 172.435C295.552 170.91 296.153 169.645 296.99 168.638C297.828 167.626 298.813 166.897 299.947 166.451C301.08 166.004 302.276 165.863 303.534 166.026C304.337 166.13 305.057 166.338 305.695 166.648C306.332 166.959 306.869 167.363 307.307 167.862C307.745 168.355 308.064 168.933 308.264 169.595C308.469 170.253 308.532 170.983 308.451 171.785ZM314.73 174.971C314.318 176.693 313.703 178.249 312.886 179.639C312.075 181.024 311.059 182.271 309.84 183.381L307.438 183.069C307.909 182.66 308.376 182.146 308.839 181.527C309.306 180.909 309.747 180.221 310.161 179.463C310.58 178.705 310.954 177.914 311.282 177.087C311.615 176.262 311.88 175.442 312.075 174.626C312.336 173.535 312.488 172.415 312.531 171.267C312.578 170.12 312.524 169.042 312.369 168.034C312.218 167.027 311.976 166.189 311.642 165.519L314.044 165.83C314.675 167.18 315.048 168.61 315.166 170.121C315.289 171.628 315.144 173.244 314.73 174.971ZM209.528 180.186L205.462 197.16L202.842 196.82L206.292 182.415L206.191 182.402L201.414 184.517L202.002 182.063L206.984 179.856L209.528 180.186ZM216.103 198.832C214.769 198.653 213.71 198.16 212.928 197.352C212.145 196.544 211.66 195.452 211.472 194.078C211.285 192.703 211.412 191.093 211.854 189.247C212.295 187.407 212.922 185.868 213.736 184.629C214.555 183.391 215.52 182.49 216.631 181.928C217.747 181.367 218.968 181.172 220.292 181.344C221.616 181.515 222.668 182.008 223.45 182.822C224.232 183.63 224.718 184.718 224.907 186.087C225.103 187.452 224.981 189.054 224.54 190.894C224.097 192.745 223.467 194.293 222.652 195.537C221.838 196.776 220.875 197.679 219.763 198.247C218.653 198.81 217.432 199.004 216.103 198.832ZM216.633 196.619C217.805 196.771 218.855 196.329 219.783 195.293C220.716 194.258 221.437 192.679 221.945 190.557C222.283 189.148 222.416 187.938 222.345 186.926C222.28 185.909 222.027 185.113 221.584 184.537C221.147 183.956 220.543 183.615 219.772 183.515C218.605 183.364 217.555 183.809 216.62 184.849C215.685 185.89 214.961 187.469 214.448 189.584C214.11 190.999 213.972 192.214 214.037 193.231C214.108 194.243 214.362 195.037 214.8 195.612C215.239 196.182 215.849 196.517 216.633 196.619ZM249.163 191.022L246.526 190.68C246.557 190.114 246.485 189.603 246.309 189.147C246.134 188.692 245.881 188.291 245.551 187.947C245.221 187.602 244.826 187.323 244.366 187.109C243.912 186.896 243.408 186.754 242.856 186.682C241.859 186.553 240.907 186.683 240 187.072C239.099 187.462 238.307 188.103 237.623 188.994C236.944 189.886 236.441 191.017 236.113 192.387C235.782 193.769 235.728 194.964 235.951 195.973C236.18 196.982 236.63 197.782 237.303 198.37C237.975 198.959 238.804 199.317 239.79 199.445C240.337 199.516 240.872 199.512 241.397 199.432C241.928 199.347 242.429 199.187 242.898 198.951C243.366 198.716 243.789 198.409 244.164 198.03C244.546 197.647 244.856 197.191 245.093 196.664L247.728 197.014C247.387 197.83 246.93 198.563 246.356 199.212C245.789 199.856 245.129 200.392 244.376 200.818C243.63 201.24 242.821 201.536 241.95 201.708C241.078 201.88 240.166 201.904 239.213 201.78C237.715 201.586 236.463 201.064 235.457 200.216C234.453 199.362 233.77 198.239 233.406 196.847C233.048 195.456 233.085 193.857 233.518 192.051C233.952 190.238 234.663 188.727 235.65 187.516C236.638 186.3 237.802 185.42 239.141 184.875C240.481 184.326 241.897 184.148 243.391 184.342C244.309 184.461 245.134 184.702 245.867 185.065C246.606 185.423 247.234 185.892 247.752 186.472C248.271 187.046 248.653 187.717 248.899 188.484C249.147 189.245 249.235 190.091 249.163 191.022ZM264.04 192.79C263.997 192.266 263.885 191.788 263.704 191.354C263.531 190.915 263.289 190.531 262.979 190.2C262.67 189.864 262.291 189.589 261.842 189.377C261.399 189.166 260.89 189.023 260.315 188.948C259.341 188.822 258.403 188.954 257.502 189.344C256.601 189.734 255.808 190.375 255.124 191.266C254.447 192.152 253.944 193.28 253.616 194.651C253.287 196.027 253.236 197.219 253.465 198.229C253.694 199.239 254.146 200.041 254.823 200.636C255.5 201.231 256.345 201.594 257.359 201.726C258.3 201.848 259.165 201.766 259.954 201.481C260.748 201.197 261.419 200.737 261.966 200.102C262.52 199.461 262.909 198.674 263.133 197.74L263.779 197.953L258.827 197.31L259.333 195.196L266.137 196.079L265.674 198.01C265.333 199.436 264.726 200.634 263.855 201.603C262.991 202.568 261.947 203.264 260.723 203.692C259.505 204.121 258.197 204.244 256.799 204.063C255.233 203.86 253.943 203.327 252.929 202.467C251.921 201.606 251.243 200.484 250.895 199.1C250.548 197.711 250.589 196.121 251.017 194.331C251.342 192.977 251.824 191.786 252.466 190.758C253.107 189.731 253.864 188.886 254.737 188.224C255.617 187.558 256.575 187.087 257.612 186.811C258.655 186.531 259.737 186.463 260.858 186.609C261.794 186.73 262.632 186.979 263.373 187.354C264.119 187.73 264.748 188.208 265.26 188.787C265.778 189.367 266.163 190.027 266.416 190.766C266.67 191.5 266.771 192.29 266.719 193.138L264.04 192.79ZM267.371 205.196L271.437 188.221L277.607 189.022C278.954 189.197 280.012 189.582 280.781 190.178C281.551 190.773 282.055 191.517 282.295 192.408C282.536 193.294 282.532 194.256 282.283 195.295C282.033 196.339 281.585 197.25 280.94 198.026C280.302 198.798 279.48 199.369 278.473 199.74C277.474 200.106 276.303 200.202 274.962 200.028L270.719 199.477L271.239 197.306L275.246 197.826C276.096 197.936 276.821 197.882 277.42 197.663C278.019 197.439 278.503 197.092 278.872 196.621C279.24 196.151 279.501 195.595 279.655 194.954C279.808 194.313 279.821 193.728 279.692 193.198C279.563 192.669 279.265 192.228 278.797 191.877C278.335 191.527 277.67 191.295 276.802 191.182L273.523 190.757L269.983 205.535L267.371 205.196ZM282.221 207.123L279.449 206.763L289.744 190.597L292.761 190.989L294.924 208.772L292.152 208.412L290.586 193.886L290.451 193.868L282.221 207.123ZM284.278 200.536L293.271 201.704L292.755 203.858L283.762 202.691L284.278 200.536ZM299.989 200.678C300.487 198.601 301.224 196.725 302.2 195.051C303.176 193.378 304.376 191.873 305.8 190.536L308.116 190.837C307.568 191.33 307.018 191.951 306.467 192.7C305.916 193.449 305.391 194.281 304.893 195.196C304.396 196.106 303.95 197.059 303.554 198.056C303.16 199.047 302.845 200.035 302.609 201.018C302.294 202.333 302.108 203.682 302.05 205.065C301.992 206.447 302.05 207.745 302.224 208.959C302.398 210.172 302.674 211.179 303.051 211.98L300.735 211.68C300.018 210.066 299.59 208.349 299.45 206.531C299.311 204.712 299.49 202.761 299.989 200.678ZM316.059 193.774C316.83 193.88 317.558 194.116 318.242 194.484C318.927 194.852 319.497 195.382 319.953 196.074C320.415 196.766 320.701 197.658 320.811 198.749C320.928 199.835 320.805 201.152 320.44 202.7C320.084 204.187 319.615 205.49 319.032 206.611C318.451 207.726 317.781 208.645 317.021 209.367C316.267 210.089 315.438 210.606 314.533 210.915C313.628 211.225 312.671 211.315 311.662 211.184C310.631 211.05 309.763 210.732 309.059 210.23C308.354 209.729 307.835 209.095 307.501 208.328C307.169 207.555 307.051 206.703 307.147 205.769L309.725 206.104C309.719 206.855 309.921 207.491 310.331 208.011C310.748 208.527 311.37 208.838 312.199 208.946C313.466 209.11 314.585 208.697 315.554 207.706C316.525 206.71 317.247 205.237 317.72 203.287L317.584 203.27C317.178 203.707 316.713 204.068 316.192 204.354C315.676 204.64 315.125 204.842 314.539 204.96C313.953 205.077 313.353 205.096 312.739 205.017C311.742 204.887 310.892 204.529 310.19 203.942C309.488 203.356 308.996 202.611 308.712 201.708C308.429 200.805 308.416 199.815 308.674 198.738C308.931 197.666 309.412 196.725 310.117 195.917C310.828 195.109 311.692 194.509 312.709 194.117C313.734 193.72 314.851 193.606 316.059 193.774ZM315.552 195.93C314.892 195.844 314.26 195.927 313.653 196.179C313.054 196.426 312.537 196.801 312.103 197.303C311.67 197.799 311.375 198.376 311.218 199.034C311.06 199.691 311.064 200.307 311.228 200.881C311.4 201.45 311.704 201.925 312.142 202.307C312.586 202.684 313.141 202.915 313.805 203.001C314.301 203.066 314.786 203.032 315.259 202.9C315.732 202.767 316.169 202.556 316.57 202.266C316.972 201.971 317.314 201.622 317.596 201.22C317.878 200.818 318.076 200.382 318.188 199.913C318.338 199.288 318.324 198.688 318.149 198.113C317.978 197.538 317.67 197.054 317.224 196.66C316.78 196.26 316.222 196.017 315.552 195.93ZM326.971 213.171C325.912 213.033 325.007 212.711 324.257 212.203C323.514 211.691 322.976 211.051 322.643 210.284C322.309 209.518 322.233 208.682 322.415 207.777L324.951 208.106C324.838 208.843 325.024 209.485 325.509 210.033C325.994 210.58 326.653 210.908 327.487 211.016C328.152 211.102 328.776 211.029 329.361 210.797C329.952 210.561 330.457 210.196 330.878 209.704C331.303 209.212 331.597 208.627 331.76 207.947C331.926 207.256 331.921 206.62 331.747 206.039C331.572 205.458 331.254 204.978 330.793 204.6C330.338 204.221 329.767 203.985 329.081 203.89C328.557 203.822 328.009 203.842 327.437 203.95C326.865 204.058 326.381 204.235 325.985 204.48L323.677 203.821L326.698 195.394L336.214 196.629L335.688 198.825L328.344 197.872L326.657 202.55L326.758 202.563C327.173 202.287 327.685 202.077 328.294 201.934C328.909 201.791 329.538 201.762 330.18 201.845C331.234 201.982 332.113 202.35 332.818 202.948C333.529 203.547 334.019 204.303 334.288 205.216C334.565 206.123 334.568 207.126 334.299 208.225C334.042 209.326 333.553 210.273 332.834 211.069C332.12 211.865 331.253 212.453 330.232 212.833C329.219 213.209 328.132 213.321 326.971 213.171ZM345.869 212.103L346.084 211.208C346.237 210.567 346.513 209.998 346.91 209.503C347.315 209.003 347.818 208.627 348.418 208.374C349.026 208.117 349.705 208.037 350.454 208.134C351.22 208.234 351.824 208.477 352.266 208.865C352.707 209.253 352.996 209.732 353.133 210.302C353.275 210.873 353.269 211.479 353.116 212.12L352.901 213.015C352.748 213.656 352.472 214.227 352.073 214.728C351.675 215.224 351.175 215.6 350.573 215.858C349.978 216.111 349.303 216.189 348.548 216.091C347.787 215.992 347.183 215.749 346.736 215.36C346.29 214.966 345.996 214.486 345.852 213.921C345.71 213.35 345.716 212.744 345.869 212.103ZM348.053 211.463L347.839 212.358C347.725 212.834 347.737 213.28 347.875 213.696C348.014 214.113 348.37 214.359 348.945 214.433C349.514 214.507 349.958 214.365 350.276 214.008C350.594 213.65 350.81 213.234 350.924 212.759L351.138 211.864C351.252 211.388 351.245 210.943 351.118 210.528C350.997 210.113 350.643 209.868 350.057 209.792C349.493 209.719 349.047 209.86 348.718 210.216C348.388 210.572 348.167 210.988 348.053 211.463ZM339.491 201.259L339.705 200.364C339.859 199.723 340.135 199.152 340.534 198.651C340.938 198.151 341.441 197.775 342.042 197.522C342.648 197.27 343.326 197.193 344.075 197.291C344.842 197.39 345.446 197.634 345.887 198.021C346.329 198.409 346.618 198.888 346.754 199.459C346.891 200.029 346.882 200.635 346.729 201.275L346.514 202.171C346.361 202.812 346.085 203.382 345.686 203.883C345.294 204.379 344.797 204.756 344.195 205.014C343.6 205.268 342.925 205.345 342.17 205.247C341.403 205.148 340.796 204.904 340.349 204.515C339.909 204.122 339.617 203.643 339.474 203.077C339.332 202.506 339.337 201.9 339.491 201.259ZM341.683 200.621L341.469 201.516C341.355 201.991 341.364 202.436 341.497 202.853C341.635 203.269 341.992 203.515 342.567 203.59C343.13 203.663 343.571 203.521 343.889 203.163C344.212 202.806 344.431 202.39 344.545 201.915L344.759 201.02C344.873 200.545 344.867 200.099 344.74 199.684C344.612 199.269 344.259 199.023 343.678 198.948C343.115 198.875 342.669 199.016 342.339 199.373C342.016 199.729 341.797 200.145 341.683 200.621ZM337.205 214.26L353.171 198.83L355.191 199.092L339.225 214.522L337.205 214.26ZM362.708 208.819C362.209 210.902 361.472 212.78 360.496 214.454C359.52 216.128 358.32 217.633 356.896 218.969L354.58 218.669C355.128 218.176 355.677 217.555 356.229 216.806C356.78 216.057 357.304 215.228 357.801 214.318C358.299 213.403 358.746 212.447 359.141 211.45C359.537 210.453 359.853 209.462 360.088 208.479C360.402 207.169 360.588 205.823 360.646 204.441C360.704 203.058 360.646 201.76 360.472 200.547C360.298 199.333 360.022 198.326 359.645 197.525L361.96 197.826C362.678 199.44 363.106 201.156 363.245 202.975C363.385 204.793 363.206 206.741 362.708 208.819Z" fill="#460447"/>
<path d="M225.113 217.193L221.952 216.783C221.983 216.263 221.925 215.791 221.777 215.367C221.63 214.938 221.409 214.561 221.115 214.238C220.82 213.915 220.459 213.655 220.03 213.457C219.608 213.254 219.132 213.118 218.602 213.049C217.661 212.927 216.772 213.051 215.934 213.421C215.097 213.785 214.366 214.385 213.742 215.221C213.119 216.052 212.654 217.106 212.349 218.382C212.038 219.681 211.981 220.801 212.179 221.744C212.385 222.682 212.794 223.425 213.406 223.972C214.026 224.514 214.803 224.845 215.739 224.967C216.257 225.034 216.758 225.03 217.24 224.956C217.73 224.877 218.186 224.729 218.611 224.51C219.04 224.293 219.426 224.007 219.766 223.652C220.112 223.298 220.393 222.879 220.608 222.394L223.765 222.821C223.453 223.612 223.016 224.336 222.452 224.992C221.893 225.649 221.234 226.207 220.473 226.666C219.714 227.12 218.875 227.445 217.957 227.639C217.04 227.827 216.066 227.855 215.035 227.721C213.514 227.524 212.239 227.002 211.21 226.156C210.181 225.311 209.479 224.191 209.104 222.798C208.729 221.405 208.759 219.796 209.196 217.973C209.634 216.144 210.355 214.625 211.359 213.417C212.365 212.203 213.548 211.328 214.908 210.792C216.268 210.256 217.703 210.087 219.213 210.283C220.176 210.408 221.04 210.657 221.805 211.029C222.57 211.402 223.215 211.887 223.739 212.485C224.266 213.078 224.649 213.771 224.888 214.566C225.135 215.356 225.21 216.231 225.113 217.193ZM230.001 221.733L228.215 229.192L225.155 228.795L229.221 211.821L232.213 212.209L230.678 218.616L230.83 218.636C231.307 217.957 231.913 217.452 232.649 217.12C233.392 216.783 234.259 216.679 235.251 216.808C236.152 216.925 236.894 217.212 237.476 217.67C238.058 218.127 238.446 218.736 238.642 219.496C238.843 220.257 238.82 221.151 238.574 222.179L236.633 230.285L233.573 229.888L235.404 222.246C235.609 221.39 235.543 220.695 235.206 220.161C234.876 219.622 234.308 219.301 233.502 219.196C232.961 219.126 232.449 219.179 231.965 219.356C231.488 219.527 231.077 219.813 230.732 220.213C230.392 220.613 230.148 221.12 230.001 221.733ZM243.425 231.432C242.603 231.325 241.896 231.085 241.306 230.712C240.722 230.334 240.307 229.836 240.06 229.217C239.819 228.599 239.799 227.873 239.998 227.039C240.171 226.32 240.448 225.744 240.831 225.309C241.214 224.875 241.673 224.547 242.208 224.326C242.743 224.105 243.321 223.96 243.942 223.893C244.569 223.82 245.206 223.792 245.853 223.808C246.632 223.829 247.266 223.84 247.754 223.841C248.243 223.836 248.61 223.781 248.856 223.676C249.109 223.566 249.27 223.368 249.339 223.081L249.351 223.031C249.5 222.406 249.427 221.898 249.132 221.507C248.836 221.115 248.334 220.873 247.624 220.781C246.874 220.684 246.241 220.767 245.725 221.031C245.215 221.295 244.831 221.635 244.574 222.052L241.813 221.283C242.223 220.539 242.75 219.941 243.393 219.489C244.037 219.031 244.765 218.721 245.577 218.559C246.39 218.391 247.25 218.366 248.157 218.483C248.782 218.564 249.388 218.717 249.973 218.941C250.558 219.165 251.068 219.476 251.501 219.874C251.936 220.267 252.24 220.765 252.415 221.369C252.596 221.974 252.585 222.699 252.382 223.544L250.341 232.064L247.4 231.683L247.819 229.934L247.718 229.921C247.447 230.25 247.106 230.548 246.693 230.813C246.288 231.074 245.81 231.265 245.257 231.387C244.712 231.505 244.102 231.519 243.425 231.432ZM244.748 229.33C245.362 229.41 245.923 229.36 246.431 229.181C246.94 228.996 247.363 228.721 247.701 228.354C248.044 227.989 248.272 227.571 248.384 227.101L248.744 225.601C248.629 225.666 248.449 225.717 248.202 225.753C247.961 225.79 247.693 225.815 247.399 225.829C247.106 225.842 246.816 225.85 246.531 225.853C246.246 225.855 245.998 225.857 245.789 225.859C245.318 225.86 244.885 225.907 244.492 225.998C244.098 226.089 243.767 226.246 243.499 226.467C243.232 226.683 243.053 226.985 242.96 227.372C242.828 227.924 242.933 228.368 243.277 228.703C243.621 229.038 244.111 229.247 244.748 229.33ZM258.264 225.401L256.477 232.861L253.418 232.464L256.467 219.733L259.392 220.112L258.874 222.276L259.026 222.295C259.495 221.621 260.107 221.117 260.861 220.782C261.621 220.447 262.485 220.343 263.455 220.469C264.35 220.585 265.086 220.874 265.661 221.336C266.241 221.799 266.629 222.411 266.825 223.171C267.026 223.932 267.002 224.821 266.753 225.836L264.811 233.942L261.751 233.545L263.582 225.904C263.786 225.053 263.72 224.358 263.384 223.818C263.054 223.28 262.495 222.959 261.706 222.857C261.171 222.787 260.667 222.842 260.194 223.02C259.729 223.193 259.326 223.48 258.986 223.88C258.652 224.281 258.411 224.788 258.264 225.401ZM272.685 235.195C271.665 235.063 270.814 234.687 270.131 234.069C269.449 233.45 268.991 232.622 268.757 231.583C268.524 230.544 268.575 229.326 268.91 227.928C269.248 226.514 269.771 225.351 270.477 224.44C271.19 223.524 272.012 222.87 272.943 222.478C273.875 222.081 274.839 221.947 275.836 222.076C276.597 222.175 277.192 222.383 277.621 222.701C278.052 223.013 278.369 223.365 278.571 223.756C278.775 224.141 278.919 224.499 279.003 224.829L279.13 224.845L280.65 218.496L283.718 218.894L279.652 235.869L276.644 235.478L277.124 233.472L276.938 233.448C276.706 233.737 276.399 234.036 276.017 234.346C275.637 234.65 275.172 234.891 274.623 235.071C274.075 235.25 273.429 235.292 272.685 235.195ZM274.128 232.844C274.776 232.928 275.37 232.829 275.908 232.546C276.448 232.257 276.91 231.818 277.295 231.23C277.68 230.642 277.971 229.936 278.168 229.113C278.366 228.29 278.419 227.559 278.328 226.92C278.242 226.282 278.012 225.765 277.636 225.369C277.266 224.973 276.751 224.733 276.092 224.647C275.41 224.559 274.799 224.659 274.26 224.948C273.72 225.237 273.261 225.673 272.883 226.256C272.505 226.84 272.222 227.526 272.032 228.316C271.842 229.112 271.787 229.837 271.869 230.491C271.957 231.141 272.186 231.675 272.557 232.093C272.934 232.507 273.458 232.757 274.128 232.844ZM282.913 236.292L285.962 223.561L288.929 223.946L288.421 226.068L288.556 226.086C288.968 225.381 289.51 224.868 290.18 224.544C290.857 224.216 291.567 224.101 292.311 224.197C292.48 224.219 292.667 224.252 292.871 224.296C293.083 224.334 293.256 224.377 293.39 224.423L292.729 227.183C292.61 227.122 292.413 227.056 292.14 226.987C291.873 226.912 291.61 226.858 291.351 226.824C290.793 226.752 290.263 226.806 289.761 226.985C289.266 227.16 288.842 227.439 288.489 227.82C288.136 228.202 287.895 228.663 287.765 229.205L285.972 236.689L282.913 236.292ZM295.791 238.228C294.968 238.122 294.262 237.882 293.671 237.509C293.088 237.131 292.673 236.633 292.426 236.014C292.185 235.396 292.164 234.67 292.364 233.835C292.536 233.117 292.813 232.541 293.196 232.106C293.579 231.671 294.038 231.344 294.574 231.123C295.109 230.901 295.687 230.757 296.307 230.689C296.934 230.617 297.572 230.589 298.218 230.604C298.998 230.626 299.631 230.637 300.119 230.637C300.608 230.632 300.976 230.578 301.222 230.473C301.475 230.363 301.635 230.165 301.704 229.877L301.716 229.828C301.866 229.203 301.793 228.695 301.497 228.304C301.202 227.912 300.699 227.67 299.989 227.578C299.24 227.481 298.607 227.564 298.091 227.827C297.58 228.092 297.196 228.432 296.94 228.849L294.178 228.08C294.589 227.336 295.116 226.738 295.758 226.285C296.403 225.828 297.13 225.518 297.942 225.355C298.755 225.187 299.615 225.162 300.522 225.28C301.148 225.361 301.753 225.514 302.338 225.738C302.924 225.962 303.433 226.273 303.867 226.671C304.301 227.064 304.606 227.562 304.781 228.166C304.961 228.77 304.95 229.495 304.748 230.341L302.707 238.861L299.766 238.479L300.185 236.731L300.083 236.717C299.812 237.047 299.471 237.344 299.059 237.61C298.654 237.871 298.175 238.062 297.623 238.184C297.078 238.301 296.467 238.316 295.791 238.228ZM297.113 236.127C297.728 236.207 298.289 236.157 298.796 235.978C299.305 235.793 299.729 235.518 300.066 235.151C300.409 234.786 300.637 234.368 300.75 233.898L301.109 232.398C300.995 232.463 300.814 232.514 300.567 232.55C300.326 232.587 300.059 232.612 299.765 232.625C299.471 232.638 299.182 232.646 298.896 232.649C298.611 232.652 298.364 232.654 298.154 232.656C297.683 232.657 297.251 232.703 296.857 232.795C296.463 232.886 296.133 233.043 295.865 233.264C295.598 233.48 295.418 233.782 295.326 234.168C295.193 234.721 295.299 235.165 295.643 235.5C295.987 235.835 296.477 236.044 297.113 236.127ZM310.222 245.032C309.123 244.89 308.215 244.621 307.496 244.226C306.776 243.836 306.235 243.367 305.872 242.819C305.51 242.27 305.306 241.688 305.262 241.073L308.174 240.776C308.239 241.04 308.36 241.31 308.538 241.584C308.716 241.863 308.985 242.109 309.347 242.321C309.713 242.539 310.203 242.688 310.817 242.768C311.684 242.881 312.453 242.767 313.121 242.426C313.788 242.091 314.234 241.454 314.459 240.515L315.037 238.103L314.885 238.083C314.653 238.372 314.346 238.66 313.963 238.946C313.586 239.233 313.124 239.455 312.575 239.612C312.032 239.769 311.388 239.8 310.645 239.703C309.647 239.574 308.798 239.227 308.096 238.663C307.402 238.095 306.925 237.321 306.666 236.341C306.413 235.357 306.453 234.171 306.786 232.784C307.12 231.387 307.64 230.238 308.343 229.338C309.054 228.433 309.874 227.784 310.805 227.392C311.737 226.995 312.701 226.861 313.699 226.99C314.459 227.089 315.054 227.297 315.484 227.615C315.92 227.928 316.242 228.28 316.45 228.672C316.66 229.058 316.804 229.416 316.882 229.745L317.051 229.767L317.555 227.662L320.572 228.053L317.473 240.991C317.213 242.08 316.732 242.946 316.032 243.59C315.331 244.234 314.479 244.673 313.476 244.908C312.473 245.142 311.388 245.184 310.222 245.032ZM312.062 237.46C312.71 237.544 313.299 237.461 313.83 237.211C314.36 236.961 314.813 236.561 315.189 236.012C315.565 235.462 315.85 234.781 316.044 233.969C316.236 233.168 316.286 232.451 316.194 231.818C316.107 231.186 315.875 230.674 315.498 230.283C315.128 229.888 314.613 229.647 313.954 229.562C313.272 229.473 312.662 229.573 312.122 229.862C311.582 230.151 311.124 230.584 310.747 231.162C310.372 231.734 310.092 232.405 309.908 233.173C309.722 233.952 309.674 234.649 309.764 235.265C309.862 235.876 310.1 236.374 310.478 236.759C310.864 237.14 311.392 237.373 312.062 237.46ZM320.659 241.191L323.708 228.46L326.768 228.858L323.718 241.588L320.659 241.191ZM325.679 226.853C325.195 226.79 324.815 226.579 324.541 226.218C324.269 225.853 324.186 225.446 324.293 224.998C324.402 224.545 324.669 224.184 325.093 223.914C325.52 223.639 325.975 223.533 326.459 223.596C326.95 223.66 327.328 223.874 327.595 224.239C327.869 224.599 327.952 225.006 327.843 225.459C327.736 225.907 327.469 226.268 327.043 226.543C326.624 226.813 326.169 226.917 325.679 226.853ZM326.864 241.997L329.914 229.266L332.88 229.651L332.372 231.773L332.507 231.79C332.92 231.086 333.461 230.572 334.132 230.249C334.808 229.921 335.519 229.805 336.263 229.902C336.432 229.924 336.618 229.957 336.823 230C337.034 230.039 337.207 230.081 337.342 230.127L336.68 232.887C336.561 232.826 336.365 232.761 336.091 232.691C335.824 232.617 335.561 232.563 335.302 232.529C334.744 232.457 334.214 232.51 333.712 232.69C333.217 232.865 332.793 233.143 332.44 233.525C332.088 233.906 331.846 234.368 331.717 234.909L329.924 242.394L326.864 241.997ZM336.301 243.221L339.35 230.491L342.41 230.888L339.36 243.619L336.301 243.221ZM341.321 228.883C340.837 228.821 340.458 228.609 340.184 228.249C339.911 227.883 339.828 227.476 339.936 227.029C340.044 226.576 340.311 226.214 340.736 225.945C341.162 225.669 341.617 225.563 342.102 225.626C342.592 225.69 342.97 225.904 343.237 226.269C343.511 226.63 343.594 227.036 343.485 227.489C343.378 227.937 343.112 228.298 342.685 228.573C342.266 228.844 341.812 228.947 341.321 228.883Z" fill="#822684"/>
<defs>
<filter id="filter0_f_75_7" x="492.869" y="55.6373" width="29.4048" height="77.3013" filterUnits="userSpaceOnUse" color-interpolation-filters="sRGB">
<feFlood flood-opacity="0" result="BackgroundImageFix"/>
<feBlend mode="normal" in="SourceGraphic" in2="BackgroundImageFix" result="shape"/>
<feGaussianBlur stdDeviation="2" result="effect1_foregroundBlur_75_7"/>
</filter>
<filter id="filter1_f_75_7" x="492.869" y="114.57" width="123.198" height="32.3747" filterUnits="userSpaceOnUse" color-interpolation-filters="sRGB">
<feFlood flood-opacity="0" result="BackgroundImageFix"/>
<feBlend mode="normal" in="SourceGraphic" in2="BackgroundImageFix" result="shape"/>
<feGaussianBlur stdDeviation="2" result="effect1_foregroundBlur_75_7"/>
</filter>
</defs>
</svg>
